<?xml version="1.0" encoding="utf-8"?>
<!-- Generator: Adobe Illustrator 16.0.3, SVG Export Plug-In . SVG Version: 6.00 Build 0)  -->
<!DOCTYPE svg PUBLIC "-//W3C//DTD SVG 1.1//EN" "http://www.w3.org/Graphics/SVG/1.1/DTD/svg11.dtd">
<svg version="1.1" id="Layer_1" xmlns="http://www.w3.org/2000/svg" xmlns:xlink="http://www.w3.org/1999/xlink" x="0px" y="0px"
	 width="553px" height="613.1px" viewBox="0 0 553 613.1" enable-background="new 0 0 553 613.1" xml:space="preserve">
<g>
	<path fill="#FFFFFF" d="M548.9,222.3c0.6,0.3,0.9,0.8,1.3,1.6c-1.8,3.6-3.7,7.2-5.4,11.1c-1.4,3.3-2.9,6.7-0.9,10.5
		c0.4,0.8,0.5,2.1,0.2,2.9c-1.5,3.4-0.6,7-1.2,11.3c-0.7-1.3-1-1.9-1.6-2.9c-0.9,0.9-1.7,1.6-2.9,2.7c1.2,0.5,1.9,0.8,2.6,1.1v2.5
		c-1.3,0.7-2.6,1.5-4.1,2.4c-0.9-0.8-1.8-1.6-2.9-2.6c-1.1,0.6-2.1,1.2-3.1,1.8c0.5,2.2,1,4,1.6,6.6c0.5,0.4,1.7,1.4,2.8,2.2v2.7
		h2.3c0.4-1.1,0.8-2.4,1.2-3.9c-1.6-0.4-4.1,0.7-4.9-2.3c1.4-0.8,3.1-1.6,4.5-2.7c1.5-1.2,2.8-2.7,4.6-4.6c0,3.6-0.1,6.6,0,9.5
		c0.2,2.9,0.7,5.7,0.9,8.6c0.2,2.5,0,5,0,7.5c0.3,12.7,0.7,25.4,1,38.1c0,1.5,0,3,0,4.5c-0.7,0.3-1.2,0.5-2.2,0.8
		c0.6,0.7,1,1.2,1.5,1.8c0.1-0.1,0.2-0.2,0.3-0.2c0.2,0.3,0.4,0.5,0.4,0.8c0,3.5,0.6,7.1-0.1,10.5c-1.4,6.9-0.5,13.7-0.9,20.6
		c-0.1,1.5-0.7,3-0.9,4.6c-0.2,1.4,0.5,3-1,4.1c-0.2,0.1,0,0.6,0,1c-0.3,3.9-0.5,7.7-1,11.6c-0.4,2.9-1.8,5.6-2.3,8.6
		c-0.9,4.7-2.6,9.3-3.7,14c-0.8,3.4-1.9,6.9-3.3,10.1c-1.4,3.3-2.8,6.5-3.9,9.9c-0.9,2.9-3.2,5-4.7,7.5c-3.3,5.3-6.7,10.6-10,15.9
		c-2.4,3.8-5.2,7.4-7.3,11.5c-1.4,2.8-4,5-6.3,7.4c-1.7,1.8-3.7,3.4-5.5,5.2c-1.7,1.7-3.3,3.6-5.1,5.4c-1.9,1.9-3.8,3.8-5.6,5.7
		l-2,2c-1.1-0.5-1.9-0.9-3.6-1.8c0.7,1.3,0.9,1.9,1.4,2.9c-3.8,3.2-7.7,6.4-11.7,9.7c-4.1,3.4-8.3,6.6-12.3,10.1
		c-3.9,3.4-8.3,6-12.2,9.3c-3.8,3.2-8.3,5.6-13,8.6c-0.6,0-1.7,0.1-2.9,0.2c-0.1,0.9-0.2,1.7-0.3,2.5c-2.9,1.9-5.9,3.6-8.6,5.7
		c-7.9,5.9-16.4,10.9-24.9,16c-7.4,4.5-15,8.8-22.7,12.9c-5,2.7-10.2,5.3-15.1,8.4c-3.7,2.4-8.1,3.6-12.2,5.4c-1,0.4-2.3,0.5-3,1.2
		c-3,2.9-6.9,3.5-10.5,4.9c-1.3,0.5-2.4,1.4-3.7,2c-6,2.8-12,5.7-18.1,8.3c-6.5,2.7-13.1,5.5-19.8,7.8c-3.1,1-6,2.4-9.5,3.9
		c-3.1-0.7-5.9,1.8-9.1,2.9c-2.7,1-5.6,1.7-8.2,3c-0.9,0.4-2.3,0.1-3.3-0.3c-4.6-1.6-9.3-2.6-14-3.7c-3.5-0.9-6.9-2.3-9.8-2
		c-3.9-1.5-7-3-10.2-3.9c-3.2-0.8-6.3-1.7-9.6-2.2c-3.6-0.5-7-2.3-10.6-3.4c-10.5-3.1-20.5-7.7-31-11c-4-1.2-7.9-2.7-11.7-4.4
		c-3.6-1.7-7.4-3.1-10.9-5c-8-4.2-16.1-10-22.2-14.1c-6.4-4.3-11.3-9.8-16.7-15c-5.4-5.2-10.9-10.4-15.9-15.9
		c-5-5.6-9.8-11.3-14.8-16.9c-4.1-4.6-7.7-9.6-12.1-14c-0.7-0.7-1.3-1.5-1.7-2.3c-2.9-6.1-7.3-11.2-10.7-17.1
		c-0.7-1.2-1.7-2.3-2.3-3.6c-2.6-5.7-6.1-10.8-9.4-16.1c-1.6-2.5-2.7-5.2-4.5-7.7c-2.5-3.6-4.1-7.9-6.2-11.9
		c-0.8-1.5-2.1-2.8-2.9-4.3c-4.1-7.6-8.1-15.3-12-23c-3.3-6.6-6.4-13.3-9.3-20.1c-1.9-4.4-3.3-9-4.7-13.6C4.4,378.7,3.4,376,3,373
		c-0.4-2.7-2-5.3-1.8-8.2c-2.5-4.6-0.4-9,0.3-13.5c0.1-0.4,0.7-0.9,0.6-1.2c-0.6-4.3,1-8.4,1.1-12.6c0.1-4.7,1.5-9.3,1-14.1
		c-0.1-0.8,0.7-1.7,0.9-2.6c0.8-3.3,1.4-6.7,1-10.1c-0.7-6.1,0.5-12.1,1.2-18.1c0.5-3.7,0.5-7.4,0.8-11.1c0.1-1.5,0.6-3.1,1-4.6
		c0.3-1.4-0.7-3,0.8-4.2c0.2-0.2,0.2-0.6,0.2-0.9c-0.7-4.6,1.2-9,0.9-13.6c-0.1-2.2,0.7-4.1,1.1-6.1c0.3-1.9-0.9-4,1-5.6
		c0.1-0.1,0-0.3,0-0.5c-0.8-4.6,1.5-9,0.9-13.8c-0.8-0.5-1.7-1.1-2.7-1.7c0.3-3,0-6.4,1.2-9.2c1.2-2.8,2.3-5.8,3.3-8.6
		c1.7-5,4.6-9.4,6.6-14.3c3.1-7.6,6.5-15,10.1-22.3c1.7-3.3,2.8-6.9,4.7-10c4.5-7.3,7.1-15.6,12.6-22.3c3.2-8.2,9.3-14.7,13.3-22.5
		c1.1-2.1,2.8-3.8,4-5.9c2-3.4,5-5.7,7.2-9c1.8-2.6,4.9-4.2,7.2-6.5c2.2-2.2,3.7-5.1,6.1-6.8c2.5-1.8,4.6-3.9,6.5-6.3
		c1.2-1.6,3.2-2.6,4.6-4c7-7.2,15.1-13.1,23-19.2c8.4-6.4,17.6-11.6,26.3-17.6c9.3-6.3,19.1-11.8,28.6-17.9
		c4.2-2.7,8.4-5.4,12.7-7.8c3.3-1.8,7-3.1,10.7-4.3c3.8-1.2,7.8-2.1,11.7-3c3.8-0.9,7.5-2.1,11.2-3.2c4.9-1.4,9.9-2.5,14.8-4.1
		c3.7-1.2,7.5-1.8,11-3.6c0.7-0.4,2,0.4,3.6,0.7c1.6-0.5,3.8-1.5,6.1-1.7c5.5-0.6,11-1,16.6-1c13.2-0.1,26.3,0,39.9,0
		c0.5,0.5,1.2,1.2,1.6,1.6c5-0.5,9.9-0.9,15.1-1.4c0.2,0.2,0.7,0.7,1.4,1.3c-1,0.7-2,1.4-2.9,2v2.2c2.6-0.3,5-0.6,7.3-0.9
		c1.7,2.8-1.2,3.7-1.7,5.5c2.3,1.8,4.3-0.2,5.8-0.5c2.6,0.9,2.5,2.5,2.4,4.2c-0.3,0.3-0.7,0.7-0.9,1c0,0-0.1-0.1-0.1-0.1
		c-0.3,0.2-0.5,0.5-0.8,0.7c0.1,0.1,0.2,0.2,0.3,0.3c0.2-0.3,0.5-0.5,0.6-0.9c0.3-0.4,0.6-0.7,0.9-1c0.6-0.5,1.2-1,1.9-1.3
		c0.7-0.3,1.4-0.5,2.1-0.7c-0.2,0.2-0.3,0.3-0.5,0.5c0.7,0.5,1.4,0.9,2.4,1.5c0-0.7,0.1-1.2,0.1-1.9c-0.8-0.1-1.4-0.1-2-0.1
		c-0.6-0.6-1.2-1.4-1.9-2c-2.3-1.9-4.3-4.1-6-6.9c2.9,1.4,6,2.6,8.8,4.4c3.6,2.3,7.2,4.2,11.2,5.6c2.7,1,5.2,2.8,7.7,4.2
		c3.7,2,7.2,4.2,11,6c5,2.3,9.8,4.7,14.1,8.2c4.1,0.8,6.6,4.1,10,6.1c3.4,1.9,6.9,3.5,10.2,5.6c5,3.2,10.2,6.2,15.1,9.4
		c4.4,2.8,8.7,5.7,12.8,8.9c1.4,1.1,3.3,1.8,5,2.7c-0.9,1.2-1.6,2.2-2.7,3.8c2.9-0.4,5.1-0.7,7.6-1.1v4.8c0.6,0.2,1,0.3,1.9,0.6
		c0.1,1.1,0.3,2.4,0.4,3.8h1.7c-0.2-0.9-0.3-1.6-0.5-2.7c0.2-0.4,0.6-1.2,1.1-2.3c1.5,1.1,3,2.1,4,2.8c1,3.3,1.7,6,2.6,9
		c-1.2,0.1-2.4,0.2-3.5,0.2c-0.8-0.8-1.4-1.4-2-2c-0.5,0.5-1.1,1.1-1.8,1.8c0.4,0.6,0.7,1.1,1.2,1.9c-1.6,0.8-3.3,1.7-5.4,2.7
		c1.1,0.4,1.7,0.6,2.3,0.8v4.8c-0.7,1.5-1.3,2.9-2.5,5.4c2.5-1.2,3.9-1.8,5.4-2.6c-1.4-2.5-0.6-4.7-0.9-7c0.7,0,0.9-0.1,1,0
		c1.4,1.1,2.8,2.3,4.4,3.6c-0.7,1-1.3,1.9-2.2,3.1v4.4c1.2-0.2,2.4-0.4,4-0.7c-0.5-1.1-0.9-1.7-1-2.3c-0.1-0.8,0-1.7,0-2.5
		c0.8-0.4,1.6-0.8,2.8-1.5c0.5,1.2,1.1,2.6,1.7,3.9c1.7-0.8,1.7-0.8,0.6-3.3c0.7-1,1.4-2,2.1-3c-0.1-0.2-0.3-0.3-0.4-0.5
		c-1.4,0.7-2.8,1.4-4.6,2.2c-1.8-1.2-3.6-2.4-5.3-3.6c0.5-3,1.5-4.3,4.1-4.8c1-0.2,2,0,3,0c-0.2,0.2-0.3,0.3-0.5,0.5
		c0.7,0.5,1.4,0.9,2.4,1.5c0-0.7,0.1-1.2,0.1-1.9c-0.8-0.1-1.4-0.1-2-0.1c-1.4-2.5-2.7-5-4.1-7.6c0.2-0.2,0.3-0.4,0.5-0.6
		c1.5,0.9,3.3,1.6,4.6,2.8c1.5,1.4,3.3,2.6,4.1,4.8c0.4,1.1,1.7,2,2.7,2.9c4,3.4,6.8,7.8,9.8,11.9c3.5,4.9,7.1,9.7,10.6,14.6
		c2.2,3,3.9,6.4,5.8,9.6c0.6,1.1,1.2,2.3,2,3.1c1.7,1.8,2.2,3.8,1.9,6.2c4,1,4.5,4.7,6,7.5c0.2,0.4-0.1,1.2,0.1,1.4
		c3.3,2.8,3.1,7.5,5.6,10.7c0.3,0.4,0,1.3-0.1,1.9c0.9,0.9,1.9,1.9,2.8,2.8c-0.3,0.2-0.6,0.4-0.9,0.6c2,4.7,4,9.3,6.2,14.2
		c-0.1,0.1-0.4,0.7-0.7,1.2c-2.2-0.2-3.1,1.4-4,3c-0.4,0.7-0.9,1.3-1.4,2.2c-1.7-0.4-3.3-0.8-5.5-1.4c0.1,1.4,0.2,2.5,0.3,4.4
		c0-0.1-0.3,0.7-0.8,2c1.7-0.9,2.7-1.4,4-2.1h4.5c-0.3,0.9-0.5,1.6-0.8,2.3c0.3,1.3,0.6,2.8,0.9,4.4h2.9c-0.8-2.1-1.5-4-2.4-6.2
		c1.1-0.8,2.4-1.7,3.6-2.6c1,0,2,0,3.1,0c1.8,3.2,2.4,6.9,4.8,10c2.2,2.9,3.7,6.5,5.7,10.2c-0.2,0.8-0.6,2.1-1.1,3.6
		c0.6,0.1,1.1,0.2,1.5,0.3c0.3-0.7,0.7-1.4,1.1-2.4c2.8,1.7,4.8,3.9,6.2,6.7c-0.2,0.4-0.5,0.9-1,1.7c0.6,0.6,1.2,1.3,1.9,2.1
		c0.7-0.4,1.2-0.7,1.5-0.9c1.7,1.9,3.5,3.9,5.6,6.2v4.1C551.9,220.5,551.3,222.5,548.9,222.3c-0.1,0.1,0.1-0.1,0.3-0.3
		c0-0.6-0.1-1.2-0.1-2c-0.7,0-1.2,0.1-1.9,0.1C547.8,221.1,548.2,221.8,548.9,222.3 M208.1,489.1c0.1-0.1,0.1-0.1,0.2-0.2
		c-0.2-0.3-0.5-0.5-0.7-0.8c-0.1,0.1-0.2,0.2-0.3,0.3c0.3,0.2,0.5,0.5,0.9,0.6c0.3,0.3,0.7,0.7,1.1,0.9c-0.1,0.1-0.1,0.1-0.2,0.2
		c0.2,0.3,0.5,0.5,0.7,0.8c0.1-0.1,0.2-0.2,0.3-0.3c-0.3-0.2-0.5-0.5-0.9-0.6C208.8,489.7,208.5,489.4,208.1,489.1 M291.1,126.9
		c0.1,0.1,0.1,0.1,0.2,0.2c0.3-0.2,0.5-0.5,0.8-0.7c-0.1-0.1-0.2-0.2-0.3-0.3c-0.2,0.3-0.5,0.5-0.5,1
		C291.2,127.1,291.2,127,291.1,126.9c-0.3,0.2-0.5,0.4-0.8,0.7c0.1,0.1,0.2,0.2,0.3,0.3C290.8,127.7,291.1,127.4,291.1,126.9
		 M184.3,469.1c-0.1-0.1-0.1-0.1-0.2-0.2c-0.3,0.2-0.5,0.5-0.8,0.7c0.1,0.1,0.2,0.2,0.3,0.3c0.2-0.3,0.5-0.5,0.5-1
		C184.1,469,184.2,469.1,184.3,469.1l0.8-0.7c-0.1-0.1-0.2-0.2-0.3-0.3C184.5,468.4,184.3,468.7,184.3,469.1 M442.3,125.1
		c-0.1-0.1-0.1-0.1-0.2-0.2c-0.3,0.2-0.5,0.5-0.8,0.7c0.1,0.1,0.2,0.2,0.3,0.3c0.2-0.3,0.5-0.5,0.5-1
		C442.1,125,442.2,125.1,442.3,125.1c0.3-0.2,0.5-0.4,0.8-0.7c-0.1-0.1-0.2-0.2-0.3-0.3C442.5,124.4,442.3,124.7,442.3,125.1
		 M406.3,106.1c-0.1-0.1-0.1-0.1-0.2-0.2c-0.3,0.2-0.5,0.5-0.8,0.7c0.1,0.1,0.2,0.2,0.3,0.3c0.2-0.3,0.5-0.5,0.5-1
		C406.1,106,406.2,106.1,406.3,106.1c0.3-0.2,0.5-0.4,0.8-0.7c-0.1-0.1-0.2-0.2-0.3-0.3C406.5,105.4,406.3,105.7,406.3,106.1
		 M238.1,510.1c0.1-0.1,0.1-0.1,0.2-0.2c-0.2-0.3-0.5-0.5-0.7-0.8c-0.1,0.1-0.2,0.2-0.3,0.3c0.3,0.2,0.5,0.5,1,0.5
		C238.2,510,238.1,510.1,238.1,510.1c0.2,0.3,0.4,0.5,0.7,0.8c0.1-0.1,0.2-0.2,0.3-0.3C238.8,510.4,238.5,510.2,238.1,510.1
		 M219.1,20.9c0.1,0.1,0.1,0.1,0.2,0.2l0.8-0.7l-0.3-0.3c-0.2,0.3-0.5,0.5-0.5,1L219.1,20.9c-0.3,0.2-0.5,0.4-0.8,0.7l0.3,0.3
		C218.8,21.7,219.1,21.4,219.1,20.9 M213.3,501.1c-0.1-0.1-0.1-0.1-0.2-0.2l-0.8,0.7c0.1,0.1,0.2,0.2,0.3,0.3c0.2-0.3,0.5-0.5,0.5-1
		C213.1,501,213.2,501.1,213.3,501.1c0.3-0.2,0.5-0.5,0.8-0.7c-0.1-0.1-0.2-0.2-0.3-0.3C213.5,500.4,213.3,500.7,213.3,501.1
		 M440.3,228.9c-0.1,0.1-0.1,0.1-0.2,0.2l0.7,0.8c0.1-0.1,0.2-0.2,0.3-0.3c-0.3-0.2-0.5-0.5-1-0.5
		C440.2,229.1,440.2,229,440.3,228.9l-0.7-0.8c-0.1,0.1-0.2,0.2-0.3,0.3C439.5,228.7,439.8,228.9,440.3,228.9 M250.2,31
		c0.3,0.3,0.7,0.7,1,1c-0.2,0.2-0.3,0.4-0.5,0.5c0.7,0.5,1.4,0.9,2.4,1.5c0-0.7,0.1-1.2,0.1-1.9c-0.8-0.1-1.4-0.1-2-0.1
		c-0.3-0.3-0.7-0.7-1.1-0.9l0.2-0.2c-0.2-0.3-0.5-0.5-0.7-0.8l-0.3,0.3C249.5,30.7,249.8,30.9,250.2,31 M294.1,392.9
		c0.1,0.1,0.1,0.1,0.2,0.2c0.3-0.2,0.5-0.5,0.8-0.7l-0.3-0.3c-0.2,0.3-0.5,0.5-0.5,1C294.2,393.1,294.2,393,294.1,392.9
		c-0.3,0.2-0.5,0.5-0.8,0.7l0.3,0.3C293.8,393.7,294.1,393.4,294.1,392.9 M463.1,264.1c0.1-0.1,0.1-0.1,0.2-0.2l-0.7-0.8
		c-0.1,0.1-0.2,0.2-0.3,0.3c0.3,0.2,0.5,0.5,0.9,0.6c0.2,0.8-0.5,1.9,1,2c0.2,0.8-0.5,1.9,1,2c0.4,4.6,3.9,10.1,8.1,12.8
		c1.1-0.3,2-0.5,2.9-0.8c-0.2,1.1,1,2.1,0.9,2.6c-0.4,2,2.3,0.9,2.3,2.6c0,1.2,1.1,2.3,1.7,3.5c-0.3,0.3-0.6,0.6-0.8,0.8
		c1,0.6,2,1.3,2.6,1.7c0.5,5.9,1,11.2,1.4,16.3c0.6,0.7,1,1.2,1.7,1.9c5.9-0.4,11.9-0.9,17.9-1.3c1.4-0.1,2.9,0,4.4,0
		c0-7.1,0.2-13.7,0-20.4c-0.2-6.5,0.2-13-0.7-19.6c-1.2-8.4-0.1-17-1-25.6c-1-9.1-0.2-18.3-0.2-27.5c0-1,0.6-2.1,0.8-2.5
		c-0.3-1.9-0.7-3.3-0.8-4.6c-0.1-7.5,0-15,0-22.5c-0.7-0.5-1.4-1.2-2-1.3c-2.9-0.2-5.5-1.1-8.2-2.1c-3.5-1.2-7.3-1.5-10.8-2.9
		c-1.3-0.5-3-0.4-4,1.6c0,11-0.1,22.3,0.1,33.6c0,2.8,0.8,5.6,1.2,8.5c0,0.3,0.4,0.5,0.7,0.7c-2,1.4-0.3,3.8-1,5
		c-1.2,0.8-2,1.2-2.6,1.6c-0.4,2.4-0.8,4.5-1.1,6.8c0.5,0.1,0.9,0.1,1.4,0.2c0.5-0.9,0.9-1.7,1-2c-0.2-1.5-0.4-2.7-0.6-4
		c0.9,0.1,1.3,0.1,2,0.2v11c0,3.5-0.1,7,0,10.5c0.1,3.5-0.4,7,0.5,10.4h-1.5c0-2.3-1.9-3.4-3-5c-0.1-0.6-0.1-1.4-0.4-1.8
		c-3.2-4.6-6-9.5-8.6-14.4c-1.9-3.6-3.8-7.1-5.9-10.9c0.6-1.6,1.3-3.6,2-5.8h-2.8c-0.4-0.3-0.7-0.6-1.1-1c-0.2,1-0.4,2-0.6,3.1
		c-1.3-2.5-2.2-4.4-3.2-6.3c-1.1-2-2.2-4.1-3.4-6.1c-1.1-1.9-1.9-4-3.4-5.6c-1.6-1.7-0.6-4.4-3.3-5.7c-1.6-0.8-2.2-3.6-3.3-5.5
		c-1.3-2-2.7-3.9-4-5.9c-1.2-1.8-2.4-3.6-3.5-5.4c-1.2,0.6-2,1-3.2,1.6c-0.6-2.5-1.2-4.8-1.7-7.2h-18.1c-0.4,0.7-0.8,1.6-1.4,2.7
		c-0.4,2.5,0.9,5.6-1,8.2c2,3.7,0.5,7.7,1,11.6c-0.8,0.5-1.5,0.9-2.1,1.4c-0.5,0.4-0.7,1-1.3,1.7c1.4,0.2,2.3,0.4,3.4,0.5
		c-0.7,12.5,1,24.9-1.1,37.2c0,19.7,0,39.3,0,59c0,2.6,0.6,4.7,2.4,6.4h18.7v-3.1c0-2.2-0.5-4.5,0.1-6.4c0.6-1.9-0.3-3.5-0.2-5.2
		c0.2-2.1,0-4.3,0.1-6.5c0-1.5-0.3-3.2,0.3-4.3c1.2-2.3,1-4.8,0.4-6.7c-0.6-1.6-0.6-3.1-0.7-4.7c-0.5-9,0.6-18-0.8-27.1
		c-1-6.2-0.3-12.6-0.1-19c0.1-2.1,0.6-4.4,2.5-6c0.2-0.1,0.2-0.4,0.3-0.7c-0.6-0.2-1.2-0.4-1.6-0.5c-0.3-2-0.5-3.8-0.8-5.8
		c3.2,0.3,2.9,3.9,5.1,5.2c2,1.2,2.1,3.8,3.5,5.8c-1.1,0-1.6,0-2.9,0l0.9,0c-0.1-0.7-0.3-1.3-0.4-2c-0.2,0-0.4,0.1-0.6,0.1
		c0.1,0.6,0.1,1.3,0.9,1.9c0.2,1.9,2,0.5,2.7,1.2c3.4,7.8,7.5,15.3,11.7,22.4c0.9-0.3,1.6-0.5,3.1-1c-2.8,2.9-0.9,5.3,0,7
		c1,1.8,1.8,4.4,4.8,5.4c-1.1-3.7-4.2-6.2-4.2-10.1c0.8,0.2,1.5,0.2,1.7,0.4c2.3,3.9,4.6,7.7,6.9,11.7c1.3-0.2,2.5,0.2,3.3,1.4
		c1.9,2.9,3.8,5.7,5.6,8.7c1.5,2.5,2.9,5.2,4.4,7.9h-1.9c-0.9-1.3-1-3.1-2.7-4c-0.3,0.8-0.5,1.4-0.7,2c-0.6-0.1-1-0.2-1.7-0.3
		c0.4-0.5,0.7-0.8,0.9-1.1c-2.3-2.9-4.5-5.8-6.8-8.7c-0.2-0.8,0.5-1.9-1-2C464,265.3,464.7,264.1,463.1,264.1 M62.6,151.2
		c-0.7-0.8-0.9-1.1-1-1.1c-0.5,0.1-0.9,0.3-1.4,0.4c0.6,0.2,1.2,0.3-2.4-1.6c0.7,0.8,0.9,1.1,1,1.1c0.5-0.1,0.9-0.3,1.4-0.4
		C59.6,149.4,59,149.2,62.6,151.2 M237.3,107.6c-0.8,0.7-1.1,0.9-1.1,1c0.1,0.5,0.3,0.9,0.4,1.4c0.2-0.6,0.3-1.2-0.4,0.1
		c-0.1-0.1-0.1-0.1-0.2-0.2l-0.8,0.7l0.3,0.3C235.8,110.7,236.1,110.4,237.3,107.6 M221.3,477.6c-0.8,0.7-1.2,0.9-1.1,1.1
		c0.1,0.5,0.3,0.9,0.4,1.4c0.2-0.6,0.3-1.2-0.4,0.1c-0.1-0.1-0.1-0.1-0.2-0.2c-0.3,0.2-0.5,0.5-0.8,0.7c0.1,0.1,0.2,0.2,0.3,0.3
		C219.8,480.7,220.1,480.4,221.3,477.6 M312.7,415.5c0.2,0.2,0.3,0.4,0.5,0.5c0.6,0,1.2-0.1,2-0.1c0-0.7-0.1-1.2-0.1-1.9
		c-0.9,0.6-1.6,1.1-1.9,2c-0.3,0.3-0.7,0.7-1,0.5c-1.2,0.7-2.1,1.2-3.1,1.8c0.1,0.2,0.1,0.4,0.2,0.7c1-0.1,1.9-0.2,2.9-0.2V417
		C312.5,416.7,312.8,416.4,312.7,415.5 M227,147.4c1.6-0.7,2.8-1.2,4.5-1.9c-2.4-0.9-3.6-0.3-4.2,1.6l-0.2-0.2
		c-0.3,0.2-0.5,0.5-0.8,0.7l0.3,0.3C226.8,147.7,227.1,147.4,227,147.4 M254.2,525.5c1.2-0.7,2.1-1.2,3.1-1.8
		c-0.1-0.2-0.1-0.4-0.2-0.7c-1,0.1-1.9,0.2-2.9,0.2c0,0.8,0,1.3,0.1,1.8c-0.1-0.1-0.1-0.1-0.2-0.2l-0.8,0.7c0.1,0.1,0.2,0.2,0.3,0.3
		C253.8,525.7,254.1,525.4,254.2,525.5 M255.2,46c1.9,0.4,2.6-0.8,3.2-2.5c-0.7-0.2-1.2-0.4-1.7-0.5c-0.6,1.1-1,2.1-1.4,3.2
		L255.2,46c-0.4,0.2-0.6,0.4-0.9,0.6l0.3,0.3C254.8,46.7,255.1,46.4,255.2,46 M312.9,105.6c0.1,0.2,0.2,0.4,0.3,0.6
		c1.4-0.6,2.7-1.1,4-1.7c-0.2-0.7-0.2-1-0.4-1.5c-1.4,0.9-2.7,1.8-3.2,3.5c-0.2-0.2-0.3-0.4-0.5-0.5c-0.6,0-1.2,0.1-2,0.1
		c0,0.7,0.1,1.2,0.1,1.9C312.3,107.4,313,107,312.9,105.6 M411.3,429.9c-0.1,0.1-0.1,0.1-0.2,0.2c0.2,0.3,0.5,0.5,0.7,0.8l0.3-0.3
		c-0.3-0.2-0.5-0.5-0.4,0c-0.8-2-1.4-3.4-2.1-5.1c-0.8,0.7-1.2,1-1.6,1.4C409.2,428.1,410.1,429.1,411.3,429.9 M227.2,15
		c0.3,0.3,0.7,0.7,1,0.5v3.1c-1.2,0.8-2.5,1.7-4,2.7c0,0.6,0.2,1.3,0,1.9c-0.2,0.7-0.8,1.3-1.4,2.4c1.5,0.7,2.7,1.2,3.2,1.4
		c1.8-1.5,3.1-2.5,4-3.2c0.4-1.3,0.6-2.1,0.9-3.2c3,1.8-0.1,3.6,0.5,5.2c1.9,0.7,2.3-0.6,3-1.8c-0.9-2.3-1.8-4.6-2.6-6.7
		c-1-0.5-2-0.9-3.6-1.2C227.8,15.7,227.5,15.4,227.2,15c0.4-2.3-1.6-2.7-2.8-4.5C224.5,14.3,224.5,14.3,227.2,15 M383.1,211.1
		c1.8-0.2,3.2-0.8,4.7-2.7c-1.4-0.2-2.3-0.3-3.1-0.4c-0.5,1.1-1,2.1-1.7,2.7c-0.9,0.6-1.8,1.2-3.1,2
		C382.2,213.5,382.6,212.1,383.1,211.1 M466.1,314c2.9,0.4,2.8-2.2,4.4-4.2c-2.9,0.7-4.3,1.8-4.2,4.2c-3.3,0.9-3.3,0.9-2.6,4.3
		C464.7,316.7,465.5,315.4,466.1,314 M505.4,157.4c-0.1-0.2-0.3-0.4-0.4-0.6c-2,0.9-4,1.9-6.1,2.8c0.4,0.7,0.5,1.1,0.9,1.8
		C501.8,160,503.6,158.7,505.4,157.4c0.9-0.6,1.8-1.1,3.1-2C506.2,154.6,505.8,155.9,505.4,157.4 M214.3,41.9
		c-0.1,0.1-0.1,0.1-0.2,0.2l0.7,0.8l0.3-0.3c-0.3-0.2-0.5-0.5-1.1-0.7c-1.6-1-1.8-1.2-2.4-0.7c-1.5,1.5-2.8,0.6-4.4-0.2
		c0.1,1.1,0.1,2,0.1,3.1C209.8,43.3,212,42.6,214.3,41.9 M299.9,65.3c2.5-0.4,3.5-1.9,4.6-3.6l-2.8-2.8c-1,0.1-1.7,0.1-3.1,0.2
		c1.1,1.5,1.8,2.5,2.4,3.3c-0.3,0.8-0.6,1.6-0.7,2.6c-0.1-0.1-0.1-0.1-0.2-0.2c-0.3,0.2-0.5,0.5-0.8,0.7c0.1,0.1,0.2,0.2,0.3,0.3
		C299.8,65.7,300.1,65.4,299.9,65.3 M461.3,139.2c1.7-2.4,3.3-4.8,4.9-7.2c-0.9-1.8-2.1-2.4-4.3-1.6c0.3,0.7,0.6,1.4,0.9,2.2
		c-1.2,1.8-2.3,3.9-1.8,5.9c-1.3,1.4-2.3,2.5-3.5,3.8c2,1.5,2.6,0,3.5-0.8C461.2,140.7,461.2,139.9,461.3,139.2 M408.2,75.9
		c-1.2,0.7-2.4,1.8-3.6,2.1c-1.2,0.2-2.6-0.5-4.1-0.8c-0.5,0.7-1,1.5-1.6,2.3c1.9,1.5,3.1-0.1,4.5-0.4c1.5,1.2,3.1,1.3,4.7,0.6
		c0-1.3,0-2.5-0.1-3.7c0.1,0.1,0.1,0.1,0.2,0.2c0.3-0.2,0.5-0.5,0.8-0.7c-0.1-0.1-0.2-0.2-0.3-0.3C408.5,75.4,408.3,75.7,408.2,75.9
		 M95.2,177c0.3-0.3,0.9-0.5,1-0.8c0.1-1.6,0-3.2,0-4.9c2.7-1.5,5.2-3.1,5.9-6.4c0.1,0.1,0.1,0.1,0.2,0.2l0.8-0.7l-0.3-0.3
		c-0.2,0.3-0.5,0.5-0.6,0.9c-2.5-0.4-3,2.2-4.7,3c-2.5-0.5-3.1,1.6-4.6,2.7c1.1,0.9,2,1.6,2.2,1.8c0,2.2,0,3.4-0.1,4.1
		c-0.8,0.9-1.5,1.7-2.5,2.8c1.1,0.3,1.7,0.5,2.5,0.7C95.1,178.9,95.1,177.9,95.2,177 M326.8,269.8c-2.9-1.4-2.7-5.2-6.2-6
		c-0.6,1.3-1.1,2.5-1.7,3.9c1.6,0.2,2.9,0.1,4,0.6c1.1,0.5,1.6,2.1,3.1,2c1.9,1.7,3.4,4,6.3,4.6c1-0.5,1.9-1,2.9-1.5
		c0.5-2.5-1.4-3.4-2.7-4.6C330.3,269.5,328.3,269.9,326.8,269.8 M206.4,105.9c-1.7,0.8-3.2,1.6-5.1,2.5c-0.5-0.9-1-1.7-1.3-2.2
		c-1.1,1.1-1.8,2-2.7,2.8c-0.8,0.7-1.8,1.2-2.6,2.1c-0.4,0.4-0.3,1.2-0.4,2c2.2-0.6,4.7-0.4,5.6-1.6c1.6-2,3.6-1,5-1.6
		c0.6-1.5,1-2.7,1.2-3.6c1-0.8,1.7-1.7,2.7-2.2c0.9-0.5,2-0.5,2.9-0.6c0.7,0.2,1.5,0.4,2.2,0.6c0.7,0.2,1.3,0.5,1.2,0.5
		c1-0.4,1.6-0.6,2.2-0.9c-0.1-0.2-0.2-0.4-0.3-0.7h-4.1c0.3-1.3,0.3-2.5,0.9-3c0.9-0.8,2.2-1,3.4-1.6c-0.1-0.8-0.3-1.6-0.5-2.7
		c-3.9,1.4-4.4,5.5-7.2,7.2c-1.3,0.1-2.4,0.2-3.4,0.2C206.2,104.4,206.2,105.2,206.4,105.9 M316.2,72.9v-3.3
		c0.7-0.7,1.3-1.4,2.3-2.5h-3c-0.7,0.7-1.5,1.6-2.1,2.3c-0.4,1.4-0.7,2.3-1,3.4c0.7,0.3,1.6,0.7,2.2,1.1c0.6-0.4,1-0.6,1.5-0.8
		c0,0.7,0.1,1.3,0,2c-0.1,0.6-0.5,1.2-1.1,2.5c2.7-1.6,4.8-2.8,7-4.1c0.1-1,0.1-2.1,0.2-3.2c1.6-1.4,3.2-2.7,4.9-4.1
		c0-0.5-0.1-1.3-0.2-2.1c-0.3-0.3-0.6-0.6-0.9-0.9c-0.9,4.2-5,3-7,5.3c0.4,0.5,0.8,1,1.4,1.9C318.9,71.2,318.5,73.4,316.2,72.9
		 M320.2,197.7c0-0.3,0-0.6-0.1-0.8h-5.9v-3.5c1.3-0.6,2.6-1.2,4-1.8c-1.8-1.8-3.6-3.5-5.3-5.2c-0.1-0.1-0.3-0.3-0.3-0.3
		c-0.1,0-0.2,0.2-0.6,0.6c1.8,2.5,0.9,5.3,1.2,8.3c-2.2,0.9-4.2,1.7-6.1,2.5c0,0.5,0,0.8,0.1,1.1c1.9-0.2,3.8-0.4,5.6-0.6
		c0.7,0.9,1.3,1.5,1.6,1.9c2.1-0.8,3.9-1.5,4.8-2.1c3.4-1.2,5.7-2,8.6-3c-1.9-1.3-3.2-2.1-4.5-3v-3.4c0.6-0.6,1.2-1.2,1.9-1.9
		c0-0.5,0.1-1.2,0-1.8c0-0.2-0.4-0.4-0.9-0.9c-1,0.9-2.1,1.8-2.7,2.3c-0.5,2.1-0.8,3.6-1.2,5.3c0.6,0.8,1.4,1.8,2.1,2.7
		C321.5,195.2,320.7,196.1,320.2,197.7 M355.1,199.1c0.1-0.1,0.1-0.1,0.2-0.2l-0.7-0.8c-0.1,0.1-0.2,0.2-0.3,0.3
		c0.3,0.2,0.5,0.5,0.9,0.6c0.7,0.9,1.3,1.8,2.1,2.8v3.7c0.4,0.2,1.3,0.6,1.8,0.8v10.8h-3.9c0.1,0.8,0.2,1.3,0.2,1.8
		c1.3,0.1,2.6,0.2,3.9,0.3c-2,4.5-0.9,9-1.1,13.3c-0.2,4.5,0,9,0,13.5v13v13.5c0,4.5,0.3,9-0.1,13.5c-0.4,4.4,1.8,8.6,0.9,12.7
		c-2.6,0.4-4.9,0.7-7.4,1.1c-4.1-2-8.2-0.1-12.5,0.6v4.5c-1.3,1.4-2.1,2.3-2.8,3.2c-0.1-0.1-0.1-0.1-0.2-0.2
		c-0.3,0.2-0.5,0.5-0.8,0.7l0.3,0.3c0.2-0.3,0.5-0.5,0.6-0.9c1.2-0.3,2.4-0.6,3.9-1.1v5.1c1.1,0,1.9,0,2.7,0
		c8.5-0.5,17,0.5,25.6-0.8c6-0.9,12.3-0.2,18.5-0.2c0.6,0,1.5-0.2,1.9,0.2c1.9,1.7,4.1,0.4,6.2,0.9c0.8-1.7,1.7-3.2,2.2-4.8
		c0.5-1.8,0.5-3.7,0.8-6.2c-0.1-0.1-0.7-0.7-1.4-1.3h-14.3c-0.3-2.1,0.3-4-0.8-6.4c-1.1,1.5-1.9,2.6-3.2,4.3V195.4
		c0.8-0.4,1.6-0.8,2.8-1.4c3.8,0,7.9,0.1,12.1,0c1,0,2-0.6,2.9-0.9c0.3-9.6,0.3-9.6-1.5-13c-3,0-6.1-0.4-9,0.1
		c-4.8,0.9-5,1.1-9.2-0.2c-1.5-0.5-3-0.8-4.5-1.1c-1,2.4-2.9,3.1-5.2,3.1c-5.8,0-11.7,0-17.5,0h-11.8c-0.7,4.2-1.4,8-2.1,12h22.4
		c2.5,1.8,1.3,3.9,1.5,6.1C357.5,199.7,356.4,199.4,355.1,199.1 M294.2,383.6c0-0.2,0-0.4,0-0.6c-0.6-0.1-1.2-0.1-1.7-0.2
		c-0.9-3.2,0.9-6.5-1.2-9.3c1.8-2.9,0.7-6,0.9-9c0.2-3.2,0-6.3,0-9.5v-9.5v-9.4c6.2-0.6,12.6,1,18.4-2.7c-0.5-4-1-7.7-1.5-11.5
		c-2.9,0-5.4-0.1-7.9,0c-1.9,0.1-3.7,0-5.7,0.7c-2.2,0.8-5.1,0.9-7.6-0.5c-0.6-0.3-1.6-0.2-2.3-0.1c-0.9,0.2-1.7,0.7-2.6,0.8
		c-2.5,0.2-5.2-0.5-7.3,0.4c-2.6,1.1-4.6,0.3-6.8-0.3c-0.3-0.1-0.8-0.2-1,0c-1.6,1.8-3.7,0.9-5.6,0.9c-3.9,0.2-7.9,0-11.8,0
		c-0.5,4.1-1,7.9-1.5,12.1h23.4c-0.9,12,0.7,23.7-1,35.4c-0.9,6.4-0.2,13-0.2,19.5c0,6.7-0.2,13.3,0,20c0.2,6.4-0.7,12.7,0.8,19.1
		c0.8,3.4,0.1,7.2,0.1,11.1c-2.9-0.4-5.5,0.6-7.9-1.1c-0.6-0.4-1.8-0.3-2.4,0c-2.7,1.3-5.7,0.8-8.7,1v6.7v6.1
		c2.3-0.3,4.2-0.7,6.1-0.8c3.3-0.1,6.7-0.1,10,0c3.3,0.1,6.7,0.9,9.9,0.4c3.3-0.5,6.5-0.3,9.8-0.4c6.6-0.1,13.3,0,20.2,0
		c0.4-0.9,1.1-1.8,1.1-2.6c-0.2-2.7,0.7-5,1.6-7.5c0.8,0.1,1.5,0.2,2.3,0.4c0.8,0.2,0.9,1.7,2.2,1.4c0.2-4.9-4-3.5-6.2-4.9
		c-1,0.9-1.9,1.6-2.3,2c-1.9-0.3-3.3-0.8-4.6-0.8c-3.9-0.1-7.9,0-11.9,0c0.4-3.4,0.9-6.4,0.9-9.5c0.1-14.5,0-29,0-43.5v-3.8
		c0.9-0.3,1.5-0.5,2-1.3h1.4c0.6,0.8,1.2,1.5,2,2.6c0.5-1.6,0.6-2.8,1.1-3.6c0.6-0.9,1.8-1.4,3.5-2.7
		C298,378.5,296.4,381.4,294.2,383.6 M348.2,366c1.8-5.4,0.6-11,0.5-16.4c-0.7-2.2-1.4-4.4-2.2-7.1c-0.2,1.9-0.4,3.2-0.6,4.7
		c-0.8-0.3-1.3-0.4-1.7-0.5c1.1-2.2,1.3-2.2,0.6-3.5c-1.2-2.5-0.8-4.9,0.2-7c-0.8-1.1-1.6-2.1-2.3-2.9c-0.8,0.3-1.4,0.6-2.6,1.1
		c0-1.3,0.3-2.3-0.1-2.8c-0.5-0.8-1.5-1.3-2-1.6v-4.5c-2.1-1.5-2.1-1.5-11.1-1.4c-1.1,0.6-1.9,1-2.8,1.4c0,2.6-0.9,5.8,0.2,7.8
		c1.1,2,0.2,4,1.3,6c1,1.8,0.4,4.5,0.4,6.8c0,6.5-0.1,13,0.1,19.5c0,2-0.7,4.2,0.9,6.1c0.3,0.3,0.2,1.6-0.1,1.8
		c-1.1,0.9-0.8,2.1-0.8,3.2c0,6.2-0.1,12.3,0,18.5c0,1.4,0.5,2.7,0.7,3.5c-0.3,1.6-0.7,2.7-0.7,3.7c0,12.7,0,25.3,0,38
		c0,0.7-0.1,1.4,0,2c0.1,0.4,0.6,0.8,0.9,1.2c-0.2,0.2-0.4,0.4-0.6,0.6c-1-0.7-2-1.4-3.1-2.1c-1.6,1.6-3.4,3.4-5.1,5.2
		c-0.1,0.1,0.2,0.5,0.4,1c1.1-0.8,2.1-1.5,3-2.3h4.1c1.6,3.4,6,3.7,7.9,6.9c3,0.2,5.8,0.1,7.8-1.8h5.2c0.7,0.7,1.3,1.3,2.1,2.1
		c7.7-0.4,15.5-0.8,23.4-1.3c3.4-0.2,6.8,0.8,10.1-0.9c0.7-0.3,1.8,0.2,2.8,0.4c0.8,0.1,1.5,0.5,2.3,0.5c6.8,0,13.6,0,19.6,0
		c1.5-1.1,2.4-1.8,3-2.3v-8.5c-2.4-2.1-4.8-4.3-7.2-6.4c-0.6,0.6-1,0.9-1,0.9c-2.4-0.2-4.6-0.9-6.4-0.3c-1.3,0.4-2.5,0.6-3.7,0.6
		c-2.4,0-4.9,0.4-7.1-1c-5.1,0.8-10-1.3-15.1-1c-4.2,0.2-8.3,0-12.5,0.1c-2.1,0-4.2-0.1-6.1-1.5v-5c-0.8-0.8-1.4-1.4-1.9-1.9V419
		c-0.5-0.3-1.3-0.9-1.9-1.3v-4.2c0.7-0.4,0.8-1.4,1.8-1.1c0.1,1.6,0.2,3.1,0.4,4.6c0.1-3.7,2.8-7,1.4-10.8h-1.4
		c-0.2,1.3-0.4,2.5-0.6,3.7c-0.2,0-0.4,0-0.6-0.1c0.4-5.8,0.9-11.6,1.3-17.6c1.1-0.7,2.4-1.6,3.7-2.4v-2.2c0.9-0.4,1.8-0.9,3.1-1.5
		c0.4,1.4,0.7,2.5,1,3.4c-1.3,0.8-2.2,1.4-3,1.9c0.5,1,0.9,1.8,1.4,2.8c1.5-1.2,3-2.3,4.6-3.5c-2.9-2.9-1.7-6.4-2.1-9.2
		c-1.9-0.9-3.4-1.6-4.9-2.4v-5c-0.7-0.5-1.4-1-1.9-1.3c0.4-0.6,0.6-1,1.1-1.8h-3.2c0-1.5,0.1-2.8,0-4.1
		C349.1,366.5,348.5,366.3,348.2,366 M136.2,337c-0.9-0.7-1.8-1.4-2.6-2.1c-3.8-3.7-7.2-7.6-11.6-10.6c-1.7-1.2-3.3-2.5-5-3.7V317
		c-0.7,0.1-1.2,0.2-1.6,0.3c-0.1,0.9-0.2,1.7-0.3,2.4c-3.4,1.8-7,1.4-10.5,1.4c-3.5,0-7,0-10.5,0c-2.2,0-4.3,0-6.5,0.1
		c-1.4,2.5-3.6-0.6-5.4,0.8c-1,0.7-2.9,0-4.4,0.2c-1.4,0.2-2.7,0.8-4.1,0.9c-2.8,0.2-5.7-0.2-8.3,0.5c-2.8,0.7-5.7,0.5-8.3,1.5
		c-1.4,0.6-3,0.9-5.1,1.4c-1.6,2.3-3.8,4.8-5.3,7.8c-2.7,5.2-5.2,10.5-6.6,16.3c-0.6,2.6-0.3,5.2-1,7.6c-0.6,1.9-0.7,3.7-0.9,5.6
		c-0.2,1.9-1,3.7-0.9,5.6c0.3,5.7-0.8,11.4,0.8,17.1c0.8,2.9,0,6.3,0.2,9.5c0.1,3.2,1.5,6.3,1,9.6c-0.6,3.6,1.1,7,1.1,10.6
		c0,0.8,0.5,1.8,1,2.5c0.9,1.3,1.9,2.6,2.8,3.8c3.2,4.5,6.2,9.2,9.6,13.5c2.1,2.7,4.7,5.3,7.6,7c4.5,2.6,9.2,5.1,14.1,6.8
		c4.2,1.4,8.4,2.6,13,2.4c6.3-0.3,12.7,0,19-0.1c3-0.1,6.1-0.5,9.1-1c0.9-0.1,1.8-0.6,2.4-1.3c3.1-3.2,6.2-6.4,9.2-9.7
		c2.5-2.8,4.3-6.2,5.9-9.7V420c-1.4,0.4-2.5,0.7-3.7,1c-0.9,0.2-1.5-1.6-2.8-0.1c-0.6,0.7-2.5,0.1-3.9,0.1h-3.9
		c-6,5.4-10.9,11.8-17.9,16c-2.2,1.3-4.3,2.5-6.7,1.9c-3.3-0.8-6.7-1.6-9.6-3.3c-3-1.8-5.5-4.6-8.1-7c-0.6-0.5-0.8-1.4-1.3-2
		c-4-4.5-6.1-10.1-8.9-15.3c-1.8-3.4-3-7.1-4-10.8c-0.6-2.2,0-4.6-0.1-7c-0.2-2.2-0.7-4.4-0.9-6.6c-0.3-2.4,0.5-4.8-1-7.1
		c-0.4-0.6-0.4-2,0-2.4c1.5-1.4,0.7-3.1,0.9-4.7c0.1-0.8-0.3-2,0.2-2.4c1.4-1.3,0.6-2.8,0.9-4.2c0.3-1.4,1-2.8,0.9-4.1
		c-0.3-3.9,1-7.6,2.2-11.1c1.2-3.8,2.5-7.6,4.8-11c0.9-1.4,2.2-1.6,3.1-2.6c0.9-1,1.6-2.3,2.3-3.4c0.5,0,0.9-0.1,1.2,0
		c2.7,0.8,5.4,2,8.2,0c0.3-0.2,1.1-0.2,1.5,0c2.2,1.6,4.7,0.7,7.1,1c0.9,0.1,2,0.1,2.8,0.6c3.8,1.9,7.7,3.5,10.7,6.6h3.3
		c1.8,2.6,3.6,5.2,5.4,7.9c0.4-0.3,0.8-0.6,1.5-1.3c0.8,1.1,1.7,2.2,2.9,3.9c0.7-1.2,1.2-2.1,1.6-2.8c3.2,1.4,3.2,1.4,5.7,0.5
		c1.2-0.4,2.5-1,3.8-0.8c2.8,0.2,3.9,0.8,6,2.4c-0.3-1.4-0.6-2.6-0.9-3.9c0.9,0.2,1,1.4,2.2,0.3c-0.4-2.6-0.8-5.5-1.3-8.3
		c1.5,0.2,2.4-0.6,3-1.9c-0.9-1.4-1.7-2.9-2.7-4.2c-0.4-0.5-1.2-0.7-2.3-1.3V337z M312.2,252h-1.8c-2.7-7.7-5.4-15.5-8.2-23.3
		c-1.1-3-1.5-6.3-3-9.2c-0.9-1.8-1.2-3.6-1-5.5c0.6-0.1,1.2-0.1,1.9-0.2c-0.9-3.3-0.9-3.6,0-6.1c-1-1.5-2-2.9-2.8-4.1
		c1.1-2.3,2.7-4.2,1-7.3c-1.7,1.9-2.2,4-3.3,5.8c0.3,0.5,0.6,1,0.9,1.4c-0.3,0.3-0.5,0.7-0.7,0.8c1,1.8,1.8,3.5,2.8,5.4v4.1
		c-0.3-0.3-0.9-0.5-1-0.8c-0.6-1.8-1-3.6-1.7-5.3c-2.4-6.8-4.9-13.6-7.4-20.4c-1-2.6-1.1-5.6-3.7-7.6c-2.9,0.8-5.9,1.7-9.4,2.6
		c-0.3,0.6-0.9,1.5-1.3,2.3c-2.1-1.3-4.3-0.5-7.1-0.9c1,3.7,1.8,6.8,2.6,10.1c-4.2,0-7.9,0.5-11.4-0.1c-3.7-0.7-7,2.7-11,0.1
		c0.5,1.7,0.3,2.9,0.9,4.5c2.7,6.4,4.8,13.1,6.2,19.9c0.4,2,0.9,4,1,6.1c0,2.5,0.8,5.2-0.9,7.6c0.7,4.6-1.2,9-1.5,13.4
		c-0.7,2.2-1.4,4.4-2.1,6.8h-2.9c1,1.4,1.7,2.4,2.4,3.4c-0.2,0.2-0.7,0.5-0.8,1c-2.2,5.9-6.2,11-7.6,17.4c-0.5,2.5-2.4,4.7-3,7.2
		c-0.8,3.2-2.6,6-2.5,9.5c0.2,4-1.6,8-1,12.1c0,0.3,0,0.7-0.2,0.9c-1.6,1.6-0.4,3.4-0.9,5.1h23.6c0.9-2.2,1.7-4.1,2.4-5.9
		c-1.5-1.8-1.6-4.4-0.8-5.9c1.5-2.7-0.2-5.9,1.8-8.3c-0.6-3.5,2-6.2,2.5-9.5c0.5-3.1,2.4-5.9,3.7-8.9c1-0.4,2-0.9,2.9-1.3
		c0.6,0.4,1,0.9,1.6,1c0.8,0.2,1.7,0.1,2.5,0c0.5-0.1,1.2-0.8,1.4-0.6c0.7,0.5,1.1,0.8,2.1,0.4c3.1-1.3,6.2-1.2,8.6,0
		c2.4-0.3,4.3-0.6,6.2-0.9c4.3,13.6,8.5,26.8,12.6,40.1h5.5c0.1-0.6,0.3-1.1,0.1-1.5c-1.2-3.8-2.4-7.7-3.6-11.5
		c-1.1-3.5-2.3-7-3.4-10.6c-1.1-3.6-2.3-7.1-3.2-10.7c-1-3.8-2.5-7.6-3.8-11.4c-1.3-3.8-2.6-7.6-3.7-11.4c-1.5-4.7-2.7-9.5-4.3-14.2
		c-0.7-2-1-4-1-5.4c-1.2-2.7-2.5-4.8-2.9-7c-0.7-3.9-2-7.5-3.1-11.2c-1.1-3.9-2.3-7.7-3.9-11.4c-0.7-1.6-0.8-3.5-1.3-5.8
		c0.7,0.5,1.1,0.7,1.1,0.9c2.5,6.5,4.3,13.2,6.9,19.6c2.5,6.1,4.4,12.5,6.6,18.8c2,5.8,4.1,11.6,6.4,17.3c2.5,6.4,4.7,13.1,6.7,19.7
		c1.1,3.7,3.2,7.1,4.3,10.7c2.6,8.6,6.1,16.8,9.4,25.3c1.9,0,3.7,0.1,5.5,0c1.2-0.1,2.4-0.9,3.6-0.9c1.1,0,2.2,0.6,4,1.2
		c-2.4-6.5-4.6-12.4-6.8-18.3c-1.8-4.9-3.7-9.8-5.5-14.7c-2.5-6.8-4.9-13.6-7.7-20.3c-0.7-1.7,0.2-2.7,0.6-4.7
		C312.2,251.5,312.2,251.8,312.2,252c0.7,0,1.3-0.2,2-0.3c0-0.2-0.1-0.4-0.1-0.6C313.4,251.1,312.8,251.2,312.2,252 M507.8,360.2
		c-4.2-2-4.2-2-6.9-5.9c-1.6-2.2-3.4-4.3-5.3-6.3c-1.9-2.1-4-4-6-6c-1.8-1.9-3.7-3.7-6-4.9c-2.7-1.5-5.9-2.4-8.2-4.3
		c-4.8-4-10.8-4.6-16.3-6.6c-2.2-0.8-4.7-0.1-7.1-0.9c-2.3-0.8-5-0.8-7.5-1c-6.6-0.8-13.4-0.8-20.1-1.1c-1.3-0.1-2.6,0-4,0
		c-0.7-1-1.3-2-2-3c-1.2,1.7-2.1,3.1-3.3,4.9c0,6.1-0.1,12.6,0,19.1c0.1,6.5-0.8,13.1,1,19.6c0,21,0,42,0,63c0,1.1-0.8,2.4-0.5,3.4
		c1.1,3.3,1.1,6.8,0.3,9.7c-1.1,4.1-0.4,8.1-0.8,11.8c0.6,0.6,0.9,1.2,1.3,1.2c5.1,0.1,10.2,0,15.5,0c0.3-0.3,0.8-0.8,1.3-1.2
		c0-5.2,0.3-10.4-0.1-15.5c-0.3-5.3,1.1-10.4,1.1-15.6c0-5.2,0-10.3,0-15.5v-5.9c0.7,0.4,1,0.7,1,1.1c0.2,4.2-0.7,8.5,1,12.6
		c-0.7,5.3,1,10.4,1,15.6c0,7,0,14,0,21c0,1.4-0.1,2.7,1.5,3.6h6.4c0.3-0.8,1.1-1.7,1-2.5c-0.2-3.5,0.3-7-0.8-10.6
		c-0.9-3.1,0-6.6-0.2-9.9c-0.2-4,0.9-8.2-0.9-12.1c-0.3-0.6-0.2-1.8,0.2-2.4c1.6-2.1,1.2-4.8,0.5-6.6c-0.7-2-0.6-3.8-0.7-5.7
		c-0.1-3.3-0.1-6.7,0-10c0.1-2.1-0.1-4.2-1.5-6.1h-8.5c0.4-5.5-0.7-10.9,0.8-16c-1.5-5.6-0.5-11.2-0.7-16.7
		c-0.1-5.7-0.3-11.5,0.2-17.8c1.8,3.6,2,6.8,1.7,10c-0.2,2.1,0.6,3.7,1.5,5.5c2.3,0,4.6-0.2,6.9,0c2,0.2,3.4-0.8,4.8-1.7
		c2.5-1.7,4.8-3.6,6.9-5.2h5.2c0.9,2.2,1.8,4.4,2.5,6c-0.4,1.1-0.6,1.7-0.9,2.5c2.9,0,2.9,2.8,4.4,4.1c2.3,0.5,2.1,0.6,3.8,2.7
		c1.8,2.3,3.4,5.1,5.7,6.5c3.1,1.9,4.1,5.3,6.9,7.2c1.8,4.8,5.4,8.3,8.8,11.9c1.4,1.5,2.3,3.7,1.1,6c-1.7-0.1-2.9-2.2-4.6-0.5
		c-0.2,3,2.9,1.8,4.2,3.2c-1.1,2.2-1.4,4.5-2,6.7c-1,3.4-2.6,6.7-3.1,10.2c-0.3,2.4-1.3,4.3-3,5.7c-2.7,2.2-5.7,3.7-9.1,4.6
		c-2.1,0.6-4,1.5-5.9,2.3v2.3c1.8,4.6,3.3,8.4,4.9,12.3h-1.6c-2.1-4.9-3.6-9.9-6.7-13.8c-1.8,0.3-3.3,0.4-4.6,0.9
		c-1.4,0.6-2.6,0.9-4.1,1c-1.4,0.1-2.8-0.4-4.3,0.5c-1.1,0.7-3.6-0.2-4.1,0.6c-1.3,1.8-2.7-1.6-3.5,0.3c0.3,0.4,0.9,0.8,0.9,1.1
		c-0.7,5.4,1.3,10.7,1.1,16.1c-0.1,2.2-0.3,4.5,1.8,6.4c3-0.4,6.3-1.4,9.4-1c3.3,0.4,6.3-2.7,9.6-0.4c0.6-0.6,1.1-1.2,1.7-1.8h3.2
		c1.3-1.5,2.6-3.1,3.8-4.4c1.4,0.2,2.8,0.4,3.8,0.5c0.9-1,1.2-1.7,1.8-2c7.3-3.6,14.5-7.5,22-10.8c3.1-1.3,6.8-1.7,8.9-4.9
		c-0.5-4.1,1.4-8,1.1-12.1c-0.4-4.6,0-9.3-0.1-14c-0.1-3.5-0.1-7.2-1.1-10.5c-1.3-4.6-2.4-9.1-2.9-13.8c-2.1-1.7-0.5-4.2-1.7-6.3
		c-1.6-2.8-2.2-6.1-3.3-9.4c3.2-1.1,5,1.8,7.6,2.6c0.7-0.7,1.5-1.5,2.7-2.7c-0.8-1.4-1.6-2.9-2.4-4.3c0.4-0.7,0.8-1.3,1.3-2.2
		c-1.9-1.7-5.2-2.2-4.9-5.7c1.1-0.7,2.3-1.3,3.7-2.1c0.9,0.8,1.7,1.5,2.1,1.8c2.7-0.2,4.9-0.4,7.1-0.7c0.2,0,0.4-0.4,0.6-0.6
		l-1.4-1.4c-3.2,1.1-3.2,1.2-5.7,0c-3.8-2-7-1.2-9.8,1.5c0,0.6-0.1,1,0,1.2c2,2.9,4,5.7,6.1,8.7
		C511.5,358.3,509.8,359.2,507.8,360.2 M100.2,234.1c3,0.3,5-1.5,7-3.5c2-2,4.2-3.8,6.5-5.9c0.4,1,0.6,1.6,0.9,2.2h1.7v-5.6
		c0.9-0.3,1.5-0.5,1.8-0.6c-0.2-1.6-0.9-3.1-0.5-4.3c0.3-0.9-0.1-1.3-0.1-1.8c0.1-2.8-0.7-5.4-1.2-8c-0.9-4.6-2.8-8.7-6.8-11.5
		c-3.7-2.6-7.5-5.1-11.3-7.6c-1.8-1.2-3.6-2.5-5.6-3.3c-2.1-0.9-4.4-1.8-6.6-1.9c-2.3-0.1-4.4-0.7-6.6-1.1c-0.5-0.1-1.2-0.2-1.5,0
		c-1.8,1.9-4.1,0.9-6.1,0.9c-2.7-0.1-5,0.8-7.4,1.5c-0.9,0.3-1.8,0.5-2.4,0.6c-0.7-1.2-1.3-2.1-1.8-2.9H44.6l-1.4,1.4
		c0,5.9-0.3,12.1,0.1,18.2c0.4,6.1-1.2,12-1.1,18.1c0.2,11.6,0.1,23.3,0.1,35.3c-1.5,1.5-3.1,3.1-4.7,4.7c0.4,0.4,1,0.9,1.7,1.6
		c1-0.9,1.8-1.6,2.8-2.5c0.1,0.8,0.2,1.2,0.2,1.7c0,6.8,0.2,13.7,0,20.5c-0.2,6.7,0.7,13.4-0.9,20.1c-1,4.3,0.4,8.6,1.3,12.6
		c3,0.5,5.8,1.3,8.7,1.2c8.1,0,16.2,0.8,24.2-1.8c2.4-0.8,5.4,0.4,7.9-0.3c2.6-0.7,4.8-1.5,7.2,0.1c2.8-1.8,6.4-0.4,9.3-2.8
		c2.8-2.3,6.7-3.2,9.7-5.3c1.6-1.1,3.2-0.2,4.5-1.3c1.8-1.5,3.8-3,5.9-4.6h3.3c1.5-2.3,3.3-4.7,4.7-7.4c1.1-2.2,1.6-4.7,2.2-7.1
		c1.5-5.8,1.8-9.5-0.5-15.5c-1.7-4.4-3.9-8.7-5.9-13c-1.2-2.6-3.2-4.4-5.4-6.1c-2.7-2-5.5-3.9-7.9-6.3c-3-3-6.2-5.4-10.3-6V234.1z
		 M224.1,309.2c-0.4-2.3-0.6-4-1-5.7c-0.4-1.7-0.9-3.3-1.1-5.1c-0.2-3-0.5-6.5-4.8-6.8c-0.1,0-0.2-0.3-0.4-0.3
		c-6.7-2.5-11.8-7.5-16.9-12.1c-4.8-4.3-8.4-9.8-10.8-15.9c-2.6-6.5-2.8-5.1-2-11.9c0.9-7.3,2.5-8.7,8.8-12.7
		c2.8-1.8,6.2-2.5,8.3-5.3c0.2-0.2,0.5-0.3,0.8-0.4c3.5-0.8,7-1.6,11-2.5c1.2-1.8,5.1-0.5,6.3-3.8c-0.9-2.2-1.8-4.5-2.8-6.7
		c-1.1-2.3-0.5-5.4-2.8-6.8c-3.8,1-7.1,2-10.4,2.9c2-2,4.3-3.3,6.7-4.3c2.5-1.1,5.2-1.7,7.3-3.5c-1.4-1.9-2.5-3.7-3.8-5.3
		c-1.7-2.2-3.4-4.3-5.3-6.3c-1-1-2.4-1.6-3.4-2.5c-3.2-2.9-6.8-5.2-10.6-7.1c-5.9-3-12.5-3.9-18.9-4.9c-6.7-1.1-13.7-0.7-20.5-1.2
		c-2.1-0.2-3.7,1.1-5.6,1.1c-2,0-4,0-6,0h-5c-0.2,4.3,1,8.1,2.1,11.8c0.6,0.2,1.2,0.2,1.5,0.4c0.6,0.3,1,0.8,1.9,1.5
		c-1.8,3.8-3.5,7.4-5.3,11.1c0.1,0.2,0.5,0.5,1,1.1c-0.7,1.3-1.4,2.7-1.9,3.5c-0.4,7.8-0.7,15.2-1.1,22.3c-1.1,0.4-1.7,0.6-2.3,0.8
		c0.4,0.4,0.7,0.8,1,1.1c-1.7,1.5-0.7,3.4-0.8,4.4c1.5,3.1,2.7,5.6,3.9,8.1c-2.6,3.7,1.1,5.9,2,8.8c0,2.5-0.7,5.3,0.2,7.4
		c0.9,2.1,0.3,4.2,0.9,6.1c0.7,2.1,1.1,4.1-0.1,6.2c0.7,4.8-1.7,9.3-1,13.6c-1.1,2.1-2,3.9-2.6,5c0.8,3.2,1.2,5.9-0.3,8.6
		c2.1,3.5,2.1,3.5,1.1,6c7.4,1.3,14.5-1.1,21.8-0.8c0-1.9,0.2-3.4-0.1-4.9c-0.3-1.8,1.1-3,1-4.6c-0.5-8.6,1.7-17,1-25.6
		c-0.2-2.6,0-5.2,0-7.8c0.7,4.2,4.3,6.3,6.1,9.5c0.9,1.5,1.8,3.4,3.2,4.1c2,1,3.4,2.5,4.8,4.1c3.6,4,8.1,6.6,12.7,9.3
		c4.3,2.5,8.7,4.9,12.9,7.5C210.9,304.1,217.1,306.9,224.1,309.2 M241.9,400.4c-0.1-0.3-0.7-1-0.7-1.7c-0.1-3,0.1-6-0.1-9
		c-0.2-3-0.7-6.1-0.9-9.1c-0.2-2.5,0.7-5.3-0.2-7.4c-1.6-3.5-0.4-7.2-1.6-10.8c-1.2-3.4-0.4-7.3-1-11c-1-5.6-0.9-11.4-1.1-17.1
		c-0.1-3.2,0.2-6.4-1.7-9.2h-8.8c-2.5,3.8-3.7,7.9-4.5,12.4c0.3,0.5,0.7,1.1,1.1,1.7c-0.9,0.9-1.6,1.5-2.1,2
		c1.4,3.9,2.8,7.4,2.9,11.2c0.1,3.8,0,7.7,0,11.5c0,1-0.2,2.1,0.2,2.9c1.7,2.9,0.7,5.5-0.6,8.3c-2.7,0-5.5-0.1-8.3,0
		c-2.8,0.1-5.8-0.3-8.2,0.7c-2.9,1.2-5.2-1.9-7.8-0.4c-2.6,1.5-5.5,0.6-8.2,0.7c-2.6,0.1-5.4-0.9-7.9-0.4c-2.8,0.6-5.4,0.2-8.1,0.4
		c0-3.4,0.6-6.6-0.2-9.3c-0.9-2.9-1-5.9-1.6-8.8c-1.2-5.8-2.5-11.6-4.1-17.3c-1.4-5.2-4.1-9.5-7.5-13.4c-1.4-1.7-3.5-2.8-4.8-3.8
		c-2.7-0.4-4.9-0.7-7.6-1.1c-0.1,0.1-0.6,0.7-1.1,1.2c-0.4,6.5-0.1,12.9-0.9,19.3c-0.9,7.7-0.2,15.6-0.2,23.5c0,8-0.2,16,0,24
		c0.2,7.7-0.1,15.4,0.7,23.1c1,10,0.2,20.2,0.2,30.1c-1.8,1.1-3.4,2.1-5,3.1c0.4,2.8,0.4,2.8,2.9,3.1c0.1-1.2,0.3-2.5,0.4-3.9
		c0.7,0.7,1.2,1.2,1.7,1.7c0.1,1.1,0.1,2.2,0.2,2.9c2.5,2.3,5.1,1.6,7.7,1.6c2.5,0.1,5,0,7.5,0c2.6,0,5.2,0.1,7.6-0.1
		c-0.4-1.1-0.7-1.8-0.9-2.6c-0.5-2.6,0.7-5.1,0.9-7.6c0.4-5.7-0.4-11.4,1-17.1c0.8-3.2-0.1-6.7,0.9-10.1c0.8-2.8,0.3-6,0.1-8.9
		c-0.2-3,1.7-5.6,1.1-8.6c-0.3-1.6-0.1-3.2-0.1-4.9h6.3c0.8,1.1,1.5,2,2.4,3.2c0.3-1.5,0.5-2.4,0.6-3.4c0.5,0.5,0.9,1,1.3,1.1
		c2.8,0.1,5.7-0.1,8.5,0.1c2.9,0.2,5.7,0.6,8.6,1c2.9,0.4,5.7-0.6,8.6-0.9c2.9-0.3,5.5-0.9,8.2-2c2-0.8,4.2-0.8,6.5-1.2
		c0,5.9,0.1,11.4,0,16.9c-0.2,5.4,0.9,10.8-1,16.1v29.2c5.3-0.8,10.4,0.9,15.3-1c0.1,0,0.2,0-0.7-0.1c1.6,0.6,2.3,0.8,3.7,1.3
		c-2.8-4.4-2.5-8.6-2.2-12.7c0.1-0.9,1-1.9,0.9-3.1c-0.1-1.2-0.1-2.3,0-3.5c0.1-1.1,0.4-2.2,0.6-3.2c0.2-0.8-0.6-1.6,0.2-2.6
		c0.6-0.7,0.1-2.2,0.1-3.4c0-6.3,0-12.7,0-19C241.2,403.7,241.6,402.4,241.9,400.4 M525,318.7c-1,5.2-5.1,4.4-7.8,5.7
		c0.6,0.6,1,1.1,1.4,1.6c1.8-2,3.2-1.1,4.2,0.1c1.4,3.1-2.5,5.8,0.3,8.5c-0.6,0.6-1.3,1.2-1.8,1.8c-0.4,0.5-0.6,1.2-0.8,1.7
		c-1.5-1.5-2.8-2.8-4.4-4.3c0-0.2-0.1-1-0.2-2.2c-0.8,0.9-1.2,1.4-1.9,2.1v4.3c-1.7-0.4-2.4,0.1-1.8,1.5c2.6,1.8,3.2-1.7,5.5-1.7
		c1.9,2.2,3.9,4.6,6.2,7.2c1.3-0.3,3-0.7,3.6-0.8c2.1,0.3,3.3,0.5,4.4,0.7c0.1-0.7,0.1-1,0.2-1.6c-2-0.6-4-1.2-5.8-1.8
		c-0.9-3.2-1.7-6.2-2.7-9.5c1.3-1.1,2.3-2.1,3.7-3.3c-0.7-0.7-1.5-1.5-2.2-2.3v-3.9c0.5-0.5,1.5-1.5,2.3-2.3
		c-1.9-3-2.4-6.8-3.8-10.2h-2.2c-0.8,1-1.7,2.1-2.3,2.8C521.5,315.1,523.4,317.1,525,318.7 M395.2,219.4c-1.6,2-3,3.8-4.4,5.6
		c-1.4-0.8-1.9-3-3.9-1.3c1.8,2.4,3.2,4.8,3.3,7.8c0,0.4,0.6,0.7,1,1.1c0.2,0.1,0.4,0.2,0.7,0.2c0.4-0.4,0.7-0.8,1.1-1.1
		c-0.6-1.4-1.3-2.9-2.1-4.8c3.1,0.4,5.6-0.5,8,0.9c2.2-2.2,4.5-4.5,6.7-6.7c0.9-0.1,1.8-0.3,2.7-0.4c-0.1-0.7-0.1-1-0.1-1.3
		c-2.3-0.3-3.3-0.7-4.4-1.5c0.2-2,0.4-3.8,0.6-5.9c-1.3,0.1-2.2,0.1-3.3,0.2v5.6c-3.3,2-3.8,1.9-5.9-1c0.3-1.1,0.8-2.3,1-3.5
		c0.1-0.4-0.7-1-1.4-1.7c-0.7,1.9-0.4,3.8-2.2,4.5c-0.6,0.2-1,0.8-1.8,1.3C392.4,218.2,393.7,218.8,395.2,219.4 M265,353.8
		c-0.9,1.4-1.6,2.4-2.4,3.4c-1.5-0.8-2.7-1.4-4.3-2.2c-1.2,1.8-2.4,3.8-3.7,5.8c-1.3,0.3-2.7,0.6-3.6,0.8c-0.8-0.4-1.4-0.6-2-0.9
		c3.1-2.2-1.1-4.3,0.4-6.3c2-0.6,3.9-1.1,6.7-1.9c-1.8-0.7-3-1.5-3.8-1.3c-2.5,0.8-4.8,2-7.1,3c0.8,1.6,1.5,3,2.1,4.2
		c-0.7,0.7-1.1,1.1-1.8,1.8h-5.2c0.3,0.3,0.6,0.7,0.8,1c-0.7,0-1.5,0.1-2.2,0.2c0.9,0.8,1.4,1.3,2.1,1.9c2.3-2.1,5.4-1.8,7.8-0.9
		c3.6,1.3,6.1,0.5,8.6-2c0.3-0.3,0.9-0.3,1.3-0.4c0.4,0.8,0.7,1.4,1.3,2.6c2.3-2.7,4.4-5.2,6.5-7.8
		C265.9,354.4,265.5,354.1,265,353.8 M333.2,222.6c-1.7,0.4-2.3,0.6-3.2,0.8c0.8,0.7,1.2,1.1,1.6,1.5c1.9-1.5,3.8-2.4,6.4-1.7
		c0.8,1.2,1.7,2.5,2.6,3.9c1.9-0.4,3.6-0.8,5.9-1.3c-0.6,2.1-1,3.5-1.6,5.8c3.2-2.7,2.3-6.6,5.3-8.1c-0.6-0.6-0.9-0.9-1.4-1.4h-5.1
		c-0.8-1.7-1.6-3.2-2.4-4.8c-3.1-0.6-6.1-1.5-8.6-3.7c-0.3,0.8-0.5,1.2-0.6,1.6c1.4,1.1,2.8,2.1,4.2,3.2
		C335.1,220.1,334,221.6,333.2,222.6 M129,207.6c1.9,0.6,3.9,1.3,5.9,2c0.4-0.8,0.9-1.9,1.3-2.7c-0.6-1.2-1-2-1.3-2.4
		c-2.2-1.9-4.5-2-6.2-0.4c-1.5,1.4-3.2,0.3-3.8,0.7c-1.1,1.5-1.5,2.3-2.1,3c-1.2,1.3-2.5,2.6-3.7,4c-0.2,0.2,0.2,0.8,0.3,1.3
		c0.5-0.4,0.8-0.7,1.2-1.1c0.7,1.1,1.4,2.1,2.1,3.1C127.6,215.2,126.7,210.8,129,207.6 M344.3,109.3c0.3,2.2-0.8,3.7-3.1,4.6h3.7
		c0.2-0.7,0.4-1.2,0.7-2c0.6,0.2,1.2,0.5,1.8,0.7c-0.9,1.9-1.7,3.6-2.6,5.3c-1.3,0.4-2.7,0.8-2.7,2.9h4c0-1.3,0-2.2,0-3.2
		c1.6-1.6,3.3-3.3,4.9-4.9v-5.4C348.4,106.4,346.4,107.6,344.3,109.3 M446.3,472.6c-0.8,2.7-2,4.8-3.8,7.7c3.1-1.6,5.4-2.8,8.2-4.2
		c0.3-0.9,0.9-2.3,1.4-3.7c0.1-0.4-0.2-0.9-0.4-1.6c-1,0.5-1.8,0.9-2.8,1.3c-1.7-1.1-3.4-2.1-5.1-3.3c-1.6,0.4-2.8,0.9-2.7,3.3
		c1.3-0.4,2.4-0.8,3.4-1.1L446.3,472.6z M453.9,392.2l3.9,3.9c0.6-1.5,1.1-2.9,1.7-4.5c-2.4-1.2-2.6-3.3-2.3-5.3
		c-2-0.7-3.2,0-4.2,1.7v3c-1.3,0.1-2.5,0.1-3.8,0.2c0.1,1.1,0.1,2,0.2,3.3C451,393.6,452.2,393,453.9,392.2 M480.3,178.6
		c-0.5-1.5-0.8-2.5-1.1-3.5c-0.5-1.6-0.8-3.3-1.4-4.9c-0.2-0.6-1.1-1-1.3-1.1c-1.4,1-2.4,1.7-3.4,2.4c0.6,1.3,1,2.3,1.4,3.2
		c1.2,0.6,2.5,1.1,3.3,1.5c-0.2,1.2-0.6,2.3-0.5,3.3c0.2,2.2-0.6,4-1.8,5.7c-0.1,0.1,0.1,0.5,0.2,1c0.8-0.5,1.6-1,2.5-1.5v-4.9
		C478.8,179.5,479.7,179,480.3,178.6 M272.7,131c4.8-4.8,4.8-4.8,10.4-5.3v-1.8c-2,0.4-3.9,0.7-5.7,1.1c-0.2-0.9-0.4-1.5-0.6-2.2
		l-3.1,3.1c-2.4-0.3-4.6,0.4-6.3,2.3c-0.2,0.3-0.1,0.9-0.3,1.8c1.5-0.3,2.7-0.5,3.9-0.7L272.7,131z M302,96.2c0.8,2.5,1.4,4.7,2,6.5
		c5.1,1.2,8.4-0.7,11.2-4.4c-0.1-0.6-0.2-1.5-0.5-3c-1.7,2-3,3.5-3.6,4.2c-2.5,0.7-4,1.1-5.5,1.5c-0.6-1.7-1.3-3.4-1.9-5
		C303.2,96.1,302.9,96.1,302,96.2 M336.5,165.4c-1.1,1.7-2.2,3.4-3.5,5.5v5.4c-1.7,0.4-3.3,0.8-5.3,1.2c0.8,1.1,1.3,1.8,1.8,2.5
		c1.9-1.2,3.8-2.4,5.6-3.5c0-1,0.1-2-0.1-3c-0.1-0.5-0.8-0.9-1.4-1.6c1.3-1,2.3-1.8,3.7-2.9h2.3c0.5-0.5,1-1,1.4-1.4
		C339.6,166.9,338.1,166.2,336.5,165.4 M22.2,273.4c1.7,1.1,2.9,2,3.9,2.7c1.9-0.9,3.3-1.9,4-3.8c-1-0.6-2.3-1.1-3.1-1.9
		c-0.9-0.9-1.5-2.2-2.6-3.8c-0.2,1.5-0.4,2.4-0.5,3.3c-0.7,0.2-1.2,0.4-1.8,0.6V273.4z M19,210.7c1.3,0.9,2.2,1.9,3.4,2.2
		c1.1,0.3,0.4,3.8,2.8,1.5c-0.8-2-1.5-3.9-2.2-5.6c2.3-2.8,5.3-4.4,5.9-7.7c-1.6-0.3-3.2-0.1-3.5,1.3
		C24.4,205.9,21.6,207.9,19,210.7 M202.1,465.3c-3.3-0.1-3.8,0.1-3.8,2.6c0,1.2-1.3,1.9-0.5,3.3c0.5,1.1,0.3,2.5,0.4,3.8
		c0,0.3-0.2,0.6-0.3,0.9c-0.6,0.2-1.1,0.4-1.9,0.6c0.3,0.6,0.5,1.2,0.8,1.8c2.7-1.1,3.5-3.3,4.4-5.4c-0.4-1.9-0.8-3.7-1.2-5.4
		c0.9-0.4,1.5-0.6,2.1-0.8V465.3z M472.9,125.6c-1.3,1.3-2.8,2.8-4.5,4.5c1,1.1,2.2,2.4,3.9,4.3v1.6h1.9
		C473.8,132.3,473.3,128.8,472.9,125.6 M372.6,129.9c-0.9,1.1-1.6,1.9-2.3,2.7c0.1,0.1,0.3,0.4,0.4,0.4c0.7,0,1.3,0,2,0
		c2.3-2.2,2.3-2.2,2.3-4.6c-2.4-1.2-4.7-2.3-6.9-3.4c-2.4,1.4-5,3.4-5.4,4.2c2.5-0.7,4.4-3,7.2-2
		C370.5,127.9,371.4,128.7,372.6,129.9 M254.2,76.5c-0.6-0.5-1.2-1.4-1.8-1.4c-3.2,0-5.8-1.4-8.3-3c-0.1-0.1-0.5,0.2-0.8,0.3
		c0.8,1.1,1.6,2.2,2.5,3.6c3.4-1.1,2.8,2.6,4,4.3C251.5,78.9,252.8,77.7,254.2,76.5 M432,146.5c-4.6-1.2-7.4,0.4-10.8,3.2
		c1.8,0.2,2.7,0.1,3.6,0.4c0.9,0.2,1.7,0.6,2.8,1.1C428.9,149.8,430.2,148.4,432,146.5 M225.5,508c1.4,2.2,2.3,3.7,3.3,5.1
		c0,0.1,0.3,0,0.8,0c0.6-0.6,1.5-1.3,2.5-2.2h4.1c-0.6-1.1-1.1-2-1.7-3c-1,1.4-2.5,0.5-3.8,0.9C229.5,509.2,227.9,508.4,225.5,508
		 M377.2,407.9c3-0.4,5.4-0.8,7.9-1.2l1.1-1.1c-0.8-0.9-1.7-1.8-2.8-3C381.5,404.7,377.5,403.7,377.2,407.9 M528.6,213.9
		c0.9-1.1,1-3.1,3.1-2.9c1.4,0.9,2.8,1.9,4.3,2.9c0.5-0.8,0.9-1.5,1.4-2.4c-2.7-1.3-5.2-2.5-7.9-3.9c-0.2,1.2-0.2,2.2-0.6,3
		c-0.4,0.7-1.1,1.2-1.7,1.8C527.9,213.2,528.2,213.6,528.6,213.9 M315.3,180.8c-0.6-0.7-0.9-1.2-1.2-1.6c0.5-1,0.9-1.8,1.2-2.5
		c-1.2-0.7-2.1-1.3-3-1.8c-0.1-1.3-0.1-2.4-0.2-3.5c-0.7-0.6-1.3-1.1-2.1-1.8c-0.6,0.9-1.1,1.5-1.4,1.9c1.7,3,3.5,6.2,5.4,9.5
		C314.2,181,314.5,180.9,315.3,180.8 M207.1,458.5c1,2.6,1.7,4.5,2.4,6.3c1.1,0.5,2.1,0.9,3.2,1.4c0.7-0.8,1.3-1.5,1.9-2.2
		C212.6,461.4,210.1,460.2,207.1,458.5 M369.5,162.1c1.9-1.8,1.9-1.8,2.6-4.1c-1.3,0.1-2.7,0-3.7,0.5c-1.8,0.8-3.5,2-5.1,3.1
		c-0.2,0.1,0.1,0.9,0.1,1.4c1.3-0.6,2.4-1.2,3.5-1.8c0.3,0.3,0.5,0.7,0.8,0.7C368.2,162.1,368.9,162,369.5,162.1 M306.1,131.7
		c-0.8,1.7-0.8,1.7,0.5,7.3c0.4,0,0.9,0,1.5-0.1c0.5-2.9-2.7-5.7,0-8.4c-0.8-1.2-1.5-2.4-2.3-3.6c-0.6,0.6-1.1,1.1-1.5,1.5
		C304.9,129.5,305.5,130.5,306.1,131.7 M171,344.7c1,0.2,2,0.4,2.9,0.5c-0.1,0.1-0.2,0.2-0.4,0.4c0.9,0.6,1.8,1.3,2.7,1.9
		c-0.4,0.4-0.7,0.7-1.1,1.1c0.5,0.5,0.9,1.1,1.3,1.5c0.8-0.7,1.3-1.1,2.1-1.8c-1-2.2-2-4.3-3-6.5C173.8,342.9,172.5,343.7,171,344.7
		 M202,310.2c2.5-0.7,4.3-1.1,6.2-1.6c0-0.4-0.1-0.9-0.1-1.4c-0.9-0.1-1.7-0.2-2.4-0.3c-0.6-1.3-1.2-2.5-1.9-3.9
		C201.1,305.1,202.6,307.5,202,310.2 M418.4,69.5c-1.1-2.1-2-3.9-3.1-6c-1,1.1-1.7,1.8-2.4,2.5c0.6,1.9,1.1,3.5,1.7,5.3
		C415.9,70.7,417,70.1,418.4,69.5 M356.4,342.3v3.7h2.8c1.6,1,2.6,1.6,4,2.4c0.1-4.5-5.2-3.9-5.3-7.5
		C357.1,341.6,356.6,342.1,356.4,342.3 M524.3,203.4v5.7c1-0.1,1.7-0.1,2.5-0.2c0.1,0,0.2-0.2,0.3-0.3c-2.8-2.5-1.7-6-2-9
		c-0.5-0.5-1-1-1.7-1.7c-0.6,1.2-1.1,2.3-1.5,3.2C522.9,202,523.6,202.7,524.3,203.4 M140.7,545.9c-3.6,0.3-3,5.4-6.8,5.4
		c0.7,0.7,1.2,1.2,1.6,1.6h3.5c0.1-1.2,0.1-2.3,0.2-4.2c0.4-0.2,1.3-0.7,2.1-1.2C141.1,546.8,140.9,546.4,140.7,545.9 M217.3,42.6
		c0.1,0.2,0.3,0.4,0.4,0.6c1.8-0.9,3.6-1.7,5.4-2.6c-1.4-2.6-4.1-2.7-6.5-3.8c-0.5,0.9-1,1.8-1.7,2.9c1.7-0.3,2.9-0.5,5.1-0.9
		C218.7,40.7,218,41.7,217.3,42.6 M310.5,15.9c-1.1,4.1-4.7,6.7-5.4,11.7c1.1-0.8,1.8-1,2.1-1.5c1.1-2.3,1.6-4.8,3.8-6.4
		c0.6-0.4,0.7-1.5,1-2.3C311.6,17,311.2,16.6,310.5,15.9 M322.8,5c-2,0-2.5,1.8-3.6,2.6c0.2,1.5-0.5,3.1,1,3.8
		c0.9,0.4,2,0.4,3.6,0.7C321.1,9.5,322.6,7.3,322.8,5 M419.9,109.9c-0.6-3.7-3.8-4.3-6.5-6.3v4.4h5.4
		C418.9,108.4,419.4,109.1,419.9,109.9 M276.1,460.3c0.4,4.3,4.4,1.6,5.7,3.8c0.7-0.9,1.1-1.6,1.6-2.2
		C281.2,460,279,459.7,276.1,460.3 M138.4,479.7c-1.9,1.8-4.8,1.6-6.2,4.2h5.7c-0.1-0.2-0.3-0.3-0.4-0.5c0.9-0.6,1.9-1.2,2.8-1.8
		C139.6,481,139.1,480.5,138.4,479.7 M426.8,524.3c3.3-1,6.2-2.3,9.1-5.7c-3.2,1.2-5.6,1.9-7.6,3C427.5,522,427.3,523.4,426.8,524.3
		 M376,143.6v-2.5h-5.4c0.2,0.2,0.4,0.4,0.7,0.7c-0.7,0.2-1.5,0.4-2.2,0.6c0.2,0.2,0.3,0.3,0.5,0.5c1.2,0.1,2.5,0.2,3.5,0.3
		c0.1,0.7,0.2,1.2,0.3,1.7C374.4,144.4,375.3,144,376,143.6 M398.4,463.2c-0.7,0.8-1.6,1.9-2.6,3c1.5,1.1,2.4,0.9,3.7,0
		c1.2-0.8,2.7-1,2.6-3H398.4z M510.1,168.9c-0.8-2.2-1.6-4-2.3-5.9c-1,0.6-1.9,1.1-2.9,1.7c0.9,1.5,1.6,2.8,2.4,4.2H510.1z
		 M410.8,69.2c-0.3-0.5-0.7-1.3-1-1.9h-3.4c2.5,2,0.7,5.2,3.5,6.8C410.2,72.4,410.4,71.1,410.8,69.2 M334.5,69.5
		c2.2-1.8,5.7-0.2,7-4.3c-1.2,0-2.1-0.2-2.9,0.1c-0.7,0.3-1.1,1.3-1.8,1.6c-0.8,0.4-1.7,0.3-2.6,0.4
		C334.2,68.1,334.3,68.4,334.5,69.5 M230.9,101.2c1.5,1,2.8,1.9,4.3,2.9c-0.5-1.9-0.8-3.3-1.2-4.7c1-0.3,1.6-0.5,2.3-0.8
		c-0.3-0.6-0.5-1.2-1-2.4C233.7,98.2,232.1,99.3,230.9,101.2 M323,37.5c0.2,1.2,0.3,2.4,0.6,3.9c3.2-1.6,2.8-4.2,2.8-6.7
		C325.3,35.6,324.2,36.5,323,37.5 M231.8,187.8c1.4-0.3,2.4-0.5,3.4-0.7c1-0.3,2-0.6,2.8-0.9c-0.5-1.6-0.9-2.8-1.3-4.1
		C235.1,184,233.6,185.7,231.8,187.8 M122.5,224.1c0.9-3.7,4-3.6,6.6-4.5c0-0.4-0.1-0.9-0.1-1.1c-1.9,0.2-3.7,0.5-5.4,0.7
		C121.4,220.4,122.4,222.2,122.5,224.1 M531.3,288.4c-1.4-0.5-2.7-1-4.1-1.3c-0.3-0.1-0.7,0.3-1.2,0.6c0.6,1.2,1.1,2.3,1.6,3.4
		C529.5,291.3,530.8,290.7,531.3,288.4 M458.1,161.1c3-1.2,3-1.2,5.3-4.6c-0.5-0.5-1.1-1-1.9-1.7
		C460.3,156.9,459.3,158.8,458.1,161.1 M475.4,456c2.2,0.2,2.6-1.6,4-2.5c-1.6-0.8-1.9-2.9-4-2.3V456z M143.4,147.6
		c0.4,1.5,0.7,2.6,0.9,3.7c-0.8,0.9-1.4,1.6-2.3,2.6h4.2C146.2,151.5,146.5,149.2,143.4,147.6 M464.8,110.2c1.4-0.9,2.8-1.8,4.4-2.8
		c-0.1-0.7-0.3-1.6-0.5-3c-1.1,0.9-1.7,1.3-2.3,1.9c-0.9,0.9-1.7,1.9-2.5,2.7C464.3,109.5,464.5,109.8,464.8,110.2 M141.4,90.8
		c-0.9-2.3-2-4.4-0.4-6.6h-3.1c0.6,2.5,1.1,4.7,1.6,6.9C140.1,91,140.6,90.9,141.4,90.8 M512.9,231.8c0.7,2.3,1.1,4.8,3.3,5.2
		c0.9-0.5,1.5-0.9,2.9-1.7c-2.2-0.8-3.5-1.2-4.1-1.4C513.9,232.9,513.4,232.4,512.9,231.8 M458,205.9h5c-0.2-0.3-0.4-0.5-0.6-0.8
		c0.6-0.1,1.3-0.3,2.7-0.6c-2.2-0.9-3.2-1.3-4.2-1.8C459.9,203.8,459.1,204.7,458,205.9 M341.8,151.8c3.2-1.7,5.3-2.9,7.8-4.2
		c-2.6-1.5-4.2,0.9-6.1,0.6C343.1,149.1,342.7,149.9,341.8,151.8 M237.7,201.2c-1.3-2.9-2.8-4.3-5-5.4c-0.3,0.6-0.4,1-0.7,1.7
		C233.7,198.5,234.4,200.8,237.7,201.2 M242.3,108.5c2.1-0.3,4-0.5,5.7-0.7c0.7-0.9,2.2-1.6,0.6-2.8c-2.1,0.9-4.3,1.8-6.4,2.6
		C242.2,108,242.2,108.3,242.3,108.5 M259.6,84.1c0.6-0.8,1.2-1.5,1.6-1.9c-1-1.3-1.8-2.3-2.5-3.3c-1,0.1-1.8,0.1-2.6,0.2
		C257.4,81,258.5,82.5,259.6,84.1 M223,488.9v-3.7c-0.8-0.7-1.9-1.6-3.3-2.8c-0.3,1-0.5,1.5-0.7,2c0.8,0.4,1.5,0.7,2.3,1.1v3.3H223z
		 M428.8,58c-0.7-1.5-1-2.8-1.7-3.3c-0.7-0.5-1.9-0.4-3.4-0.6c0.9,1.8,1.5,3,1.9,3.9H428.8z M116.2,503.9c0.1,0.3,0.1,0.5,0.2,0.8
		c1.6,0.4,3.2,0.9,4.8,1.3c0.3,0.1,0.7-0.4,1.4-0.7c-0.7-0.9-1.3-1.6-2.1-2.5C119.1,503.1,117.7,503.5,116.2,503.9 M343.9,58.3
		c1.9-1.3,3.9-2.4,4.5-5.5c-2.9,0.9-4.1,2.7-5.3,4.3C343.4,57.5,343.5,57.8,343.9,58.3 M263.2,52.8h5.4c-1.9-1.4-2.8-3.9-5.4-2.3
		V52.8z M400.1,456.2h-5.3c0.6,1.5,1,2.7,1.6,4.3C397.6,459,398.5,458,400.1,456.2 M377,164.8c-0.5-1.4-0.9-2.5-1.3-3.7
		c-0.5,0.5-0.8,0.8-1.5,1.5c0.2,1.3-0.4,3,0.7,5.2C375.9,166.4,376.5,165.4,377,164.8 M191.6,469c1.5-1.1,2-2.2,1.3-3.8h-3.7
		C189,467.4,190.9,467.8,191.6,469 M426,476.2c-0.4-0.3-1.2-0.9-1.9-1.5c0.4-0.5,0.7-0.8,1.1-1.3c-0.6-0.2-1-0.3-1.5-0.4
		c-0.5,1-1,1.8-1.3,2.4c1.2,1.2,2.3,2.3,3.5,3.5V476.2z M352.2,161.7c0.1-3.1-1.7-3.6-2.7-4.9c-0.9,0.3-1.6,0.6-3.2,1.1
		c1.6,0.9,2.4,1.2,3.1,1.7C350.1,160.2,350.8,160.7,352.2,161.7 M519.7,226.1c3.2-0.6,5.3-1.1,7.9-1.6c-2.3-0.6-4.1-1-6.1-1.5
		C521,223.8,520.5,224.6,519.7,226.1 M447.3,165.2v2.6h4C450.9,165.3,449.6,164.7,447.3,165.2 M272,120.6c1.4,0.6,2.7,1,4.4,1.7
		c-0.7-1.3-1-1.9-1.3-2.4c0.5-0.6,0.8-1.1,1.1-1.6C274,117.7,272.7,118.1,272,120.6 M227.8,474.9c-2.4-1.9-3.2,0.8-4.8,0.5
		c0.2,1,0.3,1.9,0.6,3.4C225.2,477.3,226.3,476.3,227.8,474.9 M257.5,68.1c1.3,1.4,1.9,4,4.6,4c0.1-2.4-1.7-2.9-2.5-4H257.5z
		 M481.7,141.3c3.7-0.6,3.8-2.9,4.8-5.3c-1.4,0.7-2.3,1.1-3,1.4C482.9,138.5,482.5,139.5,481.7,141.3 M215,142.9
		c-1.4,0.2-2.5,0.3-3.6,0.5c0,0.2,0,0.3,0.1,0.5c0.9,0.1,1.8,0.3,1.9,0.3c2.4,1.1,1.8,4.3,5.2,3.7c-0.9-0.8-1.6-1.4-2-2.1
		C215.9,145,215.6,144.1,215,142.9 M413.7,516.1c-1,1.6-3.9,0.1-4.3,2.9c1.3,0.3,2.4-0.3,3.5-0.8c0.9-0.3,2.1,0.3,3.2,0.5
		c0.1-0.2,0.2-0.4,0.3-0.5C415.5,517.5,414.6,516.8,413.7,516.1 M237.5,257.9c1.5,2,3.1,3.6,5.6,3v-1.6
		C241.2,258.8,239.3,258.4,237.5,257.9 M263.4,158.6c-1.9-2.7-1.9-2.7-4.4-1.7C259.9,158.7,261,159.6,263.4,158.6 M334.2,47.4
		c-1.8-0.5-3-2.2-4.6-1.2c0.8,0.8,1.6,1.7,2.5,2.7h1.9C334.1,48.4,334.1,48.1,334.2,47.4 M388.6,129.5c-1.1,1-1.9,1.8-3,2.9
		c1.8,0.7,3.1,1.2,4.5,1.8C389.5,132.5,389.1,131.2,388.6,129.5 M408.1,328.6c-0.1-0.6,0.5-2.1-0.3-3.6c-2.6,1.8-1.2,3.9-1.1,6
		C407,330.5,407.3,330,408.1,328.6 M211,482.7c3.3,0.3,3.3,0.3,4.1-2.4C213.1,479.6,211.7,480.2,211,482.7 M365.2,142.7
		c0.9-1.3,1.5-2.2,2.7-3.7c-2.2,0.2-3.5,0.3-5.5,0.4C363.6,140.7,364.2,141.5,365.2,142.7 M391.7,534.3c1.5,1.3,2.6,2.2,3.7,3.1
		c0.8-0.8,1.2-1.2,1.7-1.7C396,533.6,394.3,533.9,391.7,534.3 M302.3,52.5c-0.2-0.5-0.4-1-0.7-1.7c-2,1-3.7,1.9-5.5,2.8
		C299,54,299,54,302.3,52.5 M248.8,463.8c1.2,1.3,1.8,3,3.9,3.4c0.2-0.5,0.4-0.9,0.6-1.5c-1.1-1-2.1-1.9-3.1-2.8
		C249.7,463.2,249.4,463.4,248.8,463.8 M440.7,171.9c-1.6,2.3-2.5,3.6-3.6,5.1C441,176.6,441,176.6,440.7,171.9 M513.3,212.8
		c-0.3,0.1-0.7,0.3-1,0.4v3.9c1.1-0.1,1.9-0.1,3.3-0.2C514.7,215.2,514,214,513.3,212.8 M220.3,29.7c-0.1-0.7-0.2-1.1-0.3-1.6h-2.3
		c-0.8,1-2.6,1.6-2.5,4.4c1-1,1.6-1.8,2.3-2.2C218.3,29.9,219.3,29.9,220.3,29.7 M241.1,138.2c1.5-0.8,2.6-2,4.2-4.8
		c-0.6-0.2-1.2-0.3-1.6-0.5C242.8,134.7,242.1,136.2,241.1,138.2 M463.1,485c0.4-0.8,0.8-1.7,1.4-3c-1.9,0.8-3.3,1.3-4.6,1.9
		c-0.3,0.1-0.4,0.5-0.8,1.1H463.1z M360.7,21.7c3.9,0.1,4.9-0.7,5.2-3.5C364.3,19.2,362.8,20.3,360.7,21.7 M397.1,332.1
		c-1.8,0.1-3.8-0.8-4.8,1.8h4.8V332.1z M200.5,421.2c-0.9,1.8-0.2,3,1.5,3.8c0.3,0.1,0.8-0.2,1.5-0.4c-0.7-1.3-1.2-2.5-1.8-3.6
		C201.1,421.1,200.8,421.1,200.5,421.2 M474.6,110.7c2.8,2,2.8,2,4.5,1.8C477.9,110.1,477.9,110.1,474.6,110.7 M229.5,490.9
		c-1.8,0.3-3.6,0.5-4.7,3.3c1.7-0.9,2.9-1.4,3.5-1.7c1.2,0.2,2,0.3,3.2,0.4C230.6,492,230.1,491.5,229.5,490.9 M379.3,366.6
		c1.2-1.8,2.9-2.2,2.9-4.3h-2.9V366.6z M218,475v-3c-1.1,0.1-2,0.2-2.7,0.2v2.7H218z M389.6,163.7c-4.2,2.4-4.2,2.4-3.8,4.6
		C387.5,167.5,388.7,166.4,389.6,163.7 M18.2,264c-1.5,0.9-2.8,1.6-4.8,2.8h4.8V264z M519.6,306.7c-1.5,1-2.9,1.9-4.7,3.1
		c2.4,0.6,3.8-0.6,5.4-1.5C520.1,307.8,519.9,307.4,519.6,306.7 M450.8,479.2c-0.4,1.2-0.8,2-1.1,2.9c0.1,0.1,0.8,0.7,1.5,1.3
		c0.8-0.8,1.3-1.3,1.9-1.8C452.6,481,452.1,480.5,450.8,479.2 M291,153.3c0.2,1.4,0.3,2.6,0.5,4.2c1-2.1,1.8-3.6,2.8-5.9
		C292.9,152.3,292.2,152.7,291,153.3 M174.3,156.9c-1.1,2.4-3.3,2.8-3,5.2c1.5-1.1,2.7-2,4-2.9C175.1,158.8,174.9,158.4,174.3,156.9
		 M321.9,165.5c0.3,0.3,0.6,0.5,1,0.8c0.8-0.6,1.5-1.1,2.1-1.6c-0.5-1.1-0.9-1.9-1.6-3.2C322.8,163.1,322.4,164.3,321.9,165.5
		 M84.9,169.7c0.1,0.3,0.2,0.7,0.3,1h3.2c-0.2-1.1-0.3-2-0.6-3.4C86.5,168.4,85.7,169.1,84.9,169.7 M232,492.4
		c1.8-1.4,3-2.3,4.4-3.3c-0.3-0.5-0.6-0.8-1-1.4C233.9,488.8,232.4,489.6,232,492.4 M528.7,214.9c-1.1,1.6-0.7,2.8,0.6,3.7
		c0.4,0.3,1.2,0,2.5,0C530.5,217.1,529.6,216,528.7,214.9 M351.1,209.6c0.2-0.3,0.8-1.1,1.2-1.6c-0.6-0.9-1-1.5-1.5-2.2
		c-0.8,0.9-1.3,1.5-2.1,2.4C349.7,208.8,350.4,209.2,351.1,209.6 M383.3,536.4v2.5c1.1-0.5,2-1,2.7-1.3v-2.5
		C385.1,535.6,384.3,535.9,383.3,536.4 M192.1,458c-1.3,0.1-2.6,0.2-4.9,0.3c2.2,1.2,3.5,1.9,4.9,2.7V458z M305.7,415
		c-0.8,1.2-2.7,1.8-2.4,4.1c1.5-0.9,2.8-1.7,4-2.5C306.7,416.1,306.4,415.7,305.7,415 M428.1,133.8c-1.9,0.5-3.1,1.1-2.9,3.1h2.9
		V133.8z M384.9,125.7c0.3-0.6,0.9-1.4,1.3-2.4c0.1-0.3-0.2-0.8-0.5-1.8c-1.1,1-1.9,1.7-3.1,2.8
		C383.6,124.9,384.3,125.3,384.9,125.7 M331.4,106.3v2.1c1-1,2.2-2.2,3.5-3.5C333.6,105.4,332.4,105.9,331.4,106.3 M263.9,470.1
		c0.3-3.1,0.3-3.1-3.3-2.4C261.8,468.6,262.8,469.3,263.9,470.1 M234.3,222.4c0,0.2,0.1,0.3,0.1,0.5h4.6c-0.2-0.2-0.3-0.4-0.5-0.7
		c0.6-0.2,1.2-0.3,1.8-0.5c-0.1-0.2-0.3-0.4-0.4-0.6C238.1,221.5,236.2,222,234.3,222.4 M344,78.3c2.7,0.8,4.2,1.3,6,1.8v-1.8H344z
		 M494.5,124.8c-0.2-0.2-0.5-0.4-0.7-0.6c-1.2,0.8-2.3,1.7-3.5,2.5c0.5,0.5,1,0.9,1.5,1.4C492.7,126.9,493.6,125.8,494.5,124.8
		 M393.6,157.5c-2.4,0.8-3.6,1.4-3.4,3.4C392.4,161.2,392.9,160,393.6,157.5 M358.8,172.2c1.1-0.6,1.6-1,2.2-1.2
		c0.7-0.2,1.5-0.2,2.3-0.2c-0.2-0.8-0.2-1.2-0.3-1.7C360.1,170,360.1,170,358.8,172.2 M362,82.9c-2.2-0.5-4.5-1.2-6.7,0H362z
		 M345.1,85.1c1.3,1,2,1.4,2.7,2c0.6-1.4,1-2.6,1.6-4.2C348,83.6,347.1,84.1,345.1,85.1 M218.5,158.5c-0.5-0.7-0.8-1.2-0.8-1.1
		c-1.1,1.1-2,2-2.6,2.6C215.8,159.7,217,159.1,218.5,158.5 M408.3,155.1v2.8h1.5c0.4-1,0.8-1.8,1.3-2.8H408.3z M457.7,485.9
		c-1.7,0.3-2.4,1.7-3.2,3.2c1.3-0.5,2.5-1,3.9-1.6C458.1,486.8,457.9,486.4,457.7,485.9 M433.1,152c-0.9,0-1.7-0.1-2.4,0
		c-0.4,0.1-0.7,0.6-1,1c-0.1,0.2-0.2,0.4-0.3,0.8h3.8V152z M309.6,151.5c-2.4,0.8-3.6,1.4-3.4,3.4
		C308.4,155.2,308.9,154,309.6,151.5 M179.2,82.3c-0.1-2.5-1.1-3.2-3-3.3C176,81.2,177.2,81.8,179.2,82.3 M507.2,206.5
		c0.5,0.5,0.9,0.9,1.5,1.5c0.7-0.1,1.6-0.1,2.5-0.2c-0.6-1.1-1.1-1.9-1.5-2.6C508.8,205.7,508,206.1,507.2,206.5 M402.3,528.9
		c0.9-0.4,1.8-0.6,2.5-1.1c0.3-0.2,0.3-1,0.5-1.9c-1.3,0.1-2.2,0.2-3,0.2V528.9z M354.3,57.5c-0.2-0.2-0.5-0.3-0.7-0.5
		c-0.9,1.1-1.8,2.1-2.9,3.5c0.9,0.4,1.4,0.6,2,0.8C353.3,59.9,353.8,58.7,354.3,57.5 M263.4,478.5c-1.5-0.6-2.7-1.1-3.9-1.5
		c0.8,1.4,1.3,3.1,3.3,3.1C262.9,479.6,263.1,479.2,263.4,478.5 M98,139.8c-2,0.5-3.2,1.2-2.5,3.6C97.1,142.7,98.4,142.3,98,139.8
		 M472.5,140.5c-1.1-0.7-1.9-1.2-2.7-1.8c-0.6,1.2-1,2.2-1.7,3.8C469.8,141.7,470.9,141.2,472.5,140.5 M234,51.9
		c-1,1.4-1.8,2.3-2.5,3.3c-0.1,0.1,0,0.4,0,0.7h2.5V51.9z M380.7,268.4c1-0.7,1.7-1.3,2.7-2c-1.1-0.7-1.8-1.1-2.9-1.8
		c-0.1,1-0.3,1.6-0.2,2.2C380.2,267.2,380.4,267.6,380.7,268.4 M319.3,422.2c-1-0.5-1.9-0.9-3.8-1.8c1,1.9,1.5,2.8,2.1,3.8
		C318.1,423.6,318.5,423.1,319.3,422.2 M261.2,187.7c-1.9-0.4-2.1-2.5-3.9-1.3c0.5,1,1,1.9,1.6,3
		C259.6,188.9,259.9,188.7,261.2,187.7 M249.3,122.5c-0.3-0.2-0.6-0.5-0.8-0.7c-0.8,0.6-1.5,1.1-2.2,1.7c0.6,0.7,1,1.1,1.6,1.8
		C248.4,124.3,248.8,123.4,249.3,122.5 M231.1,498.1c-0.5-1.2-1-2.2-1.4-3.2c-0.5,0.1-1,0.2-1.7,0.3
		C228.4,496.9,229,498,231.1,498.1 M266.2,111.7c-1.9-0.4-2.1-2.5-3.9-1.3c0.5,1,1,1.9,1.6,3C264.6,112.9,264.9,112.7,266.2,111.7
		 M322,391.4c0.2,0.3,0.5,0.5,0.7,0.8c0.9-0.5,1.7-1,2.1-1.2c-0.3-0.8-0.7-1.4-1.1-2.4C322.9,389.9,322.4,390.7,322,391.4
		 M134.5,508.4c1.4-0.7,2.5-1.2,4.4-2.2h-4.8C134.2,507,134.4,507.5,134.5,508.4 M207.9,19.1c-2.8,0.6-2.8,0.6-4.4,2.9
		C205.6,22.2,206,20.3,207.9,19.1 M192,410.8c1.4-0.9,2.1-1.2,2.6-1.8c0.4-0.4,0.4-1,0.7-1.8C192.8,408.4,192.7,408.5,192,410.8
		 M516.3,201.7c-0.8,0.8-1.7,1.7-2.3,2.3c0.8-0.3,2-0.9,3.2-1.4C516.6,202,516.2,201.5,516.3,201.7 M211,21.1h-1.7v2.8h1.7V21.1z
		 M180,91.7c-0.3,0.3-0.6,0.7-0.9,1c1.5,0.4,1.4,2.7,4.5,2.2C182.1,93.6,181.1,92.6,180,91.7 M315.9,209v-3.1
		c-0.7,0.1-1.2,0.2-1.8,0.4c0.1,1,0.2,1.9,0.2,2.8H315.9z M443.4,132.6c2.6,0.3,3-0.4,2.2-3.2C444.9,130.4,444.1,131.5,443.4,132.6
		 M330,65.4c1.8,1.6,2.3-0.2,2.8-0.6c-0.3-0.6-0.6-1.3-1.1-2.2C330.9,63.9,330.4,64.6,330,65.4 M441.7,151.1
		c0.6-0.8,1.2-1.4,1.5-2.2c0.2-0.5-0.2-1.2-0.3-2C441.3,148.2,440.7,149.3,441.7,151.1 M243,240c0.3,2.7-0.2,4.3,0.6,6.2
		c0.6-1.1,1-1.9,1.4-2.7C244.6,242.8,244.1,241.9,243,240 M528.8,322.8c-0.3,0.3-0.5,0.5-0.8,0.8c0.5,0.9,1,1.7,1.5,2.6l1.7-1.7
		C530.4,323.9,529.6,323.4,528.8,322.8 M102,154.2l-0.5,0c-0.2,0.6-0.4,1.1-0.7,1.7c-0.3,0.5-0.6,1-1,1.8c0.9,0.2,1.4,0.3,2.2,0.4
		V154.2z M262.9,62.4c0.7,1.4,1.2,2.5,2.1,4.3v-4.8C264.2,62.1,263.7,62.2,262.9,62.4 M396.2,43.4c-1.9-0.8-3.1-0.3-4,1.3
		C393.9,45.5,395.1,45,396.2,43.4 M396.9,62.9v-2.4c-0.7,0.8-1.5,1.6-2.3,2.4H396.9z M185.4,479.9c1,0.7,1.4,1,1.8,1.2
		c1.1-0.9,2.5-1.4,1.6-3C188,478.6,187.1,479.1,185.4,479.9 M412.5,336.1c-0.7,1.7-0.3,3,1.4,3.8C414.6,338.2,414.2,337,412.5,336.1
		 M394.1,124.6c0.1,1.8,0.2,3.1,0.3,3.8c0.7-0.3,1.5-0.6,3.2-1.2C396,126,395.3,125.5,394.1,124.6 M237.2,225.8c-2,0.5-3.2,1.1-3,3
		C236.6,227.7,236.7,227.6,237.2,225.8 M442.7,485.9c-1.5,0.5-2.7,1-2.4,3.1c1.1-0.6,2.1-1,3.1-1.5
		C443.1,486.8,442.9,486.4,442.7,485.9 M402.9,342.4c0.7,1.4,1.2,2.5,2.1,4.3v-4.8C404.2,342.1,403.7,342.2,402.9,342.4
		 M201.1,479.3c-1.4,1-2.1,1.6-3.4,2.5h3.4V479.3z M401,544.6V541c-0.8,0.1-1.3,0.2-2.3,0.4C399.5,542.5,400.1,543.2,401,544.6
		 M482,316.5c-1,1.3-1.5,2.1-2.3,3.2c1,0.2,1.6,0.3,2.3,0.4V316.5z M390.9,550.3c1.8,0.5,2.4,0.6,3.3,0.9c-0.1-1.4-0.1-2.2-0.2-3.1
		C393.2,548.7,392.6,549.1,390.9,550.3 M538.5,306.6c-0.2,1-0.3,1.5-0.4,2.3h3.6C540.4,307.9,539.6,307.4,538.5,306.6 M303.8,203.1
		c0.4,1,0.6,1.5,0.8,2.1c1.2-0.7,1.2-0.7,2.2-2.1H303.8z M123.3,515.4c0.5,0.8,1,1.7,2,3.5c-0.2-2.3-0.2-3.6-0.4-5.1
		C124.2,514.5,123.9,514.8,123.3,515.4 M165.3,476.9c-1.2,0.2-2.1,0.3-3.6,0.5c1.4,0.9,2.2,1.3,3.2,2
		C165,478.5,165.1,477.9,165.3,476.9 M318.8,511.6c2.2,0.9,3.4,0.4,4.6-1.9C321.7,510.4,320.5,510.9,318.8,511.6 M289,479.1v-3.6
		c-1,1.3-1.5,2.1-2.3,3.2C287.7,478.9,288.3,479,289,479.1 M226.6,487.3c0.4-2.5,0.4-2.5-1.8-4.3
		C225.6,484.7,226.1,485.9,226.6,487.3 M333.9,507.9c-0.9-1.1-1.3-1.6-1.8-2.3c-0.8,0.9-1.4,1.4-2.2,2.3H333.9z M414.3,462.1
		c-0.2-1.2-0.3-2.1-0.5-3.6c-0.9,1.4-1.3,2.2-2,3.2C412.7,461.9,413.3,462,414.3,462.1 M534.4,335.8c0.2,0.1,0.5,0.1,0.7,0.2
		c0.4-0.9,0.8-1.7,1.3-2.9h-2V335.8z M247.9,476.3c-0.2-0.2-0.3-0.4-0.5-0.5c-0.7,0.7-1.5,1.3-2.2,2.1c-0.2,0.2,0.2,0.8,0.2,1
		C246.3,478,247.1,477.1,247.9,476.3 M128.6,500.5c1.1-0.8,1.8-1.4,3.1-2.3h-3.6C128.2,499,128.4,499.5,128.6,500.5 M201.9,492.5
		v-3.7c-0.8,0.3-1.3,0.5-2.2,0.9C200.5,490.7,201.1,491.4,201.9,492.5 M214.8,488.7c1.5-0.2,1.5-0.1,2.3-1.9
		c0.1-0.1-0.3-0.5-0.2-0.3C216.2,487.2,215.4,488.1,214.8,488.7 M85.9,126.8h3.7c-1.1-0.9-1.8-1.4-2.8-2.2
		C86.4,125.4,86.2,126,85.9,126.8 M215.1,33.7L215,33c-1.2,0.1-2.5,0.2-4.1,0.3c0.8,0.8,1.3,1.3,1.8,1.8c0.3-0.4,0.6-0.8,0.9-1
		C214.1,33.8,214.6,33.8,215.1,33.7 M382,106.2c-0.2-0.1-0.5-0.1-0.7-0.2c-0.4,0.9-0.8,1.7-1.3,2.9h2V106.2z M232.5,38.3
		c0.6,1.1,1.4,2,2.6,3.1C235.3,38.8,234.2,38.3,232.5,38.3 M183.8,136c-1.3-1-2-1.6-3.2-2.5c-0.2,1.1-0.4,1.7-0.6,2.5H183.8z
		 M173,181.6V178c-0.8,0.1-1.3,0.2-2.3,0.4C171.5,179.5,172.1,180.2,173,181.6 M431.7,60.8c-0.4,0-0.7,0.1-1.1,0.1
		c-0.2,0.6-0.3,1.2-0.5,2.1c1.4-0.1,2.2-0.1,2.9-0.2C432.5,62.1,432.1,61.5,431.7,60.8 M309.7,63.2h-3.6c0.1,0.8,0.2,1.3,0.4,2.3
		C307.6,64.7,308.4,64.1,309.7,63.2 M337.3,73.5c-0.7-1.2-0.7-1.2-2.2-2.2c0.1,1,0.2,1.9,0.3,3.1C336.3,74,336.8,73.8,337.3,73.5
		 M400.7,180.4c-1-0.2-1.5-0.3-2.3-0.4v3.6C399.3,182.2,399.9,181.5,400.7,180.4 M490.7,117.4c-1-0.2-1.5-0.3-2.3-0.4v3.6
		C489.3,119.2,489.9,118.5,490.7,117.4 M218,182.5c0.7,1.2,0.7,1.2,2.2,2.2c-0.1-1-0.2-1.9-0.3-3.1
		C219.1,182.1,218.6,182.3,218,182.5 M253.7,147.7c1,0.2,1.5,0.3,2.3,0.4v-3.6C255.1,145.8,254.5,146.6,253.7,147.7 M305.2,111
		c-0.6,0.6-1.5,1.4-2.1,2.1C304.4,113,305.1,112,305.2,111 M503.9,143.9c-0.9-1.1-1.3-1.6-1.8-2.3c-0.8,0.9-1.4,1.4-2.2,2.3H503.9z
		 M240.7,141c0.7,1,1.5,1.9,2.6,3.3C243.1,142,242.3,141.1,240.7,141 M520.1,283.9c1.6,0,2.3,0.2,2.7,0c0.6-0.3,0.9-0.9,1.4-1.3
		c-0.2-0.2-0.4-0.4-0.5-0.6C522.8,282.4,521.9,282.9,520.1,283.9 M240.4,225.1v3c0.7-0.1,1.2-0.2,2.1-0.4
		C241.9,226.9,241.4,226.3,240.4,225.1 M187.4,420.7c0.7-0.3,1.3-0.7,2-1c-0.1-0.2-0.2-0.5-0.4-0.7c-0.9,0.1-1.8,0.2-2.9,0.4
		C186.8,420.1,187.2,420.6,187.4,420.7 M317.4,141.8v3.1c0.7-0.5,1.3-0.9,1.9-1.3C318.6,142.9,318.1,142.5,317.4,141.8 M327.2,240.3
		h-2.1c0.1,0.7,0.2,1.2,0.4,1.8c0.7-0.1,1.2-0.3,1.8-0.4V240.3z M232.3,486.7L232,486c-0.9,0.1-1.8,0.2-3,0.4l1.4,1.4
		C231.1,487.4,231.7,487,232.3,486.7 M135.3,434.5c-1.3,0.4-3.1,0.9-1.5,2.7C134.4,436.3,134.8,435.4,135.3,434.5 M219.8,129.9
		c-0.2,0.2-0.4,0.4-0.7,0.7c0.1,0.4,0.2,0.9,0.3,1.5c0.7-0.1,1.2-0.2,2.5-0.5C220.9,130.8,220.3,130.3,219.8,129.9 M422.6,486.1
		c0.7-0.9,2.2-1.2,1.2-3C423,483.9,421.5,484.2,422.6,486.1 M398.8,328.9c-0.2,0.2-0.4,0.4-0.7,0.7c0.1,0.4,0.2,0.9,0.3,1.5
		c0.7-0.1,1.2-0.2,2.5-0.5C399.9,329.8,399.3,329.3,398.8,328.9 M190.9,454.6v-3.7c-0.7,0.1-1.1,0.2-1.6,0.3
		C189.8,452.2,190.2,453.1,190.9,454.6 M226.7,50c-0.7,0.9-2.2,1.2-1.1,3.1C226.3,52.1,227.8,51.8,226.7,50 M470.3,269.9
		c0,1.6-0.2,2.3,0,2.7c0.3,0.6,0.9,0.9,1.3,1.4c0.2-0.2,0.4-0.4,0.6-0.5C471.8,272.7,471.4,271.8,470.3,269.9 M437.8,92.9
		c-0.2,0.1-0.4,0.2-0.7,0.3c0.1,0.9,0.2,1.8,0.4,3c0.7-0.7,1.2-1.2,1.2-1.2C438.4,94.3,438.1,93.6,437.8,92.9 M238.2,91.5
		c0.7-0.3,1.4-0.6,2-0.8c-0.6-0.7-1.1-1.2-1.8-2.1C238.3,89.9,238.2,90.8,238.2,91.5 M458.9,478v-2.1c-0.7,0.1-1.2,0.2-1.8,0.4
		c0.1,0.7,0.3,1.2,0.4,1.8H458.9z M189,139.3c-0.7,0.3-1.3,0.7-2,1l0.4,0.7c0.9-0.1,1.8-0.2,2.9-0.4L189,139.3z M127.9,314v-2.1
		c-0.7,0.1-1.2,0.2-1.8,0.4c0.1,0.7,0.3,1.2,0.4,1.8H127.9z M166.7,115.1c1.1-1.9-0.5-2.2-1.1-3.1
		C164.5,113.8,166.1,114.1,166.7,115.1 M419.7,531.7c2.1-0.8,2.1-0.8,2.2-3C421.1,529.8,420.5,530.6,419.7,531.7 M377.6,402.1
		c0.7-0.9,2.2-1.2,1.1-3.1C378.1,399.9,376.5,400.2,377.6,402.1 M519.4,403v2.1c0.7-0.1,1.2-0.2,1.8-0.4c-0.1-0.7-0.3-1.2-0.4-1.8
		H519.4z M474.9,373.8h3.2c-0.5-0.7-0.9-1.3-1.3-1.9C476.1,372.6,475.6,373.1,474.9,373.8 M300.2,181.8h2.1
		c-0.1-0.7-0.2-1.2-0.4-1.8c-0.7,0.1-1.2,0.3-1.8,0.4V181.8z M236.1,206.6c1.9,1.1,2.2-0.5,3.1-1.1
		C237.4,204.4,237.1,205.9,236.1,206.6 M369.2,23.4c-1.8-1.1-2.1,0.4-3,1.2C367.9,25.7,368.3,24.2,369.2,23.4 M252.9,510v-2.1
		c-0.7,0.1-1.2,0.2-1.8,0.4c0.1,0.7,0.3,1.2,0.4,1.8H252.9z M203.3,28.7c-0.2-0.3-0.4-0.5-0.6-0.8c-0.5,0.2-1.1,0.3-1.5,0.6
		c-0.4,0.2-0.7,0.7-1,1c0.2,0.2,0.4,0.4,0.5,0.6C201.6,29.7,202.4,29.2,203.3,28.7 M301.3,405c0.5,1.1,0.9,2,1.6,3.7V405H301.3z
		 M530.1,407.8c0.9-0.5,1.5-0.8,2.1-1.1c-0.7-0.8-1.1-1.3-1.8-2.1C530.3,405.9,530.2,406.8,530.1,407.8 M355.5,176.3
		c-2.2,0.1-2.2,0.1-3,2.2C353.6,177.7,354.4,177.1,355.5,176.3 M319.1,109.6c1.9,1.1,2.2-0.5,3.1-1.1
		C320.4,107.4,320.1,108.9,319.1,109.6 M254.8,123.9c-0.2,0.2-0.4,0.4-0.7,0.7c0.1,0.4,0.2,0.9,0.3,1.5c0.7-0.1,1.2-0.2,2.5-0.5
		C255.9,124.8,255.3,124.3,254.8,123.9 M239.4,492.1c-0.1,0.5-0.2,1-0.4,2.1c1.2-0.2,2.1-0.3,3.5-0.5
		C241.2,493,240.4,492.6,239.4,492.1 M113.2,493.3h-2.1c0.1,0.7,0.2,1.2,0.4,1.8c0.7-0.1,1.2-0.3,1.8-0.4V493.3z M414.4,165.1v3
		c0.7-0.1,1.2-0.2,2.1-0.4C415.9,166.9,415.4,166.3,414.4,165.1 M61.3,169.6c-0.2-0.2-0.4-0.4-0.7-0.7c-0.4,0.1-0.9,0.2-1.5,0.3
		c0.1,0.7,0.2,1.2,0.5,2.5C60.4,170.7,60.9,170.2,61.3,169.6 M530.1,416c-0.5-1.1-0.9-2-1.6-3.7v3.7H530.1z M465,218.9L465,218
		c-1.2,0.1-2.4,0.2-3.6,0.2c0,0.2,0,0.4,0,0.6H465z M472.3,120.1v3.7c0.8-1.8,1.2-2.7,1.7-3.7H472.3z M236.2,217.3h-4v0.5h4V217.3z
		 M226.7,506.2c-0.4-1.3-0.9-3.1-2.7-1.5C224.9,505.2,225.8,505.7,226.7,506.2 M204.9,80.8c-0.7,0.8-1.2,1.3-2.5,2.5
		c1.7-0.4,2.2-0.5,2.8-0.6C205.2,82.1,205.1,81.6,204.9,80.8 M204.8,118.5c2.9,1.1,2.4-0.2,2.2-1.1
		C206.4,117.7,205.7,118.1,204.8,118.5 M481.9,449.8c-0.8,0.8-1.2,1.3-2.5,2.5c1.7-0.4,2.2-0.5,2.8-0.6
		C482.2,451.1,482.1,450.6,481.9,449.8 M436.4,100.1c-0.3,2.8,0.2,3.2,1.4,2.9C437.4,102.3,437.1,101.6,436.4,100.1 M223.3,110.6
		c0.7-0.3,1.4-0.6,2.1-1c-0.1-0.2-0.2-0.3-0.4-0.5h-1.7V110.6z M143.7,362.3h-1.6c0.1,0.7,0.2,1.1,0.4,2.6
		C143.1,363.5,143.5,362.8,143.7,362.3 M294.6,375.3c1.1-2.7-0.1-2.4-1.3-2.1C293.8,373.9,294.2,374.6,294.6,375.3 M321.9,413.8
		c-0.8,0.8-1.2,1.3-2.5,2.5c1.7-0.4,2.2-0.5,2.8-0.6C322.2,415.1,322.1,414.6,321.9,413.8 M382.4,459.7c2.7,0.2,2.7,0.2,2.5-0.9
		C384.5,458.9,383.8,459.2,382.4,459.7 M248.9,90.3c0.8,0.7,1.3,1.2,2.5,2.5c-0.4-1.7-0.5-2.2-0.6-2.8
		C250.2,90.1,249.8,90.1,248.9,90.3 M198.9,367.4c-1.5-0.3-1.5-0.3-1.3,2.1C198.2,368.6,198.6,367.9,198.9,367.4 M504.2,354.8h3
		v-0.5h-3V354.8z M493.3,454.6c0.7-0.3,1.4-0.6,2.1-1c-0.1-0.2-0.2-0.3-0.4-0.5h-1.7V454.6z M305.7,424.7c-1.1,2.6,0,2.5,1.3,2
		C306.6,426.1,306.2,425.5,305.7,424.7 M186.6,458.1c0.6-1.8,0.3-2.6-0.7-2.1C186,456.7,186.3,457.4,186.6,458.1 M491.4,139h0.5v-3
		h-0.5V139z M256.5,321.6c1.5,0.3,1.5,0.3,1.3-2.1C257.2,320.5,256.8,321.1,256.5,321.6 M231.3,482.6c-1.7-0.6-2.6-0.4-1.9,1
		C229.9,483.3,230.6,483,231.3,482.6 M242.9,148h-0.5v3h0.5V148z M36.1,250.9c-0.9,0.2-1.3,0.2-1.9,0.4c0.8,0.5,1.4,0.9,1.9,1.3
		V250.9z M193.8,485.9c-0.6,1.9-0.2,2.5,0.7,2.1C194.3,487.4,194.1,486.7,193.8,485.9 M524.9,235.5v-1.6c-0.7,0.1-1.1,0.2-1.3,0.2
		C524.1,234.6,524.6,235.1,524.9,235.5 M242,154.2c-0.3,0-0.6,0.1-0.9,0.1l0.4,2.6c0.2,0,0.3,0,0.5-0.1V154.2z M326.5,490.6
		c1.5,0.3,1.5,0.3,1.3-2.1C327.2,489.5,326.8,490.1,326.5,490.6 M248.6,491.3c-0.3,1.5-0.3,1.5,2.1,1.3
		C249.7,492,249.1,491.6,248.6,491.3 M133.4,221.7c2.7,0.2,2.7,0.2,2.5-0.9C135.5,220.9,134.8,221.2,133.4,221.7 M154.3,498.6
		c0.7-0.3,1.4-0.6,2.1-1c-0.1-0.2-0.2-0.3-0.4-0.5h-1.7V498.6z M346.7,30.3h-1.6c0.1,0.7,0.2,1.1,0.4,2.6
		C346.1,31.5,346.5,30.8,346.7,30.3 M241.8,507.7c0.3-1.5,0.3-1.5-1.1-1.3C241,506.7,241.4,507.3,241.8,507.7 M78.7,177.3h-1.6
		c0.1,0.7,0.2,1.1,0.4,2.6C78.1,178.5,78.5,177.8,78.7,177.3 M229.3,30.6c0.7-0.3,1.4-0.6,2.1-1c-0.1-0.2-0.2-0.3-0.4-0.5h-1.7V30.6
		z M270.9,519.5c2.7,1.1,2.4-0.1,2.1-1.3C272.3,518.6,271.7,519,270.9,519.5 M302.8,16.4c-1.5-0.3-1.5-0.3-1.3,1.1
		C301.9,17.2,302.4,16.8,302.8,16.4 M475.3,144.6c-2-0.7-2.4-0.1-2.1,0.7C473.8,145.2,474.6,144.9,475.3,144.6 M14.7,277.7
		c-1.1,2.7,0.1,2.4,1.3,2.1C15.6,279.1,15.2,278.5,14.7,277.7 M387.4,67.3c0.7-0.8,1.2-1.3,2.5-2.5c-1.7,0.4-2.2,0.5-2.8,0.6
		C387.2,66,387.3,66.4,387.4,67.3 M231.4,61.7c2.7,0.2,2.7,0.2,2.5-0.9C233.5,60.9,232.8,61.2,231.4,61.7 M385.8,147.4
		c-1.5-0.3-1.5-0.3-1.3,1.1C384.9,148.2,385.4,147.8,385.8,147.4 M230.4,473h0.5v-2h-0.5V473z M247.4,506.2c0,0.3,0,0.6,0.1,0.9
		c0.6-0.1,1.1-0.2,1.7-0.4l-0.1-0.5H247.4z M428,463.9c0-0.3,0-0.6-0.1-0.9c-0.6,0.1-1.1,0.2-1.7,0.4l0.1,0.5H428z M178.4,467.8
		c0.3,0,0.6,0,0.9-0.1c-0.1-0.6-0.2-1.1-0.4-1.7l-0.5,0.1V467.8z M253.4,518.9c0.3,0,0.6-0.1,0.9-0.1c-0.1-0.5-0.3-1.1-0.4-1.6
		c-0.2,0-0.3,0.1-0.5,0.1V518.9z M369,78.9c0-0.3-0.1-0.6-0.1-0.9c-0.5,0.1-1.1,0.3-1.6,0.4c0,0.2,0.1,0.3,0.1,0.5H369z M259.9,520
		h-0.5v2h0.5V520z M220.4,16.9c0.3,0,0.6-0.1,0.9-0.1l-0.4-1.6c-0.2,0-0.3,0.1-0.5,0.1V16.9z M107.3,523.2c0,0.3,0.1,0.6,0.1,0.9
		c0.5-0.1,1.1-0.3,1.6-0.4c0-0.2-0.1-0.3-0.1-0.5H107.3z M288.4,21h0.5v-2h-0.5V21z M65.4,466.2c0,0.3,0,0.6,0.1,0.9
		c0.6-0.1,1.1-0.2,1.7-0.4l-0.1-0.5H65.4z M376.4,531h0.5v-2h-0.5V531z M308.2,391.3h-2v0.5h2V391.3z M379.4,532.2
		c0,0.3,0,0.6,0.1,0.9c0.6-0.1,1.1-0.2,1.7-0.4c0-0.2,0-0.3-0.1-0.5H379.4z M129,534.9c0-0.3,0-0.6,0-0.9c-0.6,0.1-1.1,0.2-1.7,0.4
		c0,0.2,0,0.3,0.1,0.5H129z M429.4,97h0.5v-2h-0.5V97z M285,49.2c-0.3,0-0.6,0.1-0.9,0.1l0.4,1.6c0.2,0,0.3-0.1,0.5-0.1V49.2z
		 M388.3,57.2c0,0.3,0.1,0.6,0.1,0.9c0.5-0.1,1.1-0.3,1.6-0.4c0-0.2-0.1-0.3-0.1-0.5H388.3z M234.4,484.2c0,0.3,0,0.6,0,0.9
		c0.6-0.1,1.1-0.2,1.7-0.4c0-0.2,0-0.3-0.1-0.5H234.4z M313.4,485.2c0,0.3,0,0.6,0.1,0.9c0.6-0.1,1.1-0.2,1.7-0.4l-0.1-0.5H313.4z
		 M277,102.2c-0.3,0-0.6,0.1-0.9,0.1c0.1,0.5,0.3,1.1,0.4,1.6c0.2,0,0.3-0.1,0.5-0.1V102.2z M296.9,42h-0.5v2h0.5V42z M302.4,477.8
		c0.3,0,0.6,0,0.9-0.1c-0.1-0.6-0.2-1.1-0.4-1.7l-0.5,0.1V477.8z M197.4,35.8c0.3,0,0.6,0,0.9-0.1c-0.1-0.6-0.2-1.1-0.4-1.7
		l-0.5,0.1V35.8z M208.4,476.8c0.3,0,0.6,0,0.9-0.1c-0.1-0.6-0.2-1.1-0.4-1.7l-0.5,0.1V476.8z M212.4,493.9c0.3,0,0.6-0.1,0.9-0.1
		c-0.1-0.5-0.3-1.1-0.4-1.6c-0.2,0-0.3,0.1-0.5,0.1V493.9z M354,75.9c0-0.3-0.1-0.6-0.1-0.9c-0.5,0.1-1.1,0.3-1.6,0.4
		c0,0.2,0.1,0.3,0.1,0.5H354z M68.2,472.3h-2v0.5h2V472.3z M267.4,79.9c0.3,0,0.6-0.1,0.9-0.1c-0.1-0.5-0.3-1.1-0.4-1.6
		c-0.2,0-0.3,0.1-0.5,0.1V79.9z M231.4,84.8c0.3,0,0.6,0,0.9-0.1c-0.1-0.6-0.2-1.1-0.4-1.7l-0.5,0.1V84.8z M468.9,146h-0.5v2h0.5
		V146z M278,145.9c0-0.3-0.1-0.6-0.1-0.9c-0.5,0.1-1.1,0.3-1.6,0.4c0,0.2,0.1,0.3,0.1,0.5H278z M236.4,269h0.5v-2h-0.5V269z
		 M449,277.9c0-0.3,0-0.6-0.1-0.9c-0.6,0.1-1.1,0.2-1.7,0.4l0.1,0.5H449z M442,278.2c-0.3,0-0.6,0.1-0.9,0.1
		c0.1,0.5,0.3,1.1,0.4,1.6c0.2,0,0.3-0.1,0.5-0.1V278.2z M12.2,283.3h-2v0.5h2V283.3z M58,143.9c0-0.3-0.1-0.6-0.1-0.9l-1.6,0.4
		c0,0.2,0.1,0.3,0.1,0.5H58z M518,291.9c0-0.3-0.1-0.6-0.1-0.9c-0.5,0.1-1.1,0.3-1.6,0.4c0,0.2,0.1,0.3,0.1,0.5H518z M518,301.2
		c-0.3,0-0.6,0-0.9,0.1c0.1,0.6,0.2,1.1,0.4,1.7l0.5-0.1V301.2z M485.9,314h-0.5v2h0.5V314z M529.9,194h-0.5v2h0.5V194z M26.9,193
		h-0.5v2h0.5V193z M509.9,197h-0.5v2h0.5V197z M331,188.2c-0.3,0-0.6,0-0.9,0c0.1,0.6,0.2,1.1,0.4,1.7c0.2,0,0.3,0,0.5-0.1V188.2z
		 M227,187.2c-0.3,0-0.6,0.1-0.9,0.1l0.4,1.6c0.2,0,0.3-0.1,0.5-0.1V187.2z M89,179.9c0-0.3-0.1-0.6-0.1-0.9l-1.6,0.4
		c0,0.2,0.1,0.3,0.1,0.5H89z M224.4,176.9c0.3,0,0.6-0.1,0.9-0.1l-0.4-1.6c-0.2,0-0.3,0.1-0.5,0.1V176.9z M270,173.9
		c0-0.3,0-0.6-0.1-0.9c-0.6,0.1-1.1,0.2-1.7,0.4l0.1,0.5H270z M241,170.9c0-0.3,0-0.6-0.1-0.9c-0.6,0.1-1.1,0.2-1.7,0.4l0.1,0.5H241
		z M525.3,220.2c0,0.3,0.1,0.6,0.1,0.9c0.5-0.1,1.1-0.3,1.6-0.4c0-0.2-0.1-0.3-0.1-0.5H525.3z M515.3,221.2c0,0.3,0.1,0.6,0.1,0.9
		c0.5-0.1,1.1-0.3,1.6-0.4c0-0.2-0.1-0.3-0.1-0.5H515.3z M241.9,161h-0.5v2h0.5V161z M382,228.9c0-0.3,0-0.6-0.1-0.9
		c-0.6,0.1-1.1,0.2-1.7,0.4l0.1,0.5H382z M345.4,340.9c0.3,0,0.6-0.1,0.9-0.1c-0.1-0.5-0.3-1.1-0.4-1.6c-0.2,0-0.3,0.1-0.5,0.1
		V340.9z M406.3,380.2c0,0.3,0.1,0.6,0.1,0.9c0.5-0.1,1.1-0.3,1.6-0.4c0-0.2-0.1-0.3-0.1-0.5H406.3z M375.9,335h-0.5v2h0.5V335z
		 M247.4,348.8c0.3,0,0.6,0,0.9-0.1c-0.1-0.6-0.2-1.1-0.4-1.7l-0.5,0.1V348.8z M355.4,123.8c0.3,0,0.6,0,0.9,0
		c-0.1-0.6-0.2-1.1-0.4-1.7c-0.2,0-0.3,0-0.5,0.1V123.8z M470.2,373.3h-2v0.5h2V373.3z M306.2,385.3h-2v0.5h2V385.3z M257.3,118.2
		c0,0.3,0.1,0.6,0.1,0.9c0.5-0.1,1.1-0.3,1.6-0.4c0-0.2-0.1-0.3-0.1-0.5H257.3z M54.2,178.7h1v-0.3h-1V178.7z M230.5,214h0.3v-1
		h-0.3V214z M40.8,174h-0.3v1h0.3V174z M248.2,503.7h1v-0.3h-1V503.7z M218.2,503.7h1v-0.3h-1V503.7z M173.2,503.7h1v-0.3h-1V503.7z
		 M244.2,500.4h-1v0.3h1V500.4z M232.2,500.7h1v-0.3h-1V500.7z M247.8,497h-0.3v1h0.3V497z M289.8,120h-0.3v1h0.3V120z M233.2,496.7
		h1v-0.3h-1V496.7z M243.8,491h-0.3v1h0.3V491z M235.2,492.7h1v-0.3h-1V492.7z M222.8,494h-0.3v1h0.3V494z M382.2,546.4h-1v0.3h1
		V546.4z M139.8,193h-0.3v1h0.3V193z M409.8,532h-0.3v1h0.3V532z M279.8,530h-0.3v1h0.3V530z M510.5,191h0.3v-1h-0.3V191z
		 M255.5,529h0.3v-1h-0.3V529z M261.5,528h0.3v-1h-0.3V528z M274.8,525h-0.3v1h0.3V525z M246.8,200h-0.3v1h0.3V200z M246.8,519h-0.3
		v1h0.3V519z M102.2,181.4h-1v0.3h1V181.4z M143.8,180h-0.3v1h0.3V180z M249.2,515.7h1v-0.3h-1V515.7z M503.2,179.7h1v-0.3h-1V179.7
		z M254.8,511h-0.3v1h0.3V511z M206.8,25h-0.3v1h0.3V25z M407.5,509h0.3v-1h-0.3V509z M186.2,474.7h1v-0.3h-1V474.7z M527.5,338h0.3
		v-1h-0.3V338z M228.2,468.4h-1v0.3h1V468.4z M134.8,468h-0.3v1h0.3V468z M170.2,467.7h1v-0.3h-1V467.7z M390.5,103h0.3v-1h-0.3V103
		z M245.8,432h-0.3v1h0.3V432z M286.5,82h0.3v-1h-0.3V82z M128.8,141h-0.3v1h0.3V141z M415.2,85.4h-1v0.3h1V85.4z M411.5,89h0.3v-1
		h-0.3V89z M333.8,309h-0.3v1h0.3V309z M113.2,141.4h-1v0.3h1V141.4z M122.2,140.4h-1v0.3h1V140.4z M456.2,134.7h1v-0.3h-1V134.7z
		 M485.5,131h0.3v-1h-0.3V131z M239.2,128.7h1v-0.3h-1V128.7z M220.2,33.7h1v-0.3h-1V33.7z M126.8,355h-0.3v1h0.3V355z M30.8,411
		h-0.3v1h0.3V411z M241.5,486h0.3v-1h-0.3V486z M217.8,484h-0.3v1h0.3V484z M482.2,122.7h1v-0.3h-1V122.7z M264.8,45h-0.3v1h0.3V45z
		 M230.5,48h0.3v-1h-0.3V48z M245.2,481.7h1v-0.3h-1V481.7z M234.2,481.4h-1v0.3h1V481.4z M227.8,480h-0.3v1h0.3V480z M245.5,148
		h0.3v-1h-0.3V148z M19.2,262.7h1v-0.3h-1V262.7z M465.2,263.7h1v-0.3h-1V263.7z M419.2,146.4h-1v0.3h1V146.4z M194.8,417h-0.3v1
		h0.3V417z M429.2,67.7h1v-0.3h-1V67.7z"/>
	<path fill="#FFFFFF" d="M522.4,171.8c0.7,0.7,1.3,1.1,1.6,1.7c0.3,0.5,0.2,1.2,0.2,2.1c-0.8,0.8-1.8,1.7-2.6,2.5h-2.4
		c0-0.8-0.1-1.5-0.2-3.3C519.8,174.1,521,173,522.4,171.8"/>
	<path fill="#FFFFFF" d="M478.2,258v2.6c0.9,0.7,2,1.6,3,2.4c-0.4,1.6,0.8,2.4,2.1,3.5c-0.2,1.3-0.4,2.8-0.7,4.3
		c0.2,0.5,0.4,1.1,0.6,1.6c-1.1-1.1-2.3-2.3-3.7-3.7c3.4-3.5-2.8-5.6-2.4-9.1c-2.1-2-3.9-4.3-5.3-7.7
		C475.3,253.3,475.2,257.2,478.2,258"/>
	<path fill="#FFFFFF" d="M466.7,256.5c0.5,0.7,0.9,1.4,1.5,2.4c-0.7,0-1.2,0.1-1.9,0.1c-0.1-0.8-0.1-1.4-0.1-2L466.7,256.5z"/>
	<path fill="#FFFFFF" d="M469.3,247.2h1.7c0,0.2,0.1,0.3,0.1,0.5c-0.5,0.1-1.1,0.3-1.6,0.4C469.4,247.8,469.4,247.5,469.3,247.2"/>
	<path fill="#FFFFFF" d="M500,184.2v1.7c-0.2,0-0.3,0.1-0.5,0.1c-0.1-0.5-0.3-1.1-0.4-1.6C499.4,184.3,499.7,184.2,500,184.2"/>
	<path fill="#FFFFFF" d="M456.4,244.2h1.7l0.1,0.5c-0.6,0.1-1.1,0.2-1.7,0.4C456.4,244.8,456.4,244.5,456.4,244.2"/>
	<rect x="449.2" y="237.4" fill="#FFFFFF" width="1" height="0.3"/>
	<rect x="459.2" y="246.4" fill="#FFFFFF" width="1" height="0.3"/>
	<rect x="464.5" y="254" fill="#FFFFFF" width="0.3" height="1"/>
	<path fill="#FFFFFF" d="M466.1,257.1c-0.3-0.2-0.5-0.5-0.8-0.7c0.1-0.1,0.2-0.2,0.3-0.3l0.7,0.8C466.2,257,466.2,257.1,466.1,257.1
		"/>
	<path fill="#FFFFFF" d="M87,291.9c-8.7,1.9-17.1,3.1-25.7,4.5v-44.3c0.8-0.3,1.6-0.9,2.5-1c2.5-0.3,5.2,0.5,7.6-1
		c4.6,0.5,9.2,1,13.9,1.5c0.9,0.1,1.9,0.4,2.8,0.4c3.1,0,5.8,1.2,8.6,2.1c2.2,0.7,4.1,2.5,6.3,2.8c5.5,0.9,7.4,5,9.2,9.2
		c1.5,3.5,2.6,7.2,3.9,10.7c-0.4,1.6-0.7,3.2-1.2,5.1l-4,4c-3.2,0.4-6.2,1.4-9.2,3c-2.7,1.4-5.8,2.1-8.9,3.2
		c-0.4-0.3-0.9-0.8-1.7-1.5v-5.3C88.8,287.5,87.1,289.1,87,291.9 M76.2,268.1c-0.1,2.2,0.7,2.2,2.1,1.5c-0.1-0.5-0.2-1-0.3-1.5H76.2
		z M83.9,267h-0.5v2h0.5V267z"/>
	<path fill="#FFFFFF" d="M96.8,221.6c-1.4,0.5-2.6,0.9-3.7,1.4c-3.4,1.7-7,2.4-10.7,3.1c-5.1,1-10.1,0.5-15.1,0.9
		c-2,0.1-3.9,0.7-6,1.2v-26.8c0.3-0.3,0.6-0.9,1.1-1c2-0.5,3.9-1.1,5.9-1.3c2.4-0.3,4.8,0.3,7.1-1c0.6-0.4,1.9,0.1,2.8,0.4
		c3.8,1.3,7.4,3.1,11.2,4.1c2.9,0.8,5.7,1.6,8.1,3.3c1.4,1,2.8,2.1,4.4,3.4c0.4,1.8,1,3.9,1.4,5.7c-1.1,1.5-1.9,2.9-3,3.9
		C99.2,220.1,97.8,220.9,96.8,221.6 M92,209.6V205c-1.1,0.1-1.9,0.1-2.8,0.2C89.1,207.4,90.8,207.8,92,209.6 M76.9,206h-0.5v2h0.5
		V206z"/>
	<path fill="#FFFFFF" d="M164.2,200.5c0.6-0.6,1-1,1.5-1.5c2.3,0,4.7,0,6.6,0c2.4,1.2,4.4,2.2,6.8,3.4c2.1,7,6.7,13.5,8.5,21.3
		c-6.4,2.4-10,7.7-14.5,11.9c-2.5,2.3-4.1,5.1-4.9,8.5c-0.6,2.4-1.6,4.6-2.5,6.9h-1c0.4-3.5,1.5-7-0.4-10.5c-0.4-0.8-0.1-2-0.1-3
		c0-5,0.1-10,0-15c0-1.7,0-3.3-0.7-5.2c-0.7-1.8-0.9-4.4,0.4-6.6c0.6-1,0.3-2.5,0.3-3.8C164.2,204.8,164.2,202.6,164.2,200.5"/>
	<path fill="#FFFFFF" d="M289.9,258.9h-2.5c-0.2-1-0.3-1.9-0.4-2.8c-3-0.6-1,2.3-2.5,2.9c-0.1-0.9-0.3-1.8-0.4-2.9
		c-1.8-0.4-3.6-1.1-5.4-1.1c-1.6,0-3.3,0.8-5.7,1.4c3.4-8.1,6.3-15.6,8.6-24.3C284.5,241.6,287.2,250.1,289.9,258.9"/>
	<rect x="275.4" y="258" fill="#FFFFFF" width="0.5" height="2"/>
	<rect x="273.5" y="265" fill="#FFFFFF" width="0.3" height="1"/>
	<path fill="#FFFFFF" d="M136.2,337c1.6,0.4,2.2,1.4,2,3C136.6,339.6,136,338.6,136.2,337"/>
	<path fill="#FFFFFF" d="M347,382.4c-1.1-0.6-1.9-1-2.8-1.6c0.5-2.5-0.8-5.1,1-7.5c0.3-0.4-0.3-1.5-0.5-2.2
		c-0.2-1.1-0.5-2.2-0.8-3.8c-0.4-0.2-1.2-0.8-1.7-1.1c0-3.8,0.7-7.2-0.2-10c-1.1-3.4-0.5-6.8-0.8-10.1c0-0.3,0.2-0.6,0.3-0.9h1.7v7
		c1.1-1.9,1.5-2.7,2-3.6c0.3,0.2,0.6,0.4,0.9,0.5c-0.2,0.7-0.2,1.3-0.5,1.9c-0.4,0.8-1,1.6-1.4,2.4c-0.2,0.4,0.1,0.9,0.2,1.6
		c0.7-0.9,1.2-1.6,2.3-3c0.4,3.2,1.3,5.6,0.9,7.9c-0.4,2.5,0,4.7,0.4,7.1c0.4,2.2,0.5,4.7-0.4,7.2
		C346.8,376.6,347.2,379.4,347,382.4"/>
	<path fill="#FFFFFF" d="M325.9,330.5c1.2-0.8,1.9-1.3,3.1-2.2c0.1,3.5-0.6,6.7,0.5,9.2c1.3,2.9-0.3,5.8,1.4,8.9
		c0.7-3.3,0-6.2,0.4-8.7c0.6-0.7,1-1.3,1.4-1.8c0.5,1.5,1,2.8,1.5,4.3c-1.6,1.6-1.6,4.1-0.8,5.8c1.2,2.5,0.5,4.5-0.1,6.7
		c-0.2,0.7-0.1,1.5-0.2,2.9c-0.8-1-1.2-1.5-1.8-2.3c-0.1-1.6-0.2-3.4-0.3-5.3c-0.2,0-0.4,0-0.7,0v14.7c-0.2,0.1-0.5,0.3-0.7,0.4
		c-0.1-0.8-0.2-1.7-0.4-2.5c-0.4,0.3-0.7,0.7-1.1,1c0-2,0.1-4,0-6c-0.2-3.4-0.8-6.7-0.9-10c-0.2-3.3,0.1-6.6-0.1-10
		C327,333.9,326.3,332.3,325.9,330.5"/>
	<path fill="#FFFFFF" d="M348.7,382.5c0.5-1.1,1.2-2.1,1.4-3.1c0.2-1,0-2.2,0-3.8c2.1,1.9,3.5,3.7,2.9,5.9
		C352.7,382.8,351.2,383.7,348.7,382.5"/>
	<path fill="#FFFFFF" d="M331,369.5c-0.4,0.7-0.9,1.6-1.4,2.5l-1.4-1.4v-6.4c0.5-0.1,1-0.2,1.5-0.3
		C330.1,365.6,330.5,367.2,331,369.5"/>
	<path fill="#FFFFFF" d="M341.5,370.9h-2.1v-2.8C342.3,367.9,340.7,369.8,341.5,370.9"/>
	<path fill="#FFFFFF" d="M341.3,386.6v-1.4h1.7c0.1,0.2,0.2,0.3,0.4,0.5C342.7,386,342,386.3,341.3,386.6"/>
	<path fill="#FFFFFF" d="M349.4,389.8v-1.7l0.5-0.1c0.1,0.6,0.2,1.1,0.4,1.7C349.9,389.8,349.6,389.8,349.4,389.8"/>
	<path fill="#FFFFFF" d="M332,328.9h-1.7c0-0.2-0.1-0.3-0.1-0.5c0.5-0.1,1.1-0.3,1.6-0.4C331.9,328.3,332,328.6,332,328.9"/>
	<path fill="#FFFFFF" d="M328.3,376.2h1.7c0,0.2,0.1,0.3,0.1,0.5c-0.5,0.1-1.1,0.3-1.6,0.4C328.4,376.8,328.4,376.5,328.3,376.2"/>
	<path fill="#FFFFFF" d="M341,375.9h-1.7l-0.1-0.5c0.6-0.1,1.1-0.2,1.7-0.4C341,375.3,341,375.6,341,375.9"/>
	<rect x="339.2" y="373.3" fill="#FFFFFF" width="2" height="0.5"/>
	<rect x="345.2" y="396.4" fill="#FFFFFF" width="1" height="0.3"/>
	<rect x="345.5" y="400" fill="#FFFFFF" width="0.3" height="1"/>
	<rect x="347.5" y="383" fill="#FFFFFF" width="0.3" height="1"/>
	<rect x="344.2" y="386.4" fill="#FFFFFF" width="1" height="0.3"/>
	<rect x="339.2" y="383.4" fill="#FFFFFF" width="1" height="0.3"/>
	<rect x="327.2" y="325.4" fill="#FFFFFF" width="1" height="0.3"/>
	<rect x="331.2" y="331.4" fill="#FFFFFF" width="1" height="0.3"/>
	<rect x="329.5" y="446" fill="#FFFFFF" width="0.3" height="1"/>
	<path fill="#FFFFFF" d="M395.5,221.3c2.2-0.5,4.3-0.9,6.6-1.4c0.1,0.9,0.1,1.6,0.1,1.8c-1.5,1.5-2.7,2.7-4.1,4.2
		c-0.9-0.3-2.4-0.8-4-1.3C394.5,223.4,395,222.3,395.5,221.3"/>
	<rect x="227.5" y="23" fill="#FFFFFF" width="0.3" height="1"/>
</g>
</svg>
