<?xml version="1.0" encoding="utf-8"?>
<!-- Generator: Adobe Illustrator 16.0.3, SVG Export Plug-In . SVG Version: 6.00 Build 0)  -->
<!DOCTYPE svg PUBLIC "-//W3C//DTD SVG 1.1//EN" "http://www.w3.org/Graphics/SVG/1.1/DTD/svg11.dtd">
<svg version="1.1" id="Layer_1" xmlns="http://www.w3.org/2000/svg" xmlns:xlink="http://www.w3.org/1999/xlink" x="0px" y="0px"
	 width="245.238px" height="140.119px" viewBox="0 0 245.238 140.119" enable-background="new 0 0 245.238 140.119"
	 xml:space="preserve">
<g>
	<path d="M183.792,130.214c0.396,0.357,0.79,0.337,1.211,0.03c0.283-0.206,0.523-0.53,1.029-0.396
		c0.029,0.116,0.07,0.26,0.099,0.403c0.08,0.453,0.079,0.453,0.77,0.508c0.006-0.267,0.016-0.53,0.026-0.893
		c0.186,0.069,0.367,0.087,0.44,0.184c0.146,0.187,0.228,0.416,0.349,0.657c0.353,0.127,0.756,0.214,1.095,0.409
		c0.309,0.176,0.553,0.469,0.817,0.715c0.383,0.356,0.765,0.719,1.144,1.08c0.436,0.423,0.615,0.938,0.534,1.526
		c-0.154,1.146-0.295,2.299-0.493,3.438c-0.156,0.904-0.449,1.164-1.396,1.188c-1.508,0.033-3.015,0.01-4.522-0.008
		c-4.199-0.052-8.396-0.218-12.595,0.041c-3.499,0.213-7.004,0.354-10.508,0.519c-0.862,0.04-1.711,0.028-2.382-0.663
		c-0.144-0.148-0.444-0.213-0.673-0.205c-0.91,0.027-1.554-0.366-2.046-1.087c-0.123-0.181-0.356-0.284-0.608-0.474
		c-0.039,0.289-0.067,0.466-0.094,0.662c-0.127,0.014-0.252,0.062-0.361,0.037c-1.228-0.294-0.729,0.018-1.858-0.564
		c-0.937-0.482-1.906-0.9-2.878-1.312c-0.447-0.191-0.911-0.281-1.429-0.178c-0.519,0.102-0.778-0.119-0.782-0.646
		c-0.008-0.836,0.044-1.67,0.095-2.504c0.022-0.356,2.59-0.705,2.621-1.062c0.035-0.428-0.109-0.776-0.529-0.994
		c-0.41-0.214-0.769-0.207-1.102,0.141c-0.048,0.049-0.149,0.049-0.291,0.094c-0.125-0.092-0.306-0.188-0.435-0.327
		c-0.646-0.703-0.633-0.858-0.055-1.644c0.233-0.317,0.391-0.692,0.604-1.026c0.171-0.267,0.354-0.536,0.582-0.755
		c0.162-0.152,0.412-0.219,0.636-0.33c0.11,0.128,0.213,0.199,0.26,0.299c0.104,0.23,0.217,0.449,0.521,0.404
		c0.289-0.043,0.357-0.287,0.426-0.524c0.021-0.072,0.078-0.133,0.121-0.199c1.396,0.355,0.398,0.47,1.617,1.365
		c1.022-0.431,0.316-0.896,1.326-0.769c0.415,0.052,0.807,0.101,1.089,0.449c0.073,0.086,0.192,0.193,0.292,0.197
		c1.158,0.045,2.113,0.846,3.287,0.826c0.039-0.002,0.082,0.006,0.119,0.021c1.06,0.459,2.188,0.594,3.327,0.696
		c0.218,0.021,0.414,0.226,0.62,0.343c-0.049,0.039-0.101,0.077-0.146,0.114c0.051-0.036,0.104-0.071,0.151-0.106
		c1.474-0.406,2.976-0.388,4.479-0.282c0.282,0.021,0.59,0.096,0.847,0.021c0.84-0.249,1.703-0.062,2.549-0.175
		c0.188-0.026,0.393,0.06,0.589,0.097c0.191,0.039,0.409,0.16,0.569,0.109c0.541-0.174,0.916-0.01,1.318,0.354
		c0.208,0.188,0.599,0.265,0.901,0.258c1.715-0.034,3.408,0.104,5.095,0.434c0.707,0.139,1.458,0.089,2.188,0.089
		C182.905,130.798,183.373,130.551,183.792,130.214z M150.196,128.368c0.03-0.012,0.06-0.021,0.087-0.034
		c-0.024-0.038-0.049-0.079-0.074-0.12c-0.018,0.025-0.047,0.051-0.052,0.076C150.154,128.313,150.183,128.343,150.196,128.368z"/>
	<path d="M129.589,39.798c-0.012,0.018-0.021,0.035-0.035,0.052c0.008,0.156,0.019,0.325,0.029,0.561
		c-0.172-0.046-0.369-0.044-0.391-0.116c-0.105-0.355-0.49-0.618-0.293-1.079l0.021,0.026c-0.084-0.156-0.155-0.322-0.252-0.467
		c-0.172-0.264-0.342-0.271-0.553-0.023c-0.089,0.104-0.152,0.236-0.239,0.375c-0.271,0.023-0.554,0.05-0.847,0.078
		c-0.014-0.212-0.025-0.385-0.039-0.584c-0.391-0.224-0.724-0.144-1.031,0.221c-0.077,0.095-0.209,0.129-0.33,0.196
		c-0.2-0.244-0.375-0.454-0.555-0.674c-0.49,0-0.966,0-1.434,0c-0.173,0.181-0.334,0.35-0.487,0.509
		c-0.186-0.084-0.331-0.149-0.48-0.214c-0.399,0.404-0.399,0.404-0.795,0.421c0.031-0.238,0.062-0.473,0.099-0.746
		c-0.154,0.015-0.303-0.013-0.324,0.037c-0.16,0.34-0.365,0.475-0.708,0.374c-0.383-0.111-0.66,0.133-0.918,0.433
		c-0.335,0.393-0.408,0.375-0.694-0.089c-0.055-0.088-0.104-0.178-0.167-0.287c-0.188-0.014-0.378-0.025-0.564-0.041
		c-0.432-0.037-0.608,0.351-0.809,0.675c-0.146,0.24-0.049,0.469,0.08,0.709c0.129,0.239,0.186,0.53,0.271,0.799
		c0.012,0,0.02-0.004,0.029-0.005c-0.002,0.011-0.004,0.022-0.007,0.033c0.097,0.046,0.192,0.094,0.289,0.14
		c-0.013-0.058-0.029-0.117-0.034-0.175c0-0.02,0.009-0.041,0.02-0.061c-0.012-0.034-0.023-0.068-0.034-0.102
		c0.016,0.019,0.043,0.039,0.043,0.06c0,0.014-0.006,0.029-0.009,0.042c0.003,0.02,0.01,0.041,0.014,0.062
		c0.008,0.057,0.003,0.116,0.003,0.175c-0.001,0-0.001,0-0.001-0.001c0,0.001,0,0.001,0,0.002c-0.052,0.003-0.104-0.006-0.155,0.01
		c-0.066,0.023-0.129,0.066-0.194,0.101c0.021-0.085,0.039-0.169,0.061-0.254c-0.008-0.003-0.012-0.006-0.019-0.01
		c-0.002-0.004-0.003-0.011-0.005-0.017c-0.172,0.036-0.317,0.076-0.394-0.24c-0.106-0.458-0.144-0.448-0.673-0.433
		c-0.048,0.489,0.122,1.008-0.154,1.536c-0.191-0.103-0.462-0.15-0.498-0.285c-0.139-0.498-0.51-0.492-0.816-0.556
		c-0.121-0.831-0.121-0.831-0.992-0.835c-0.062,0.294-0.098,0.622-0.2,0.92c-0.094,0.281-0.256,0.531-0.393,0.8
		c-0.192-0.129-0.353-0.237-0.531-0.358c0.034-0.167,0.068-0.305,0.085-0.446c0.073-0.568-0.001-0.75-0.467-0.898
		c-0.215-0.069-0.397-0.188-0.593-0.273c-0.199-0.089-0.479,0.059-0.723,0.102c-0.03,0.004-0.063,0-0.093,0
		c-0.119-0.165-0.23-0.326-0.354-0.499c-0.222,0.427-0.253,0.488-0.142,0.583c0.325,0.272,0.312,0.689,0.379,0.995
		c-0.189,0.286-0.353,0.527-0.478,0.717c-0.258,0.033-0.471,0.06-0.686,0.089l0,0c0.008,0.009,0.014,0.014,0.021,0.022
		c-0.013,0.002-0.024,0.003-0.037,0.005c-0.041,0.062-0.078,0.128-0.13,0.173c-0.019,0.015-0.089-0.052-0.135-0.083
		c0.015-0.022,0.03-0.062,0.05-0.062c0.071-0.015,0.144-0.021,0.215-0.028c0.006-0.009,0.011-0.017,0.017-0.027
		c-0.108-0.128-0.232-0.177-0.403-0.147c-0.323,0.057-0.388,0.411-0.527,0.585c-0.246-0.091-0.454-0.153-0.653-0.248
		c-0.216-0.105-0.419-0.242-0.637-0.37c-0.127,0.492-0.248,0.908-0.34,1.332c-0.054,0.246-0.088,0.506-0.088,0.76
		c0,0.874,0.219,1.74,0.039,2.626c-0.027,0.132,0.124,0.313,0.173,0.425c0.443,0,0.823,0.01,1.204-0.004
		c0.224-0.008,0.489,0.02,0.658-0.106c0.394-0.294,0.783-0.208,1.196-0.146c0.539,0.078,1.081,0.149,1.622,0.164
		c0.476,0.014,0.979,0.042,1.418-0.119c0.357-0.129,0.653-0.202,1.002-0.055c0.14,0.059,0.318,0.047,0.471,0.009
		c0.878-0.228,1.775-0.013,2.659-0.142c0.408-0.059,0.81-0.076,1.208-0.242c0.227-0.094,0.515-0.143,0.737-0.066
		c0.757,0.254,1.494,0.314,2.241-0.006c0.11-0.048,0.251,0,0.378,0.006c0.348,0.017,0.696,0.054,1.044,0.052
		c0.54-0.003,1.082-0.035,1.624-0.048c0.734-0.016,1.471-0.015,2.207-0.043c1.273-0.049,2.543-0.252,3.819-0.267L129.589,39.798z
		 M108.685,44.374c0.044-0.189,0.088-0.378,0.147-0.644c-0.117-0.19-0.271-0.441-0.412-0.67c0.116-0.288,0.279-0.342,0.484-0.288
		C109.378,43.695,109.378,43.695,108.685,44.374z M112.657,41.814c-0.238,0.154-0.417,0.062-0.597-0.153
		C112.305,41.537,112.49,41.613,112.657,41.814z M112.451,42.34c-0.02,0-0.046-0.107-0.082-0.198
		c0.079-0.027,0.162-0.086,0.229-0.069c0.045,0.01,0.07,0.129,0.106,0.2C112.62,42.299,112.536,42.335,112.451,42.34z
		 M112.851,40.697c-0.022,0.007-0.043,0.018-0.062,0.026c-0.005-0.041-0.009-0.083-0.013-0.122c0.022,0.005,0.056,0.001,0.068,0.018
		C112.856,40.634,112.85,40.67,112.851,40.697z M116.907,43.384c-0.017,0.003-0.036-0.047-0.056-0.073
		c0.051-0.021,0.102-0.05,0.151-0.057c0.019-0.003,0.041,0.046,0.062,0.069C117.012,43.346,116.96,43.374,116.907,43.384z
		 M117.819,44.552c-0.041,0.017-0.103-0.036-0.153-0.055c0.032-0.053,0.051-0.131,0.093-0.147c0.037-0.016,0.095,0.03,0.145,0.049
		C117.877,44.453,117.858,44.535,117.819,44.552z M118.348,42.046c-0.054-0.014-0.103-0.045-0.15-0.07
		c0.019-0.026,0.039-0.053,0.058-0.077c0.053,0.026,0.103,0.052,0.153,0.077C118.389,42.001,118.362,42.051,118.348,42.046z
		 M118.901,42.285c-0.062-0.06-0.153-0.108-0.172-0.182c-0.019-0.062,0.052-0.154,0.162-0.431c0.082,0.209,0.149,0.303,0.145,0.396
		C119.035,42.143,118.95,42.213,118.901,42.285z M120.585,40.266c-0.136,0.067-0.292,0.083-0.525,0.138
		c0.086-0.545,0.166-0.641,0.439-0.577c0.073,0.017,0.169,0.11,0.186,0.189C120.7,40.09,120.643,40.239,120.585,40.266z
		 M121.697,43.97c-0.049-0.003-0.104-0.08-0.133-0.139c-0.011-0.021,0.055-0.086,0.105-0.166c0.059,0.064,0.112,0.123,0.167,0.182
		C121.79,43.892,121.742,43.973,121.697,43.97z M122.631,40.821c-0.046-0.022-0.095-0.103-0.1-0.165
		c-0.017-0.163,0.166-0.355,0.287-0.302c0.044,0.018,0.064,0.107,0.095,0.163C122.908,40.708,122.755,40.882,122.631,40.821z
		 M124.042,40.652c-0.022,0.005-0.062,0.025-0.068,0.014c-0.018-0.023-0.021-0.061-0.028-0.094c0.038-0.009,0.077-0.016,0.115-0.024
		C124.055,40.583,124.048,40.618,124.042,40.652z M124.373,38.908c-0.01-0.027-0.032-0.059-0.027-0.083
		c0.004-0.025,0.033-0.046,0.054-0.067c0.01,0.03,0.02,0.058,0.029,0.082C124.41,38.864,124.39,38.887,124.373,38.908z
		 M127.732,40.214c-0.045,0.115-0.146,0.202-0.262,0.349c-0.062-0.132-0.133-0.209-0.125-0.28c0.009-0.095,0.062-0.196,0.119-0.269
		c0.031-0.041,0.141-0.067,0.161-0.042C127.681,40.036,127.753,40.159,127.732,40.214z M128.629,40.196
		c-0.048-0.07-0.095-0.142-0.145-0.21c0.066-0.034,0.135-0.067,0.204-0.099c0.018,0.06,0.035,0.119,0.051,0.181
		C128.705,40.109,128.667,40.151,128.629,40.196z"/>
	<path d="M52.892,32.759c0.092,0.096,0.159,0.213,0.249,0.313c0.116,0.135,0.216,0.303,0.372,0.385
		c0.474,0.251,0.397,0.729,0.62,1.08c0.017,0.022-0.025,0.083-0.058,0.11c-0.144,0.121-0.084,0.243,0.012,0.343
		c0.177,0.186,0.37,0.354,0.557,0.532c0.115,0.111,0.256,0.21,0.344,0.337c0.275,0.403,0.519,0.815,0.954,1.118
		c0.362,0.25,0.533,0.605,0.496,1.024c-0.032,0.406-0.022,0.8,0.293,1.141c0.064,0.069,0.074,0.186,0.09,0.286
		c0.043,0.256,0.171,0.461,0.445,0.575c0.235,0.101,0.302,0.263,0.312,0.488c0.008,0.191,0.098,0.381,0.16,0.569
		c0.04,0.124,0.127,0.241,0.135,0.364c0.023,0.373,0.22,0.679,0.408,1c0.095,0.159,0.167,0.344,0.179,0.521
		c0.028,0.384,0.185,0.727,0.531,0.927c0.577,0.331,0.785,0.744,0.667,1.343c-0.076,0.375,0.004,0.772-0.06,1.15
		c-0.052,0.307,0.018,0.59,0.03,0.884c0.023,0.476-0.061,0.964-0.154,1.438c-0.059,0.304-0.208,0.593-0.335,0.885
		c-0.073,0.17-0.138,0.371-0.279,0.486c-0.832,0.685-1.368,1.555-1.966,2.383c-0.251,0.346-0.523,0.648-0.902,0.881
		c-0.401,0.247-0.759,0.533-1.042,0.89c-0.184,0.231-0.385,0.436-0.675,0.596c-0.252,0.139-0.501,0.388-0.303,0.73
		c0.032,0.058,0.032,0.14,0.022,0.207c-0.142,0.943-0.574,1.809-0.953,2.689c-0.085,0.196-0.146,0.405-0.175,0.614
		c-0.033,0.268-0.029,0.54-0.027,0.81c0.003,0.095,0.027,0.204,0.084,0.284c0.246,0.35,0.521,0.687,0.756,1.044
		c0.127,0.191,0.272,0.417,0.271,0.625c-0.004,0.306-0.083,0.631-0.22,0.914c-0.245,0.51-0.157,0.978,0.123,1.43
		c0.26,0.42,0.305,0.873,0.322,1.326c0.012,0.294-0.19,0.425-0.537,0.431l-0.026,0.466c0.06,0.004,0.122,0.01,0.19,0.035
		c0.188,0.063,0.408,0.074,0.613,0.063c0.565-0.03,1.13-0.116,1.694-0.119c1.006-0.006,2.012,0.037,3.018,0.049
		c0.322,0.003,0.649-0.002,0.969-0.046c0.758-0.1,1.516-0.129,2.276-0.054c0.146,0.016,0.306,0.046,0.437,0.009
		c0.548-0.153,1.092-0.097,1.639-0.027c0.22,0.028,0.345-0.047,0.387-0.234c0.031-0.14,0.057-0.281,0.075-0.423
		c0.174-1.423,0.386-2.841,0.509-4.268c0.198-2.295,0.359-4.592,0.491-6.892c0.081-1.414,0.111-2.832,0.106-4.246
		c-0.023-5.394,0.075-10.787-0.068-16.18c-0.065-2.432-0.117-4.862-0.19-7.292c-0.065-2.244-0.152-4.489-0.194-6.731
		c-0.052-2.903,0.04-5.807,0.074-8.709c0.008-0.551,0.1-0.648,0.731-0.705c1.115-0.101,2.234-0.122,3.345,0.066
		c0.141,0.024,0.283,0.066,0.409,0.127c0.777,0.386,1.55,0.772,2.313,1.177c0.156,0.084,0.307,0.226,0.377,0.37
		c0.441,0.908,0.881,1.817,1.281,2.739c0.965,2.216,1.908,4.442,2.869,6.66c0.096,0.226,0.248,0.432,0.376,0.647l0,0
		c0.128-0.055,0.251-0.127,0.386-0.158c0.331-0.073,0.667-0.12,0.999-0.192c0.374-0.083,0.742-0.218,1.124-0.266
		c0.611-0.077,1.151-0.281,1.664-0.571c0.135-0.079,0.275-0.148,0.418-0.216c0.634-0.285,1.271-0.564,1.9-0.856
		c0.245-0.112,0.467-0.26,0.707-0.377c1.29-0.632,2.629-1.171,3.843-1.93c1.153-0.722,2.457-1.223,3.739-1.748
		c0.53-0.217,1.044-0.463,1.563-0.703c0.109-0.05,0.206-0.127,0.348-0.219c-0.306-0.457-0.575-0.914-0.899-1.336
		c-0.742-0.972-1.535-1.916-2.27-2.896c-1.252-1.669-2.911-2.999-4.622-4.271c-1.017-0.754-2.134-1.404-3.216-2.087
		c-0.953-0.604-1.958-1.11-3.1-1.409c-3.03-0.791-6.109-1.36-9.258-1.625C69.31,1.42,67.952,1.322,66.592,1.21
		c-1.359-0.115-2.724-0.15-4.087-0.085c-1.912,0.094-3.822,0.213-5.733,0.335c-0.824,0.054-1.647,0.145-2.475,0.206
		c-0.548,0.042-0.761,0.292-0.729,0.869c0.015,0.255,0.06,0.513,0.055,0.767c-0.004,0.252,0.051,0.472,0.205,0.69
		c0.152,0.216,0.312,0.449,0.234,0.723c-0.064,0.225-0.008,0.42,0.111,0.618c0.217,0.349,0.287,0.722,0.249,1.119
		c-0.023,0.227,0.007,0.457,0.019,0.685c0.018,0.349,0.21,0.588,0.575,0.729c0.355,0.139,0.707,0.291,1.055,0.446
		c0.212,0.093,0.442,0.184,0.455,0.441l-2.716,5.656c0.229-0.028,0.327,0.087,0.295,0.24c-0.063,0.306-0.155,0.611-0.277,0.903
		c-0.111,0.267-0.298,0.509-0.409,0.778c-0.062,0.148-0.1,0.351-0.036,0.485c0.133,0.27,0.114,0.521,0.072,0.797
		c-0.081,0.508-0.209,1.025-0.177,1.53c0.046,0.646,0.093,1.28-0.053,1.918c-0.034,0.135-0.035,0.299,0.024,0.421
		c0.149,0.292,0.192,0.57,0.037,0.865c-0.022,0.047-0.029,0.127,0.001,0.165c0.146,0.19,0.054,0.364-0.037,0.529
		c-0.237,0.441-0.231,0.891-0.058,1.337c0.203,0.513,0.11,0.985-0.18,1.441c-0.114,0.18-0.18,0.347-0.129,0.566
		c0.034,0.153-0.045,0.329-0.085,0.49c-0.021,0.096-0.104,0.195-0.09,0.282c0.074,0.384-0.092,0.618-0.494,0.78
		c-0.311,0.125-0.367,0.327-0.229,0.608c0.088,0.18,0.21,0.346,0.333,0.542c-0.262,0.044-0.528,0.087-0.624,0.341
		c-0.136,0.364-0.346,0.723-0.386,1.095c-0.064,0.614-0.139,1.257,0.393,1.836C52.193,32.199,52.568,32.425,52.892,32.759z
		 M54.363,54.942l0.017-0.025l0.017,0.025H54.363z M51.979,31.209c0.015,0.014,0.028,0.028,0.043,0.042
		c-0.015,0.004-0.027,0.014-0.04,0.014c-0.01-0.002-0.018-0.017-0.027-0.026C51.962,31.23,51.972,31.221,51.979,31.209z
		 M51.557,31.338l-0.028-0.019l0.035-0.012L51.557,31.338z"/>
	<path d="M192.549,66.554c-0.972-0.196-1.324-0.578-1.39-1.735c-0.104-1.879-0.182-3.766-0.174-5.654
		c0.037-9.162,0.082-18.323,0.165-27.488c0.064-7.201,0.182-14.405,0.294-21.609c0.034-2.254,0.121-4.512,0.196-6.769
		c0.013-0.435,0.056-0.875,0.136-1.304c0.106-0.563,0.432-0.896,0.904-0.96c0.298-0.041,0.599-0.037,0.897-0.03
		c2.396,0.043,4.793,0.093,7.188,0.134c1.112,0.019,1.384,0.308,1.341,1.652c-0.073,2.404-0.226,4.809-0.273,7.209
		c-0.108,5.456-0.225,10.916-0.248,16.368c-0.022,5.234,0.029,10.465,0.119,15.69c0.043,2.757,0.218,5.501,0.362,8.247
		c0.257,4.779,0.173,9.579,0.044,14.385c-0.006,0.289-0.035,0.583-0.085,0.87c-0.118,0.69-0.411,1.066-0.963,1.175
		c-0.356,0.072-0.723,0.099-1.079,0.088c-2.217-0.063-4.435-0.146-6.647-0.223C193.039,66.587,192.742,66.565,192.549,66.554z"/>
	<g>
		<path d="M217.792,37.706c0.013-0.042,0.044-0.108,0.028-0.126c-0.053-0.061-0.123-0.107-0.189-0.16
			c-0.014,0.042-0.051,0.109-0.038,0.123C217.651,37.606,217.726,37.653,217.792,37.706z"/>
		<path d="M218.325,38.534c-0.043-0.071-0.103-0.133-0.158-0.196c-0.017,0.041-0.035,0.083-0.054,0.126
			c0.057,0.062,0.109,0.122,0.16,0.184C218.294,38.607,218.337,38.555,218.325,38.534z"/>
		<path d="M219.58,40.585c-0.229-0.537-0.42-1.103-1.245-1.288c0.243,0.487,0.4,0.863,0.609,1.209
			C219.08,40.729,219.294,40.863,219.58,40.585z"/>
		<path d="M215.83,34.222c-0.094-0.163-0.186-0.324-0.281-0.482c-0.014,0.006-0.025,0.014-0.036,0.022
			c0.092,0.161,0.187,0.321,0.278,0.482C215.803,34.236,215.817,34.229,215.83,34.222z"/>
		<path d="M214.486,33.606c-0.115-0.199-0.234-0.399-0.351-0.598c-0.022,0.014-0.045,0.027-0.066,0.041
			c0.115,0.199,0.231,0.398,0.349,0.598C214.44,33.635,214.462,33.621,214.486,33.606z"/>
		<path d="M213.203,33.769c0,0.043-0.004,0.086-0.007,0.13c0.032,0.036,0.066,0.069,0.101,0.107
			c0.002-0.046,0.019-0.097,0.003-0.132C213.283,33.831,213.236,33.803,213.203,33.769z"/>
		<path d="M212.48,35.049c0.164,0.239,0.328,0.478,0.494,0.715c0.034-0.023,0.067-0.046,0.105-0.072
			c-0.14-0.238-0.278-0.476-0.417-0.714C212.602,35.003,212.541,35.026,212.48,35.049z"/>
		<path d="M210.277,29.352c-0.01,0.044-0.035,0.104-0.02,0.132c0.053,0.076,0.12,0.139,0.184,0.204
			c0.008-0.045,0.037-0.105,0.021-0.131C210.41,29.481,210.339,29.419,210.277,29.352z"/>
		<polygon points="208.089,25.688 208.165,25.653 208.076,25.567 		"/>
		<path d="M208.709,26.759c0.034,0.022,0.067,0.046,0.1,0.069c-0.029-0.064-0.061-0.129-0.092-0.192
			C208.714,26.676,208.712,26.716,208.709,26.759z"/>
		<path d="M209.308,27.802c0.021-0.042,0.041-0.083,0.062-0.123c-0.031,0-0.062,0.001-0.092,0.004
			C209.288,27.723,209.299,27.762,209.308,27.802z"/>
		<path d="M223.82,40.243c0.045,0.102,0.207,0.156,0.385,0.283c0.023-0.221,0.1-0.406,0.044-0.466
			c-0.477-0.531-0.833-1.108-1.062-1.8c-0.16-0.468-0.521-0.874-1.074-1.158c0.027,0.242,0.008,0.435,0.07,0.601
			C222.544,38.667,223.416,39.298,223.82,40.243z"/>
		<path d="M215.137,40.645c0.028,0.026,0.06,0.055,0.091,0.081c0.02-0.022,0.058-0.042,0.055-0.065c0-0.039-0.025-0.078-0.041-0.117
			C215.208,40.577,215.171,40.609,215.137,40.645z"/>
		<path d="M221.651,36.106c-0.028,0.006-0.056,0.011-0.087,0.017c0.01,0.037,0.018,0.071,0.024,0.108
			C221.611,36.19,221.631,36.149,221.651,36.106z"/>
		<path d="M221.077,34.738c-0.084-0.017-0.169-0.033-0.251-0.051c-0.006,0.046-0.012,0.089-0.016,0.135
			c0.08,0.014,0.162,0.031,0.244,0.037C221.062,34.858,221.069,34.78,221.077,34.738z"/>
		<path d="M231.65,55.254c0.042,0.073,0.084,0.146,0.131,0.22c0.002,0,0.047-0.029,0.072-0.043
			c-0.042-0.073-0.085-0.148-0.127-0.221C231.699,55.225,231.675,55.239,231.65,55.254z"/>
		<path d="M226.957,46.845c-0.239-0.429-0.561-0.47-0.901-0.574l0,0c-0.005,0.006-0.005,0.015-0.009,0.021
			c0.027,0.043,0.052,0.086,0.08,0.128c0.521,0.813,1.117,1.576,1.635,2.394c0.587,0.939,1.122,1.91,1.617,2.928
			c-0.203-0.257-0.383-0.544-0.616-0.763c-0.048-0.047-0.105-0.089-0.166-0.129c-0.042,0.247,0.118,0.582,0.266,0.828
			c0.259,0.439,0.577,0.842,0.866,1.261c0.12,0.169,0.221,0.369,0.482,0.142c-0.151-0.516-0.221-1.101-0.487-1.572
			C228.834,49.935,227.845,48.418,226.957,46.845z"/>
		<polygon points="232.06,58.43 232.144,58.332 232.021,58.336 		"/>
		<path d="M225.284,44.951c0.305,0.522,0.521,0.894,0.731,1.254C226.155,45.673,225.88,45.336,225.284,44.951z"/>
		<path d="M234.255,56.604c-0.028,0.066-0.062,0.132-0.092,0.196c0.08,0.057,0.156,0.115,0.23,0.177
			c0.012-0.048,0.046-0.111,0.028-0.142C234.38,56.751,234.314,56.68,234.255,56.604z"/>
		<path d="M233.113,53.738c-1.203-1.676-2.424-3.339-3.455-5.138c-0.488-0.848-1.016-1.679-1.552-2.5
			c-1.046-1.597-2.108-3.182-3.181-4.761c-0.091-0.135-0.301-0.184-0.681-0.404c0.225,0.505,0.316,0.785,0.461,1.032
			c0.26,0.445,0.62,0.84,0.814,1.305c0.562,1.335,1.264,2.598,1.994,3.839c0.812,1.376,1.724,2.693,2.588,4.038
			c0.278,0.435,0.547,0.839,1.032,1.107c0.484,0.268,0.873,0.717,0.9,1.354c0.016,0.438,0.271,0.605,0.641,0.739
			c0.427,0.155,0.704,0.436,0.372,0.917c0.114,0.064,0.258,0.204,0.335,0.176c0.409-0.144,0.539-0.459,0.34-0.806
			C233.542,54.323,233.324,54.03,233.113,53.738z"/>
		<path d="M232.338,56.286c0.021,0.117,0.021,0.24,0.064,0.346c0.021,0.048,0.127,0.063,0.276,0.129
			c-0.096-0.207-0.146-0.331-0.211-0.446C232.455,56.288,232.382,56.295,232.338,56.286z"/>
		<path d="M221.865,49.722c-0.002,0.088-0.03,0.19,0.004,0.261c0.037,0.082,0.132,0.134,0.202,0.199
			c0.013-0.108,0.056-0.225,0.021-0.322C222.072,49.797,221.946,49.767,221.865,49.722z"/>
		<path d="M226.009,46.23c0.005,0.012,0.013,0.021,0.019,0.032c0.008,0.002,0.018,0.006,0.027,0.009
			c-0.013-0.022-0.027-0.045-0.039-0.066C226.013,46.214,226.011,46.223,226.009,46.23z"/>
		<path d="M224.256,50.749c0.238,0.223,0.42,0.513,0.626,0.774c-0.502-1.031-1.045-2.019-1.645-2.97
			c-0.521-0.829-1.127-1.603-1.656-2.427c-0.555-0.87-1.065-1.767-1.588-2.66c-0.299-0.51-0.65-0.948-1.419-1.376
			c0.412,0.858,0.698,1.453,1.097,2.281c-0.288-0.096-0.462-0.099-0.516-0.181c-0.344-0.515-0.683-1.036-0.982-1.578
			c-1.02-1.857-2.02-3.721-3.026-5.583c-0.074-0.135-0.129-0.283-0.214-0.414c-0.28-0.433-0.646-0.634-1.135-0.494
			c0.484,1.022,0.771,2.12,1.403,3.083c0.333,0.509,0.569,1.099,0.776,1.674c0.27,0.749,0.599,1.444,1.291,1.859
			c0.377,0.227,0.594,0.527,0.746,0.936c0.101,0.275,0.302,0.515,0.442,0.78c0.143,0.261,0.279,0.528,0.396,0.801
			c0.1,0.232,0.127,0.504,0.258,0.714c0.611,0.987,1.346,1.873,2.217,2.814c0.086-1.483-1.147-2.321-1.525-3.854
			c0.439,0.478,0.666,0.672,0.832,0.913c0.438,0.638,0.9,1.269,1.261,1.953c0.431,0.827,1.205,1.4,1.531,2.314
			C223.527,50.378,223.998,50.505,224.256,50.749z M219.84,44.725c-0.035-0.025-0.071-0.052-0.107-0.078
			c0.004-0.043,0.005-0.086,0.008-0.128c0.033,0.024,0.084,0.043,0.101,0.076C219.857,44.63,219.841,44.681,219.84,44.725z"/>
		<path d="M222.059,48.874c-0.056,0.03-0.11,0.063-0.166,0.096c0.12,0.204,0.234,0.409,0.359,0.608
			c0.019,0.031,0.097,0.054,0.121,0.038c0.027-0.016,0.056-0.093,0.039-0.122C222.302,49.283,222.178,49.079,222.059,48.874z"/>
		<path d="M224.722,43.749c-0.02,0.022-0.056,0.047-0.054,0.065c0.013,0.042,0.041,0.076,0.062,0.115
			c0.028-0.032,0.058-0.066,0.085-0.099C224.787,43.802,224.753,43.775,224.722,43.749z"/>
		<path d="M224.487,53.097c-0.075-0.072-0.271-0.012-0.41-0.022c-0.23-0.514-0.474-1.023-0.688-1.544
			c-0.076-0.177-0.095-0.377-0.144-0.563c-0.039-0.055-0.075-0.109-0.112-0.163c0.033,0.062,0.065,0.125,0.098,0.189
			c-0.004,0.227-0.084,0.491,0.008,0.675c0.242,0.491,0.557,0.948,0.842,1.417c0.166,0.187,0.357,0.356,0.494,0.562
			c0.375,0.558,0.715,1.139,1.097,1.689c0.107,0.154,0.315,0.264,0.404,0.029c-0.275-0.471-0.509-0.924-0.792-1.341
			C225.052,53.691,224.775,53.384,224.487,53.097z"/>
		<path d="M235.614,56.018c-0.473-0.803-0.94-1.607-1.417-2.406c-0.16-0.266-0.324-0.533-0.521-0.775
			c-2.078-2.592-3.854-5.404-5.618-8.22c-2.507-4.003-5.02-7.999-7.265-12.166c-2.119-3.935-4.42-7.767-6.543-11.699
			c-2.865-5.308-5.84-10.542-9.401-15.413c-0.484-0.66-1.009-1.298-1.562-1.896c-0.184-0.201-0.52-0.26-0.793-0.357
			c-0.035-0.014-0.113,0.12-0.211,0.234c0.295,0.24,0.586,0.476,0.869,0.707c-0.228,0.414-0.639,0.419-0.787,0.224
			c-0.458-0.604-1.112-0.245-1.658-0.541c-0.035-0.733-0.221-1.403-0.77-1.992c-0.556,0.27-1.103,0.435-1.188,1.161
			c-0.014,0.107-0.16,0.269-0.246,0.262c-0.446-0.041-0.521,0.292-0.692,0.6c-0.283,0.506-0.718,0.917-0.684,1.595
			c0.009,0.132-0.067,0.302-0.163,0.384c-0.733,0.643-0.909,1.569-1.098,2.545c0.402,0.571,0.855,1.137,1.23,1.754
			c0.831,1.369,2.073,4.276,2.688,6.215c0.141,0.446,0.43,0.736,0.825,0.84c0.849,0.231,1.292,0.862,1.734,1.599
			c0.347,0.576,0.553,1.343,1.338,1.553c0.114,0.031,0.221,0.207,0.3,0.335c0.432,0.71,0.86,1.42,1.274,2.139
			c0.074,0.128,0.072,0.301,0.165,0.729c-0.827-0.897-0.943-1.927-1.681-2.509c-0.07,0.055-0.143,0.081-0.141,0.113
			c-0.003,0.191-0.03,0.396,0.03,0.574c0.183,0.535,0.392,1.062,0.608,1.584c0.139,0.335,0.293,0.667,0.476,0.979
			c0.632,1.07,1.273,2.134,1.918,3.199c0.07,0.118,0.189,0.211,0.285,0.314c-0.024-0.33-0.284-0.598-0.281-0.844
			c0.01-0.949-0.54-1.631-1.01-2.366c-0.051-0.078,0.035-0.249,0.079-0.492c0.212,0.224,0.396,0.343,0.463,0.51
			c0.38,0.949,1.005,1.792,1.214,2.821c0.091,0.443,0.302,0.893,0.545,1.282c0.632,1.011,1.315,1.981,1.683,3.14
			c0.09,0.278,0.361,0.499,0.522,0.763c0.374,0.612,0.802,1.209,1.071,1.865c0.224,0.54,0.432,1.048,0.888,1.419
			c0.329,0.267,0.564,0.594,0.67,1.018c0.308,1.216,0.964,2.276,1.548,3.367c0.271,0.502,0.621,0.921,1.079,1.291
			c0.407,0.33,0.938,0.658,0.953,1.33c0.011,0.313,0.285,0.387,0.496,0.521c0.165,0.103,0.402,0.228,0.441,0.378
			c0.246,0.951,0.951,1.698,1.154,2.68c0.119,0.589,0.396,1.178,0.698,1.711c0.373,0.665,0.947,1.2,1.187,1.971
			c0.076,0.243,0.417,0.421,0.646,0.615c0.543,0.458,1.172,0.836,1.625,1.374c1.193,1.418,2.309,2.905,3.485,4.401
			c0.204,0.002,0.439,0.005,0.722,0.01c0.324,0.346,0.64,0.768,1.027,1.087c0.379,0.308,0.43,0.942,1.028,1.124
			c-0.376-1.017-1.471-1.659-1.241-2.949c0.543,0.359,0.778,0.839,1.014,1.273c0.285,0.525,0.693,0.208,1.032,0.334
			c0.511,0.774,1.017,1.544,1.589,2.417c0.31-0.028,0.598,0.027,0.781-0.086c1.175-0.731,2.346-1.471,3.474-2.272
			C235.957,57.055,235.935,56.569,235.614,56.018z M208.089,25.688l-0.014-0.12l0.089,0.086L208.089,25.688z M208.709,26.759
			c0.003-0.042,0.005-0.083,0.008-0.123c0.031,0.063,0.062,0.128,0.092,0.192C208.777,26.805,208.744,26.781,208.709,26.759z
			 M209.308,27.802c-0.01-0.04-0.021-0.079-0.029-0.119c0.029-0.002,0.061-0.003,0.092-0.004
			C209.349,27.719,209.33,27.76,209.308,27.802z M210.441,29.688c-0.062-0.065-0.131-0.128-0.184-0.204
			c-0.017-0.028,0.01-0.088,0.02-0.132c0.062,0.068,0.133,0.129,0.186,0.205C210.478,29.583,210.449,29.642,210.441,29.688z
			 M223.185,38.259c0.229,0.692,0.587,1.269,1.062,1.8c0.056,0.061-0.021,0.245-0.044,0.466c-0.178-0.127-0.34-0.181-0.385-0.283
			c-0.404-0.945-1.275-1.577-1.639-2.541c-0.062-0.167-0.043-0.359-0.07-0.601C222.666,37.385,223.025,37.791,223.185,38.259z
			 M221.651,36.106c-0.021,0.042-0.04,0.084-0.062,0.125c-0.008-0.037-0.016-0.071-0.024-0.108
			C221.595,36.118,221.623,36.112,221.651,36.106z M220.826,34.687c0.082,0.018,0.167,0.034,0.251,0.051
			c-0.008,0.042-0.015,0.121-0.021,0.121c-0.082-0.005-0.164-0.022-0.244-0.037C220.814,34.776,220.82,34.733,220.826,34.687z
			 M219.58,40.585c-0.285,0.278-0.5,0.143-0.636-0.078c-0.209-0.347-0.366-0.722-0.609-1.209
			C219.16,39.482,219.349,40.049,219.58,40.585z M218.167,38.337c0.057,0.063,0.115,0.125,0.158,0.196
			c0.013,0.021-0.03,0.074-0.052,0.114c-0.051-0.062-0.104-0.123-0.16-0.184C218.131,38.42,218.15,38.378,218.167,38.337z
			 M217.63,37.42c0.066,0.052,0.138,0.099,0.189,0.16c0.016,0.018-0.018,0.084-0.028,0.126c-0.064-0.053-0.141-0.1-0.199-0.163
			C217.58,37.529,217.617,37.462,217.63,37.42z M215.548,33.74c0.097,0.159,0.188,0.319,0.281,0.482
			c-0.013,0.007-0.025,0.014-0.039,0.022c-0.093-0.161-0.188-0.322-0.278-0.482C215.522,33.754,215.535,33.746,215.548,33.74z
			 M214.136,33.008c0.114,0.199,0.233,0.399,0.35,0.598c-0.023,0.014-0.046,0.028-0.068,0.041c-0.115-0.199-0.232-0.399-0.349-0.598
			C214.091,33.036,214.113,33.022,214.136,33.008z M212.974,35.764c-0.166-0.237-0.33-0.476-0.494-0.715
			c0.061-0.023,0.122-0.046,0.184-0.071c0.14,0.238,0.277,0.476,0.417,0.714C213.042,35.718,213.009,35.741,212.974,35.764z
			 M213.296,34.005c-0.033-0.038-0.067-0.071-0.101-0.107c0.003-0.043,0.007-0.087,0.007-0.13c0.033,0.034,0.08,0.062,0.097,0.104
			C213.314,33.908,213.298,33.959,213.296,34.005z M215.228,40.726c-0.031-0.026-0.062-0.055-0.091-0.081
			c0.033-0.035,0.07-0.068,0.104-0.101c0.016,0.04,0.041,0.079,0.041,0.117C215.286,40.684,215.248,40.704,215.228,40.726z
			 M222.071,50.182c-0.07-0.065-0.165-0.117-0.202-0.199c-0.034-0.071-0.006-0.173-0.004-0.261c0.081,0.045,0.207,0.076,0.229,0.138
			C222.126,49.957,222.083,50.073,222.071,50.182z M222.375,49.616c-0.024,0.016-0.104-0.007-0.121-0.038
			c-0.125-0.199-0.239-0.405-0.359-0.608c0.056-0.033,0.11-0.064,0.166-0.096c0.119,0.206,0.243,0.41,0.354,0.62
			C222.429,49.522,222.402,49.6,222.375,49.616z M221.896,47.795c-0.359-0.684-0.822-1.315-1.26-1.953
			c-0.166-0.241-0.394-0.436-0.832-0.913c0.377,1.534,1.61,2.372,1.524,3.854c-0.871-0.942-1.604-1.828-2.217-2.814
			c-0.131-0.21-0.158-0.482-0.258-0.714c-0.117-0.272-0.255-0.54-0.396-0.801c-0.142-0.265-0.343-0.505-0.442-0.78
			c-0.152-0.409-0.369-0.709-0.746-0.936c-0.692-0.416-1.021-1.111-1.291-1.859c-0.207-0.576-0.443-1.166-0.776-1.674
			c-0.634-0.963-0.919-2.061-1.403-3.083c0.488-0.14,0.854,0.061,1.135,0.494c0.085,0.13,0.14,0.278,0.214,0.414
			c1.008,1.862,2.008,3.725,3.026,5.583c0.301,0.542,0.64,1.063,0.982,1.578c0.054,0.083,0.228,0.085,0.516,0.181
			c-0.397-0.829-0.685-1.423-1.097-2.281c0.77,0.428,1.12,0.867,1.419,1.376c0.521,0.894,1.033,1.791,1.588,2.66
			c0.529,0.825,1.136,1.598,1.656,2.427c0.6,0.951,1.143,1.939,1.645,2.97c-0.205-0.262-0.388-0.552-0.626-0.774
			c-0.259-0.243-0.729-0.371-0.827-0.64C223.101,49.195,222.327,48.622,221.896,47.795z M224.669,43.814
			c-0.002-0.019,0.034-0.043,0.054-0.065c0.03,0.027,0.063,0.054,0.094,0.082c-0.027,0.033-0.057,0.066-0.085,0.099
			C224.71,43.89,224.681,43.855,224.669,43.814z M225.67,55.338c-0.382-0.55-0.722-1.131-1.097-1.689
			c-0.137-0.207-0.328-0.375-0.494-0.562c-0.285-0.47-0.6-0.927-0.842-1.417c-0.092-0.184-0.012-0.449-0.008-0.675
			c-0.031-0.064-0.063-0.127-0.098-0.189c0.037,0.054,0.073,0.108,0.112,0.163c0.049,0.187,0.066,0.386,0.144,0.563
			c0.215,0.521,0.457,1.03,0.688,1.544c0.14,0.01,0.335-0.05,0.41,0.022c0.288,0.287,0.564,0.594,0.796,0.929
			c0.283,0.417,0.517,0.87,0.792,1.341C225.986,55.603,225.778,55.493,225.67,55.338z M229.727,52.939
			c-0.289-0.419-0.607-0.822-0.866-1.261c-0.146-0.247-0.308-0.581-0.266-0.828c0.061,0.04,0.118,0.083,0.166,0.129
			c0.233,0.218,0.413,0.506,0.616,0.763c-0.495-1.018-1.03-1.989-1.618-2.928c-0.517-0.818-1.113-1.581-1.634-2.394
			c-0.028-0.042-0.053-0.085-0.08-0.128c0.004-0.006,0.004-0.014,0.009-0.021l0,0c-0.011-0.003-0.021-0.007-0.027-0.009
			c-0.006-0.01-0.014-0.02-0.019-0.032c0.003-0.007,0.005-0.016,0.007-0.025c-0.21-0.36-0.428-0.731-0.731-1.254
			c0.597,0.386,0.871,0.723,0.731,1.254c0.012,0.021,0.026,0.044,0.039,0.066c0.342,0.104,0.662,0.145,0.901,0.574
			c0.89,1.573,1.878,3.09,2.767,4.664c0.268,0.471,0.336,1.056,0.487,1.572C229.948,53.308,229.847,53.108,229.727,52.939z
			 M231.781,55.474c-0.047-0.074-0.089-0.147-0.131-0.22c0.024-0.015,0.049-0.029,0.076-0.044c0.042,0.073,0.085,0.147,0.127,0.221
			C231.828,55.445,231.783,55.474,231.781,55.474z M232.06,58.43l-0.039-0.094l0.123-0.004L232.06,58.43z M232.403,56.632
			c-0.045-0.106-0.045-0.229-0.064-0.346c0.044,0.009,0.116,0.001,0.132,0.029c0.064,0.115,0.114,0.239,0.21,0.446
			C232.53,56.696,232.423,56.68,232.403,56.632z M233.384,55.441c-0.077,0.028-0.221-0.112-0.335-0.176
			c0.332-0.481,0.055-0.762-0.372-0.917c-0.368-0.134-0.625-0.301-0.641-0.739c-0.027-0.637-0.416-1.086-0.899-1.354
			c-0.486-0.268-0.755-0.672-1.033-1.107c-0.864-1.345-1.776-2.662-2.588-4.038c-0.73-1.241-1.433-2.503-1.994-3.839
			c-0.194-0.465-0.556-0.86-0.814-1.305c-0.145-0.247-0.236-0.527-0.461-1.032c0.38,0.221,0.59,0.27,0.681,0.404
			c1.071,1.579,2.135,3.165,3.181,4.761c0.536,0.821,1.062,1.652,1.552,2.5c1.031,1.799,2.252,3.462,3.455,5.138
			c0.211,0.292,0.429,0.585,0.61,0.896C233.923,54.981,233.793,55.297,233.384,55.441z M234.394,56.977
			c-0.074-0.062-0.15-0.12-0.23-0.177c0.03-0.064,0.062-0.13,0.092-0.196c0.06,0.076,0.125,0.147,0.168,0.231
			C234.44,56.866,234.406,56.929,234.394,56.977z"/>
		<path d="M219.74,44.519c-0.003,0.042-0.004,0.085-0.008,0.128c0.036,0.025,0.072,0.053,0.107,0.078
			c0.001-0.043,0.018-0.094,0-0.129C219.824,44.562,219.773,44.543,219.74,44.519z"/>
	</g>
	<path d="M101.688,66.399c0.076-0.798,0.142-1.509,0.21-2.219c0.078-0.846,0.156-1.692,0.239-2.537
		c0.021-0.237,0.067-0.473,0.104-0.708c0.042-0.263,0.142-0.533,0.121-0.786c-0.079-0.923,0.15-1.792,0.358-2.669
		c0.09-0.385,0.161-0.762-0.007-1.162c-0.162-0.388,0.044-0.766,0.199-1.13c0.099-0.23,0.146-0.486,0.211-0.733
		c0.046-0.174,0.044-0.391,0.138-0.523c0.542-0.777,0.619-1.713,0.792-2.625c0.059-0.325,0.192-0.65,0.351-0.932
		c0.138-0.245,0.32-0.419,0.31-0.767c-0.006-0.205,0.136-0.44,0.252-0.626c0.34-0.551,0.673-1.086,0.718-1.798
		c0.017-0.249,0.162-0.499,0.27-0.734c0.888-1.891,1.777-3.783,2.676-5.666c0.157-0.327,0.334-0.651,0.55-0.929
		c0.416-0.539,0.359-1.224,0.533-1.837c0.292-1.02,0.624-2.023,0.95-3.029c0.498-1.542,0.857-3.115,1-4.748
		c0.132-1.51,0.305-3.018,0.46-4.527c0.015-0.159,0.005-0.333,0.059-0.474c0.329-0.856,0.025-1.646-0.091-2.455
		c-0.075-0.519-0.133-1.041-0.233-1.55c-0.329-1.641-0.618-3.299-1.034-4.907c-0.392-1.509-0.918-2.965-1.398-4.435
		c-0.272-0.832-0.571-1.654-0.868-2.473c-0.089-0.24-0.218-0.455-0.323-0.683c-0.13-0.275-0.276-0.543-0.37-0.836
		c-0.034-0.107,0.059-0.275,0.094-0.416c0.111,0.038,0.3,0.042,0.323,0.117c0.071,0.262,0.217,0.238,0.375,0.175
		c0.495-0.201,0.952-0.246,1.499-0.146c0.808,0.145,1.67-0.052,2.51-0.108c0.295-0.019,0.591-0.086,0.883-0.068
		c2.312,0.141,4.622,0.301,6.935,0.453c0.204,0.015,0.411,0.046,0.611,0.016c0.794-0.122,1.299,0.319,1.639,1.081
		c0.467,1.045,0.924,2.099,1.382,3.151c0.129,0.304,0.239,0.624,0.366,0.931c0.698,1.695,1.156,3.459,1.173,5.397
		c0.016,1.992,0.116,3.98,0.203,5.968c0.087,1.973-0.268,3.872-0.854,5.727c-0.328,1.035-0.669,2.063-1.043,3.076
		c-1.761,4.74-3.499,9.494-5.63,14.042c-1.832,3.904-2.947,8.058-3.496,12.403c-0.243,1.923-0.416,3.86-0.609,5.79
		c-0.081,0.805-0.244,1.009-0.976,0.998c-1.454-0.016-2.907-0.077-4.362-0.08c-2.114-0.005-4.229,0.024-6.346,0.034
		C102.274,66.442,102.012,66.415,101.688,66.399z"/>
	<path d="M137.656,65.748c0.037,0.122,0.078,0.241,0.12,0.358c0.439,0.009,0.886,0.087,1.331,0.138
		c0.127,0.014,0.254,0.083,0.379,0.063c0.562-0.087,1.127-0.083,1.697-0.042c-0.752-2.352-1.527-4.708-2.27-7.057
		c-1.728-5.477-3.457-10.953-5.152-16.423c-1.632-5.249-3.235-10.494-4.826-15.733c-0.84-2.766-1.635-5.514-2.438-8.267
		c-1.396-4.787-2.912-9.603-4.443-14.426c-0.094-0.291-0.192-0.586-0.298-0.874c-0.253-0.695-0.466-1.074-0.68-1.195
		c-0.138-0.078-0.267-0.112-0.38-0.107c-0.707,0.025-1.406,0.068-2.105,0.107c-0.095,0.004-0.186,0.023-0.245,0.031
		c-0.258,0.178-0.256,0.556,0.083,1.718c0.547,1.882,1.107,3.772,1.695,5.667c2.853,9.188,5.707,18.377,8.574,27.571
		c2.252,7.225,4.526,14.451,6.795,21.68C136.205,61.219,136.932,63.485,137.656,65.748z"/>
	<path d="M122.06,1.885c-0.527,0.326-0.611,0.75-0.247,1.902c0.587,1.865,1.196,3.737,1.855,5.598
		c3.2,9.03,6.405,18.056,9.638,27.083c2.535,7.092,5.107,14.18,7.676,21.269c0.803,2.219,1.641,4.432,2.468,6.647
		c0.159,0.428,0.339,0.858,0.537,1.267c0.26,0.543,0.573,0.826,0.885,0.826c0.196,0,0.38-0.046,0.561-0.094
		c1.449-0.364,2.896-0.738,4.348-1.106c0.675-0.171,0.738-0.491,0.246-1.812c-0.877-2.358-1.808-4.71-2.668-7.069
		c-1.961-5.366-3.924-10.734-5.828-16.107c-1.834-5.156-3.613-10.321-5.373-15.488c-0.93-2.725-1.775-5.454-2.641-8.182
		c-1.5-4.746-3.218-9.468-4.963-14.189c-0.104-0.285-0.226-0.569-0.354-0.846c-0.311-0.664-0.622-0.995-0.995-1.027
		c-0.243-0.021-0.478,0-0.689,0.059c-1.334,0.365-2.659,0.745-3.986,1.123C122.347,1.786,122.172,1.851,122.06,1.885z"/>
	<path d="M202.882,73.978c0.873,0.197,1.189,0.58,1.248,1.748c0.095,1.89,0.162,3.789,0.154,5.688
		c-0.031,9.22-0.072,18.438-0.146,27.658c-0.061,7.245-0.163,14.493-0.264,21.741c-0.032,2.271-0.107,4.541-0.177,6.812
		c-0.013,0.438-0.051,0.881-0.123,1.312c-0.096,0.566-0.386,0.9-0.809,0.968c-0.269,0.04-0.539,0.032-0.808,0.028
		c-2.147-0.041-4.295-0.092-6.443-0.135c-0.996-0.02-1.238-0.309-1.202-1.662c0.066-2.418,0.202-4.838,0.246-7.254
		c0.098-5.49,0.2-10.982,0.223-16.469c0.021-5.27-0.027-10.531-0.104-15.787c-0.041-2.773-0.195-5.535-0.326-8.299
		c-0.229-4.809-0.155-9.639-0.041-14.475c0.008-0.291,0.032-0.586,0.076-0.873c0.106-0.696,0.37-1.072,0.864-1.185
		c0.319-0.071,0.646-0.1,0.966-0.09c1.987,0.065,3.975,0.146,5.961,0.226C202.444,73.942,202.712,73.966,202.882,73.978z"/>
	<path d="M208.255,106.45c0.449,0.078,0.617,0.264,0.676,0.855c0.091,0.954,0.167,1.916,0.211,2.879
		c0.197,4.676,0.394,9.35,0.57,14.026c0.142,3.677,0.259,7.353,0.376,11.031c0.036,1.149,0.052,2.305,0.07,3.458
		c0.003,0.224-0.005,0.447-0.032,0.667c-0.037,0.291-0.177,0.467-0.389,0.512c-0.135,0.024-0.271,0.029-0.406,0.034
		c-1.092,0.027-2.181,0.059-3.271,0.087c-0.507,0.017-0.636-0.125-0.648-0.812c-0.022-1.229-0.012-2.459-0.045-3.685
		c-0.079-2.787-0.154-5.573-0.271-8.356c-0.113-2.668-0.263-5.336-0.425-8.002c-0.084-1.404-0.228-2.802-0.358-4.199
		c-0.229-2.432-0.303-4.883-0.359-7.338c-0.002-0.146,0.004-0.299,0.021-0.444c0.037-0.356,0.162-0.554,0.407-0.621
		c0.16-0.044,0.328-0.065,0.49-0.069c1.01-0.015,2.02-0.021,3.025-0.029C208.035,106.442,208.168,106.448,208.255,106.45z"/>
	<path d="M244.558,125.851c-0.033,0.303-0.082,0.604-0.125,0.906c-0.088,0.611-0.369,1.035-0.847,1.27
		c-0.203,0.102-0.405,0.197-0.612,0.285c-1.441,0.627-2.887,1.244-4.326,1.875c-3.566,1.563-7.107,3.203-10.502,5.24
		c-0.621,0.373-1.215,0.6-1.864,0.082c-0.083-0.064-0.214-0.092-0.312-0.072c-0.099,0.021-0.22,0.099-0.264,0.196
		c-0.063,0.146-0.104,0.332-0.101,0.502c0.008,0.55-0.229,0.899-0.604,1.153c-0.377,0.252-0.755,0.508-1.129,0.762
		c-4.156,0.586-8.311,1.176-12.465,1.77c-0.35-3.024-0.697-6.045-1.049-9.067c-0.152-1.297-0.309-2.596-0.461-3.89
		c0.744,0.3,1.46,0.465,2.286,0.238c1.06-0.293,3.386-0.418,4.48-0.52c1.207-0.109,1.187-0.232,2.355-0.604
		c1.648-0.523,1.822-0.403,2.621,1.352c0.813,1.781,1.645,3.55,2.475,5.32c0.088,0.188,0.207,0.354,0.312,0.526
		c0.067-0.034,0.137-0.069,0.204-0.104c-0.208-0.692-0.469-1.358-0.754-2.02c-0.606-1.412-1.188-2.838-1.776-4.26
		c-0.063-0.158-0.118-0.324-0.157-0.496c-0.12-0.52-0.021-0.865,0.394-1.076c0.534-0.271,1.086-0.512,1.647-0.703
		c1.439-0.492,2.882-0.979,4.241-1.75c0.394-0.227,0.78-0.468,1.17-0.709c0.575-0.358,0.958-0.916,1.19-1.643
		c0.702-2.203,1.472-4.381,2.099-6.616c0.462-1.653,0.754-3.378,1.098-5.078c0.191-0.942,0.009-1.831-0.435-2.645
		c-0.062-0.112-0.114-0.253-0.201-0.312c-0.249-0.172-0.579-0.234-0.749-0.472c-0.188-0.263-0.298-0.58-0.587-0.75
		c-0.647-0.385-0.997-1.164-1.495-1.742c-0.076-0.092-0.146-0.221-0.164-0.342c-0.106-0.858-0.669-1.308-1.107-1.901
		c-0.776-1.051-1.714-1.962-2.184-3.357c-0.812,0.086-1.375-0.543-2.008-0.957c-0.368-0.24-0.567-0.688-0.689-1.163
		c-0.104-0.408-0.297-0.698-0.633-0.858c-0.361-0.172-0.577-0.535-0.775-0.914c-0.239-0.459-0.559-0.806-0.942-1.092
		c-0.594-0.443-1.156-0.945-1.737-1.413c-0.421-0.339-0.692-0.786-0.769-1.394c-0.054-0.446-0.17-0.859-0.474-1.16
		c-0.446-0.449-0.635-1.059-0.805-1.7c-0.416-1.579-0.704-1.729-2.005-1.104c-0.202,0.099-0.4,0.221-0.609,0.293
		c-1.138,0.402-2.146,1.08-3.075,1.947c-0.313,0.293-0.67,0.525-1.018,0.767c-0.482,0.334-1.009,0.479-1.57,0.501
		c-1.281,0.056-2.562,0.135-3.842,0.219c-0.203,0.014-0.389,0.05-0.559,0.105c-0.527-4.297-1.144-8.586-1.738-12.877
		c-0.104-0.736-0.247-1.479-0.441-2.2c0.91,0.062,1.82,0.127,2.73,0.196c3.003,0.229,5.999,0.566,8.99,0.994
		c2.422,0.346,4.801,0.816,7.091,1.859c1.101,0.502,2.196,1.021,3.266,1.611c1.909,1.051,3.821,2.104,5.506,3.649
		c0.995,0.912,1.979,1.845,2.963,2.777c2.215,2.098,4.067,4.616,5.813,7.255c1.228,1.854,2.219,3.854,2.707,6.168
		c0.297,1.409,0.631,2.807,0.915,4.22c0.64,3.214,1.286,6.429,1.6,9.712c0.044,0.479,0.148,0.95,0.224,1.428
		c0.077,0.475,0.146,0.949,0.234,1.516c0.009,1.583,0.086,3.253-0.082,4.913C244.951,122.286,244.751,124.067,244.558,125.851z"/>
	<path d="M174.952,9.65c0-3.107-2.346-5.698-5.155-5.698c-2.811,0-5.154,2.591-5.154,5.698c-0.003,16.358-0.329,32.717,0,49.074
		c0.062,3.105,2.299,5.697,5.154,5.697c2.761,0,5.22-2.589,5.155-5.697C174.623,42.367,174.949,26.008,174.952,9.65z"/>
	<path d="M153.099,7.844c0.002-0.305-0.019-0.518,0.003-0.708c0.139-1.254,0.312-2.488,0.421-3.758
		c0.099-1.197,0.479-1.747,1.165-1.758c0.358-0.006,0.716-0.042,1.074-0.042c0.96-0.001,1.914-0.056,2.88,0.03
		c1.723,0.154,3.405-0.169,5.116-0.08c2.777,0.144,5.484-0.344,8.232-0.451c0.984-0.038,1.979-0.011,2.963-0.037
		c0.719-0.017,1.439-0.028,2.146-0.123c1.866-0.247,3.762-0.16,5.651-0.146c0.18,0.002,0.363,0.036,0.541,0.104
		c0.197,0.076,0.335,0.322,0.4,0.662c0.027,0.154,0.051,0.315,0.062,0.473c0.116,1.271,0.233,2.544,0.345,3.815
		c0.021,0.264,0.035,0.532,0.031,0.793c-0.005,0.518-0.15,0.875-0.432,0.985c-0.256,0.098-0.521,0.158-0.787,0.174
		c-1.699,0.102-3.377,0.373-5.106,0.208c-1.021-0.098-2.026,0.128-3.041,0.172c-0.656,0.028-1.32-0.008-1.979-0.022
		c-0.18-0.001-0.368-0.051-0.543-0.026c-1.865,0.248-3.768,0.098-5.654,0.118c-1.917,0.02-3.838-0.037-5.756-0.052
		c-0.391-0.005-0.776,0.033-1.168,0.029c-0.599-0.004-1.201-0.03-1.8-0.036c-0.511-0.004-1.017,0.023-1.528,0.008
		c-0.961-0.029-1.924-0.073-2.886-0.125C153.369,8.046,153.279,7.951,153.099,7.844z"/>
	<path d="M184.66,61.537c-0.012,0.283-0.002,0.484-0.029,0.66c-0.172,1.166-0.382,2.316-0.524,3.499
		c-0.139,1.117-0.521,1.622-1.176,1.616c-0.345-0.003-0.685,0.022-1.027,0.015c-0.916-0.022-1.832,0.006-2.75-0.096
		c-1.642-0.185-3.258,0.078-4.889-0.046c-2.649-0.2-5.252,0.191-7.882,0.228c-0.94,0.012-1.888-0.038-2.832-0.038
		c-0.685,0.001-1.373-0.006-2.055,0.065c-1.791,0.187-3.601,0.062-5.404,0.003c-0.17-0.007-0.345-0.041-0.516-0.11
		c-0.183-0.073-0.305-0.308-0.356-0.628c-0.022-0.145-0.036-0.295-0.045-0.443c-0.068-1.189-0.138-2.382-0.197-3.572
		c-0.015-0.248-0.019-0.498-0.004-0.739c0.022-0.486,0.175-0.815,0.444-0.912c0.248-0.085,0.502-0.135,0.761-0.144
		c1.625-0.057,3.237-0.267,4.884-0.074c0.972,0.114,1.938-0.072,2.911-0.089c0.629-0.012,1.258,0.04,1.89,0.067
		c0.171,0.007,0.347,0.056,0.516,0.039c1.79-0.188,3.604-0.005,5.407,0.023c1.828,0.026,3.664,0.125,5.496,0.185
		c0.372,0.012,0.743-0.013,1.115,0c0.572,0.017,1.145,0.057,1.719,0.075c0.487,0.017,0.974,0.004,1.459,0.029
		c0.92,0.05,1.835,0.114,2.754,0.185C184.408,61.34,184.492,61.431,184.66,61.537z"/>
	<path d="M51.199,83.272L51.199,83.272c-0.336-0.592-0.659-1.189-1.008-1.775c-0.451-0.754-0.98-1.424-1.652-1.973
		c-0.399-0.327-0.753-0.754-1.13-1.133c-2.245-2.23-4.584-4.271-7.112-5.967c-0.026-0.02-0.055-0.038-0.083-0.056
		c-1.223-0.007-2.445-0.002-3.674,0.026c-0.805,0.021-1.622,0.146-2.431,0.201c-1.407,0.094-2.812,0.182-4.217,0.254
		c-0.427,0.021-0.845-0.05-1.271-0.022c-2.3,0.139-4.602,0.289-6.901,0.444c-1.045,0.068-2.089,0.131-3.136,0.24
		c-1.477,0.157-2.95,0.286-4.432,0.557c-2.041,0.371-4.086,0.8-6.135,1.35c-0.455,0.124-0.968,0.676-1.406,1.359
		c-0.926,1.445-1.828,3.068-2.727,4.693c-1.106,1.998-1.974,4.588-2.641,7.76c-0.646,3.084-0.848,6.289-1.208,9.451
		c-0.069,0.618-0.017,1.295,0.016,1.908c0.109,2.08,0.208,4.174,0.361,6.204c0.312,4.117,0.658,8.19,0.981,12.294
		c0.141,1.801,0.525,2.947,1.091,3.729c1.431,1.979,2.846,4.013,4.27,6.025c1.896,2.684,3.878,4.922,6.055,6.193
		c4.417,2.581,8.934,4.344,13.625,4.713c1.551-0.033,3.098-0.006,4.652-0.111c2.239-0.15,4.479-0.305,6.729-0.626
		c0.91-0.13,1.825-0.271,2.737-0.423c0.256-0.189,0.511-0.386,0.766-0.588c0.519-0.412,1.011-0.857,1.515-1.288v-0.001
		c0.526-0.449,1.062-0.889,1.572-1.352c0.664-0.594,1.225-1.24,1.626-1.992c0.241-0.449,0.591-0.875,0.888-1.314
		c0.71-1.057,1.381-2.121,2.009-3.195c0.083-1.252,0.171-2.506,0.271-3.766c0.056-0.697,0.107-1.402,0.159-2.101
		c-0.083,0.019-0.168,0.055-0.251,0.065c-0.104,0.012-0.233,0.041-0.31-0.012c-0.434-0.304-0.765-0.079-1.045,0.225
		c-0.649-0.088-1.251-0.312-1.872-0.059c-0.089,0.036-0.209-0.016-0.315-0.029c-0.08-0.01-0.174-0.062-0.237-0.037
		c-0.686,0.293-1.447-0.007-2.128,0.322c-0.062,0.028-0.175,0.043-0.209,0.004c-0.264-0.294-0.549-0.215-0.81-0.037
		c-0.153,0.104-0.288,0.112-0.454,0.107c-0.149-0.003-0.3-0.012-0.449-0.018c-0.205,0.273-0.427,0.541-0.67,0.799
		c-0.816,0.867-1.64,1.734-2.425,2.619c-0.247,0.279-0.547,0.515-0.852,0.757c-0.472,0.375-0.909,0.776-1.321,1.19
		c-1.227,1.219-2.649,2.289-4.352,3.18c-2.408,1.256-2.147,0.025-5.083-0.535c-1.347-0.258-1.475-0.667-2.459-1.438
		c-0.761-0.6-1.577-1.16-2.323-1.767c-1.118-0.909-1.933-1.95-2.611-3.042c-1.757-2.82-3.273-5.688-4.438-8.639
		c-0.828-2.097-1.333-4.199-1.363-6.34c-0.03-2.121-0.185-4.246-0.49-6.373c-0.232-1.604-0.14-3.188,0.112-4.757
		c0.441-2.762,0.91-5.52,1.389-8.278c0.105-0.611,0.288-1.211,0.453-1.812c0.53-1.928,1.271-3.805,2.016-5.682
		c0.247-0.625,0.643-1.144,1.368-1.564c0.694-0.404,1.226-0.965,1.521-1.615c0.041-0.084,0.056-0.192,0.135-0.248
		c0.977-0.709,2.237,0.47,3.619,0.049c2.141-0.647,0.316,0.211,2.638-0.043c0.896-0.098,1.8-0.029,2.706,0.101
		c1.827,0.258,1.827,0.258,3.291,1.097c0.457,0.26,0.938,0.5,1.367,0.78c0.459,0.304,0.878,0.638,1.309,0.963
		c1.466,1.108,2.187,0.285,3.193,1.64c0.792,1.063,1.359,2.181,2.009,3.274c0.099-0.104,0.196-0.192,0.305-0.266
		c0.198-0.128,0.443-0.162,0.699-0.25c0.044,0.095,0.1,0.19,0.139,0.298c0.081,0.216,0.104,0.49,0.243,0.645
		c0.177,0.192,0.433,0.344,0.678,0.41c0.307,0.083,0.633,0.062,1.03,0.096c-0.161-0.304-0.426-0.021-0.518-0.277
		c0.06-0.154,0.194-0.148,0.362-0.129c0.442,0.057,0.536-0.016,0.619-0.443c0.023-0.123,0.021-0.254,0.037-0.459
		c0.621,1.023,0.814,1.018,1.286,0.703c0.119,0.096,0.23,0.242,0.362,0.271c0.107,0.023,0.255-0.072,0.359-0.153
		c0.215-0.175,0.462-0.339,0.61-0.567c0.164-0.264,0.353-0.105,0.528-0.141c0.032,0.141,0.064,0.279,0.102,0.439
		c0.213-0.041,0.394-0.078,0.582-0.115c0.025-0.189,0.051-0.354,0.081-0.566c0.109,0.109,0.185,0.184,0.305,0.305
		c0.165-0.072,0.354-0.156,0.562-0.246c0.083,0.127,0.185,0.283,0.302,0.469c0.18-0.073,0.354-0.131,0.518-0.215
		c0.165-0.082,0.321-0.188,0.498-0.291c0.056,0.196,0.104,0.365,0.163,0.572c0.254,0.098,0.547,0.19,0.646,0.559
		c0.045,0.164,0.103,0.382,0.217,0.445c0.179,0.104,0.408,0.109,0.618,0.133c0.064,0.009,0.134-0.062,0.191-0.092
		c0.029-0.236-0.194-0.197-0.258-0.354c-0.021-0.385-0.042-0.795-0.062-1.178c-0.19-0.233-0.691-0.004-0.596-0.551
		c0.329,0.026,0.618,0.158,0.875,0.385c0.064,0.056,0.148,0.091,0.196,0.156c0.047,0.062,0.11,0.078,0.175,0.078
		c0.061-0.914,0.121-1.828,0.18-2.742C51.773,84.267,51.479,83.774,51.199,83.272z"/>
	<path d="M94.472,86.063c0.275-0.611,0.208-1.152-0.126-1.666c-0.224-0.35-0.55-0.617-0.489-1.336
		c0.101-0.062,0.227-0.148,0.355-0.213c0.404-0.201,0.404-0.199,0.369-1.154c-0.246,0.043-0.486,0.084-0.818,0.143
		c0.042-0.273,0.032-0.525,0.108-0.643c0.154-0.234,0.355-0.394,0.56-0.607c0.071-0.509,0.101-1.077,0.234-1.58
		c0.125-0.459,0.361-0.849,0.552-1.262c0.278-0.598,0.561-1.188,0.846-1.777c0.33-0.684,0.778-1.027,1.328-1.035
		c1.067-0.012,2.137-0.048,3.205,0.002c0.847,0.037,1.121,0.388,1.26,1.683c0.22,2.059,0.389,4.131,0.561,6.202
		c0.479,5.765,0.856,11.551,1.617,17.255c0.634,4.754,0.234,5.519,0.826,10.286c0.146,1.179,0.119,6.371-0.122,11.146
		c-0.011,0.256,0.021,5.121-0.372,6.789c-0.323,1.378-0.454,5.521-0.71,6.932c-0.118,0.649,0.443,2.986,0.602,3.676
		c0.159,0.693-0.725,0.266-1.206,0.373c-0.761,0.173-1.53,0.267-2.301,0.363c-0.329,0.039-0.662-0.024-0.992,0.004
		c-0.396,0.035-4.115,0.113-4.341,0.064c-0.067-0.014-0.132-0.08-0.197-0.123c0.148-1.984,0.106-12.195,0.237-13.6
		c0.862-9.133,0.501-16.479,0.409-18.563c-0.019-0.394,0.011-0.827-0.09-1.164c-0.331-1.104-0.271-2.323-0.479-3.46
		c-0.047-0.252,0.008-0.549,0.017-0.824c0.011-0.271,0.093-0.594,0.025-0.805c-0.226-0.705-0.123-1.252,0.16-1.874
		c0.146-0.325,0.167-0.872,0.122-1.287c-0.247-2.347-0.333-4.69-0.244-7.067c0.037-0.998-0.102-2.018-0.191-3.021
		C95.118,87.164,94.831,86.573,94.472,86.063z"/>
	<path d="M34.086,27.614c-0.087,0.04-1.554,0.496-1.562,0.599c-0.143-0.038-0.311,0.372-0.027,0.505
		c0.343,0.157,0.735,0.26,1.119,0.345c3.18,0.706,5.585,4.576,8.174,6.167c1.199,0.735,2.17,1.588,2.702,2.744
		c1.016,2.205,2.128,4.386,3.087,6.607c0.345,0.797,0.383,1.676,0.535,2.52c0.114,0.634,0.194,1.271,0.275,1.907
		c0.032,0.264,0.075,0.534,0.037,0.793c-0.391,2.611-1.223,5.138-2.382,7.593c-0.326,0.689-0.875,1.32-1.398,1.94
		c-0.207,0.245-0.613,0.532-0.939,0.54c-1.273,0.026-1.994,0.741-2.585,1.397c-0.856,0.952-1.969,1.389-3.32,1.654
		c-0.98,0.191-6.085,3.512-7.061,3.729c-0.444,0.099-0.919,0.114-1.382,0.163c-0.386,0.04-0.792,0.025-1.152,0.116
		c-0.349,0.092-0.675,0.151-0.937-0.06c-0.453-0.361-1.013-0.346-1.519-0.228c-2.09,0.487-2.858,0.447-5.023,0.577
		c-0.722,0.044-1.412,0.345-2.126,0.501c-1.232,0.271-1.869,0.152-3.212,0.278c-0.528,0.048-7.278-0.156-7.802,0.133
		c-0.552,0,2.045-2.667,1.395-2.667c0-0.548,1.573-3.022,1.573-3.61c-0.311,0.174,0.137-0.366-0.093-0.238
		c-0.019-0.022-0.153-0.492-0.216-0.377c-0.207-0.381-0.413-0.767-0.634-1.179c0.524-0.233,0.97-0.482,1.465-0.643
		c2.442-0.798,6.763-1.177,9.938-1.849c2.531-0.531,4.938-0.771,7.375-0.954c0.066-0.006,0.138,0.005,0.204-0.005
		c3.104-0.512,5.611-2.382,8.684-3.037c1.076-0.228,1.803-0.721,2.207-1.51c1.582-3.092-0.064-5.347-0.656-6.822
		c-0.627-1.554-1.4-4.364-3.198-5.177c-3.726-1.688-7.736-3.487-12.021-3.453c-1.552,0.013-4.893-1.055-6.32-0.496
		c-0.473,0.186-0.928,0.292-1.516,0.27c-0.63-0.025-2.278,0.501-3.492-0.208c-0.598-0.27,0.561-3.084-0.309-4.534
		c0-0.418-0.087-0.748,0.02-1.034c0.215-0.576,0.3-1.102,0.012-1.701c-0.282-0.586-0.422-3.695,0.176-4.064
		c1.384-0.852,1.726-0.457,3.339-0.809c2.328-0.507,5.258-0.061,7.467-0.484c2.238-0.277,1.773-0.173,3.543-0.708
		c2.328-0.891,1.427-0.653,2.886-1.211c2.147-0.819,3.894-2.339,3.865-2.631c0.663-1.669,0.496-1.103,0.393-2.482
		c-0.1-1.357-0.878-1.722-2.04-2.689c-1.441-1.2-3.369-1.521-5.306-2.252c-6.036-1.923-4.938-2.113-6.962-1.709
		c-1.417,0.305-2.517,0.032-3.946,0.406c-0.536,0.141-5.023,1.563-5.261,1.213C9.849,11.034,9.753,8.05,10.5,6.871
		c0.362-0.573-0.274-1.27-0.709-1.914c0.212-0.461,0.003-0.862,0.27-1.439c0.597-0.231,0.622,0.059,1.111-0.325
		c0.865-0.675,4.879-1.981,5.949-1.921c1.857,0.1,3.614-0.71,5.407-0.514c7.829,0.855,7.595,2.639,9.637,3.682
		c3.042,1.555,5.626,3.5,7.456,6.014c0.867,1.192,1.065,2.52,1.307,3.84c0.163,0.898,0.268,1.802,0.444,2.699
		c0.231,1.178,0.052,2.349-0.089,3.515c-0.048,0.403-0.327,0.816-0.61,1.17c-0.76,0.948-2.571,2.738-3.42,3.351
		c-0.594,0.43-1.079,1.142-1.688,1.562C35.167,26.859,35.266,27.084,34.086,27.614z"/>
	<path d="M226.542,22.472c0-6.963-0.002-13.927,0.002-20.89c0-0.375,0.004-0.751,0.069-1.122c0.068-0.39,0.462-0.533,1.048-0.425
		c0.279,0.053,0.547,0.135,0.82,0.202c2.145,0.521,4.299,1.032,6.436,1.567c0.52,0.13,0.976,0.359,1.482,0.51
		c0.238,0.07,0.535,0.086,0.807,0.084c1.438-0.001,1.829,0.219,1.915,1.13c0.031,0.311,0.021,0.625,0.018,0.937
		c-0.018,5.463-0.086,10.927-0.035,16.391c0.039,4.305,0.199,8.61,0.358,12.916c0.148,3.992,0.401,7.984,0.554,11.974
		c0.141,3.713,0.235,7.427,0.303,11.138c0.044,2.432,0.004,4.864,0,7.294c0,0.125-0.002,0.25-0.019,0.376
		c-0.096,0.752-0.298,0.937-1.471,1.033c-1.793,0.143-3.596,0.236-5.396,0.338c-1.219,0.068-2.436,0.111-3.653,0.169
		c-1.582,0.074-1.957-0.091-2.084-1.077c-0.094-0.71-0.021-1.428-0.08-2.142c-0.064-0.777-0.209-1.553-0.293-2.33
		c-0.08-0.716-0.175-1.433-0.18-2.149c-0.021-3.31-0.003-6.619-0.03-9.927c-0.004-0.747-0.271-1.503-0.166-2.24
		c0.126-0.905-0.056-1.79-0.078-2.684c-0.16-7.022-0.273-14.048-0.399-21.072C226.494,22.472,226.517,22.472,226.542,22.472z
		 M228.449,53.354c-0.197-0.105-0.318-0.188-0.467-0.231c-0.043-0.012-0.256,0.128-0.245,0.139c0.092,0.091,0.202,0.181,0.342,0.239
		C228.119,53.517,228.265,53.428,228.449,53.354z M235.845,3.052c-0.08-0.01-0.16-0.021-0.242-0.03
		c-0.008,0.047-0.021,0.096-0.019,0.144c0,0.004,0.102,0.023,0.12,0.012C235.761,3.144,235.8,3.097,235.845,3.052z M230.916,20.554
		c-0.008-0.025-0.018-0.05-0.024-0.075c-0.055,0.018-0.112,0.037-0.166,0.058c0.027,0.017,0.055,0.045,0.088,0.048
		C230.844,20.588,230.88,20.566,230.916,20.554z M227.228,22.903c-0.027,0.016-0.072,0.03-0.075,0.047
		c-0.003,0.02,0.032,0.042,0.048,0.064c0.043-0.025,0.084-0.051,0.127-0.074C227.292,22.928,227.26,22.915,227.228,22.903z"/>
	<path d="M120.626,82.229c-0.001,16.358-0.328,32.718,0,49.076c0.062,3.102,2.297,5.696,5.155,5.696
		c2.762,0,5.217-2.593,5.154-5.696c-0.328-16.358-0.002-32.718,0-49.076c0-3.105-2.346-5.696-5.154-5.696
		C122.971,76.533,120.626,79.124,120.626,82.229L120.626,82.229z"/>
	<path d="M109.084,80.425c0-0.305-0.018-0.518,0.004-0.709c0.138-1.252,0.312-2.488,0.418-3.756
		c0.102-1.197,0.481-1.747,1.167-1.758c0.36-0.006,0.717-0.043,1.075-0.043c0.959-0.001,1.915-0.055,2.877,0.031
		c1.725,0.151,3.404-0.17,5.118-0.082c2.778,0.146,5.484-0.344,8.233-0.45c0.982-0.038,1.977-0.011,2.962-0.034
		c0.719-0.021,1.438-0.031,2.147-0.124c1.865-0.249,3.763-0.162,5.65-0.146c0.181,0.002,0.365,0.033,0.543,0.104
		c0.195,0.075,0.332,0.323,0.397,0.662c0.031,0.154,0.052,0.314,0.064,0.474c0.115,1.271,0.231,2.544,0.344,3.814
		c0.021,0.264,0.035,0.53,0.031,0.791c-0.005,0.52-0.152,0.877-0.432,0.985c-0.254,0.099-0.521,0.158-0.788,0.174
		c-1.698,0.105-3.378,0.373-5.106,0.209c-1.022-0.098-2.024,0.13-3.042,0.173c-0.656,0.026-1.318-0.009-1.978-0.023
		c-0.181-0.001-0.367-0.049-0.543-0.024c-1.866,0.248-3.769,0.098-5.655,0.117c-1.916,0.02-3.836-0.037-5.756-0.055
		c-0.392-0.003-0.778,0.032-1.166,0.03c-0.601-0.004-1.201-0.032-1.803-0.037c-0.509-0.002-1.018,0.024-1.527,0.01
		c-0.959-0.028-1.923-0.073-2.886-0.125C109.353,80.628,109.264,80.533,109.084,80.425z"/>
	<path d="M140.643,134.117c-0.011,0.284-0.001,0.483-0.026,0.659c-0.176,1.17-0.385,2.317-0.529,3.5
		c-0.136,1.117-0.519,1.623-1.173,1.615c-0.342-0.002-0.685,0.022-1.027,0.015c-0.916-0.021-1.831,0.008-2.748-0.095
		c-1.644-0.185-3.261,0.076-4.892-0.047c-2.647-0.201-5.25,0.191-7.88,0.228c-0.943,0.013-1.89-0.036-2.832-0.035
		c-0.686,0-1.376-0.007-2.056,0.062c-1.792,0.188-3.601,0.063-5.404,0.004c-0.17-0.006-0.346-0.039-0.515-0.108
		c-0.186-0.075-0.309-0.31-0.358-0.628c-0.024-0.145-0.038-0.297-0.044-0.442c-0.068-1.192-0.137-2.382-0.199-3.573
		c-0.012-0.246-0.015-0.498-0.004-0.739c0.021-0.484,0.175-0.814,0.447-0.908c0.247-0.088,0.502-0.138,0.759-0.147
		c1.626-0.056,3.239-0.266,4.883-0.07c0.974,0.113,1.94-0.074,2.911-0.092c0.629-0.011,1.26,0.041,1.888,0.067
		c0.175,0.009,0.35,0.058,0.52,0.039c1.789-0.188,3.603-0.006,5.406,0.022c1.83,0.024,3.664,0.125,5.498,0.185
		c0.371,0.013,0.741-0.013,1.112-0.001c0.574,0.02,1.146,0.057,1.72,0.077c0.486,0.016,0.973,0.003,1.459,0.026
		c0.918,0.049,1.836,0.115,2.754,0.187C140.39,133.921,140.475,134.011,140.643,134.117z"/>
	<path d="M4.315,67.826c-0.909-0.204-1.239-0.597-1.3-1.794c-0.098-1.94-0.035-3.359-0.029-5.31
		c0.034-9.465,0.078-18.931,0.155-28.399C3.2,24.884,3.311,17.441,3.415,9.999c0.033-2.331,0.113-4.664,0.183-6.995
		c0.013-0.45,0.054-0.906,0.13-1.346C3.826,1.074,4.129,0.731,4.57,0.664c0.28-0.041,0.562-0.035,0.841-0.031
		c2.241,0.043,4.48,0.094,6.722,0.138c1.041,0.02,1.292,0.319,1.254,1.708c-0.078,2.796-0.208,4.845-0.257,7.446
		c-0.071,4.014-0.204,9.634-0.231,16.912c-0.022,5.408,0.396,9.177,0.479,14.576c0.044,2.847-0.164,7.317-0.028,10.156
		c0.187,3.854,0.056,8.269-0.093,14.327c-0.007,0.3-0.032,0.604-0.079,0.9c-0.11,0.715-0.386,1.1-0.901,1.214
		c-0.331,0.073-0.675,0.101-1.007,0.091c-2.074-0.066-4.146-0.149-6.218-0.23C4.771,67.86,4.493,67.836,4.315,67.826z"/>
	<g>
		<polygon points="68.364,128.079 68.401,128.03 68.316,128.034 		"/>
		<path d="M71.101,99.255c-0.004-0.354-0.039-0.709-0.082-1.061c-0.129-1.062-0.263-2.119-0.406-3.178
			c-0.125-0.906-0.211-1.817-0.406-2.722c-0.403-1.88-0.854-3.758-1.31-5.634c-0.496-2.055-1.111-4.096-1.876-6.116
			c-0.346-0.913-0.827-1.801-1.497-2.647c-0.884-1.117-1.914-2.185-3.064-3.205c-0.39-0.348-0.883-0.627-1.533-0.732
			c-0.912-0.15-1.847-0.279-2.784-0.34c-0.943-0.061-1.293,0.152-1.361,0.723c-0.043,0.354-0.027,0.708-0.027,1.062
			c-0.001,16.088-0.001,32.178-0.001,48.266l-0.004,0.002v6.637h0.006c-0.001,2.527-0.002,5.058-0.001,7.586
			c0,0.176-0.002,0.355,0.022,0.529c0.074,0.512,0.287,0.689,1.088,0.779c0.686,0.076,1.391,0.096,2.091,0.123
			c1.151,0.048,2.304,0.092,3.459,0.115c1.402,0.029,2.807,0.033,4.208,0.047c0.122,0.002,0.249-0.01,0.37-0.023
			c0.318-0.037,0.527-0.158,0.568-0.352c0.05-0.225,0.066-0.453,0.067-0.682c0.009-0.961,0.002-1.922,0.015-2.885
			c0.004-0.328,0.041-0.654,0.067-0.984c0.049-0.58,0.128-1.16,0.155-1.739c0.101-2.253,0.186-4.501,0.282-6.751
			c0.008-0.178,0.052-0.352,0.067-0.529c0.056-0.556,0.118-1.109,0.154-1.666c0.103-1.566,0.194-3.133,0.294-4.699
			c0.007-0.126,0.045-0.252,0.062-0.377c0.049-0.455,0.106-0.908,0.141-1.361c0.105-1.312,0.2-2.627,0.299-3.94
			c0.009-0.126,0.052-0.252,0.066-0.379c0.048-0.401,0.104-0.806,0.133-1.209c0.099-1.414,0.128-2.832,0.305-4.243
			c0.117-0.934,0.188-1.868,0.206-2.804c0.005-0.229,0.044-0.455,0.067-0.683c0.056-0.604,0.146-1.211,0.161-1.814
			C71.129,101.329,71.114,100.291,71.101,99.255z M68.364,128.079l-0.048-0.045l0.085-0.004L68.364,128.079z"/>
	</g>
	<g>
		<polygon points="69.112,108.599 69.14,108.624 69.136,108.565 		"/>
		<path d="M102.184,99.954c-0.219-0.023-0.439-0.006-0.658-0.001c-10.275,0.262-20.552,0.524-30.827,0.788
			c-0.172,0.002-0.347,0.008-0.517,0.018c-0.095,0.004-0.188,0.02-0.281,0.043c-0.187,0.051-0.309,0.238-0.358,0.564
			c-0.022,0.16-0.038,0.322-0.053,0.486c-0.01,0.131-0.022,0.258-0.036,0.383l-0.184-0.016c0.021-0.244,0.047-0.49,0.054-0.738
			c0.013-0.422-0.083-0.617-0.326-0.664c-0.14-0.029-0.282-0.025-0.423-0.021c-1.911,0.047-3.821,0.098-5.735,0.146
			c-0.106,0.002-0.217,0.004-0.325,0.023c-0.316,0.059-0.422,0.203-0.464,0.745c-0.034,0.462-0.036,0.937-0.043,1.407
			c-0.009,0.777-0.018,1.553-0.014,2.33c0.007,0.943,0.026,1.889,0.041,2.832c0.002,0.084,0.01,0.168,0.021,0.25
			c0.027,0.212,0.106,0.352,0.228,0.375c0.14,0.031,0.28,0.039,0.42,0.035c0.596-0.01,1.192-0.028,1.787-0.037
			c0.205,0,0.409,0.018,0.611,0.033c0.36,0.022,0.721,0.066,1.081,0.074c1.394,0.034,2.79,0.057,4.183,0.083
			c0.111,0.003,0.22,0.027,0.33,0.039c0.343,0.025,0.688,0.062,1.033,0.076c0.972,0.045,1.943,0.08,2.915,0.123
			c0.077,0.002,0.156,0.026,0.233,0.035c0.283,0.026,0.564,0.057,0.848,0.075c0.813,0.048,1.629,0.091,2.443,0.139
			c0.077,0.005,0.156,0.029,0.234,0.04c0.251,0.022,0.501,0.055,0.751,0.065c0.877,0.045,1.755,0.043,2.632,0.14
			c0.581,0.065,1.158,0.098,1.738,0.094c0.143,0,0.283,0.024,0.425,0.035c0.375,0.026,0.751,0.079,1.127,0.079
			c0.644,0.001,1.285-0.026,1.926-0.051c0.221-0.008,0.438-0.037,0.656-0.071c0.653-0.104,1.306-0.211,1.958-0.322
			c0.562-0.099,1.124-0.174,1.679-0.317c1.158-0.301,2.312-0.635,3.468-0.969c1.262-0.367,2.515-0.813,3.753-1.361
			c0.561-0.246,1.103-0.584,1.615-1.049c0.678-0.612,1.32-1.321,1.935-2.111c0.207-0.27,0.372-0.605,0.427-1.043
			c0.078-0.617,0.143-1.248,0.164-1.881C102.678,100.224,102.538,99.991,102.184,99.954z M69.112,108.599l0.024-0.033l0.004,0.06
			L69.112,108.599z"/>
	</g>
	<path d="M81.447,48.214c0.369,0.5,0.726,1.006,1.106,1.496c0.49,0.631,1.037,1.18,1.691,1.596c0.394,0.25,0.754,0.597,1.131,0.892
		c2.243,1.758,1.986,2.154,4.405,3.39c1.264,0.646,2.522,1.302,3.807,1.781c0.549,0.203,0.668,0.341,0.801,0.974
		c0.208,0.992,0.382,1.979,0.562,2.967c0.25,1.369,0.486,2.736,0.732,4.104c0.132,0.73,0.038,0.82-0.637,0.577
		c-1.072-0.388-2.148-0.749-3.221-1.165c-0.617-0.24-1.234-0.537-1.843-0.854c-3.514-1.836-4.512-2.3-7.978-4.377
		c-1.9-1.138-3.782-2.339-5.667-3.534c-0.956-0.607-1.864-1.322-2.71-2.154c-1.256-1.243-2.536-2.46-3.747-3.753
		c-0.808-0.856-1.533-1.812-2.264-2.751c-0.284-0.362-0.54-0.786-0.707-1.201c-0.388-0.958-0.723-1.929-1.056-2.898
		c-0.089-0.264-0.125-0.545-0.131-0.801c-0.035-1.108-0.117-2.235-0.051-3.3c0.064-0.985,0.222-1.948,0.466-2.84
		c0.368-1.358,0.846-2.653,1.285-3.967c0.067-0.201,1.022-2.223,1.147-2.377c0.965-1.19,3.461-3.229,4.406-4.438
		c0.959-1.229,2.289-1.961,3.57-2.758c0.412-0.255,0.872-0.442,1.279-0.707c0.567-0.362,1.238-0.52,1.905-0.694
		c2.269-0.591,4.588-1.736,6.757-2.537c0.859-0.317,1.79-0.496,2.677-0.759c0.85-0.251,1.69-0.53,2.532-0.801
		c0.544-0.172,0.668-0.101,0.92,0.603c0.688,1.911-0.32-0.71,0.369,1.203c0.479,1.324,0.646,1.772,1.137,3.098
		c0.333,0.897,0.498,1.199,0.822,2.098c0.225,0.62,0.186,0.766-0.327,0.887c-0.979,0.229-1.802,1.019-2.79,1.23
		c-1.727,0.37-3.483,0.666-5.159,1.142c-1.062,0.302-2.024,1.486-3.003,1.963c-1.203,0.589-2.391,1.204-3.568,1.835
		c-0.216,0.115-0.367,0.34-0.514,0.545c-0.307,0.435-1.26,1.158-1.523,1.627c-0.083,0.146-1.256,5.053-1.238,5.262
		c0.146,1.708,2.528,6.441,3.563,7.957C80.724,47.265,81.094,47.736,81.447,48.214L81.447,48.214z"/>
	<path d="M154.908,74.39c0.068,1.035,0.131,1.951,0.192,2.873c0.294,0.277,0.946,0.215,0.923,0.807
		c-0.019,0.492-0.067,1.021,0.301,1.604c1.082-0.989,0.287-2.092,0.527-3.151c0.543,0.459,0.19,1.026,0.407,1.483
		c0.222,0.47,0.302,0.986,0.435,1.45c0.309,0.145,0.565,0.268,0.791,0.372c0.332,1.877,0.606,3.715,1.009,5.53
		c0.151,0.691,0.604,1.334,0.907,2c0.129,0.283,0.39,0.606,0.315,0.854c-0.232,0.779,0.056,1.527,0.041,2.287
		c-0.012,0.608-0.085,1.253-0.33,1.817c-0.409,0.943-0.11,1.94-0.448,2.88c-0.058,0.147,0.127,0.376,0.239,0.547
		c0.148,0.221,0.402,0.424,0.212,0.694c-0.414,0.586-0.041,1.134,0.196,1.621c0.269,0.549,0.384,1.084,0.357,1.652
		c-0.058,1.229-0.017,2.471-0.459,3.666c-0.154,0.414-0.105,0.814,0.085,1.209c0.265,0.549,0.169,1.09,0.064,1.665
		c-0.125,0.696-0.034,1.425-0.018,2.14c0.007,0.309,0.166,0.633,0.086,0.916c-0.341,1.176-0.211,2.355-0.166,3.541
		c0.021,0.457-0.039,0.947-0.225,1.371c-0.433,0.988-0.285,2.026-0.477,3.031c-0.034,0.176,0.096,0.371,0.182,0.672
		c0.206-0.188,0.407-0.291,0.404-0.383c-0.046-0.865-0.211-1.729,0.411-2.535c0.159-0.21,0.046-0.572,0.23-0.865
		c0.037,0.137,0.106,0.275,0.108,0.412c0.029,1.238,0.055,2.477,0.06,3.71c0.003,0.358-0.044,0.722-0.105,1.078
		c-0.096,0.558-0.205,1.114-0.348,1.665c-0.047,0.182-0.209,0.344-0.334,0.508c-0.021,0.027-0.115,0.014-0.229,0.023
		c-0.436-0.869,0.097-1.811-0.237-2.998c-0.173,0.414-0.285,0.561-0.287,0.707c-0.006,0.827,0.01,1.654,0.029,2.479
		c0.004,0.149,0.009,0.354,0.115,0.439c0.729,0.577,0.464,1.336,0.475,2.006c0.014,0.854,0.098,1.619,0.885,2.245
		c0.369,0.292,0.499,0.687,0.369,1.138c-0.57,1.971-1.07,5.09-1.034,6.684c0.019,0.716,0.15,1.431,0.229,2.123
		c-0.834,0.74-1.622,1.443-2.842,1.621c-0.159,0.023-0.352,0.131-0.429,0.246c-0.396,0.6-1.139,0.73-1.775,1.022
		c-0.388,0.177-0.685,0.42-1.15,0.159c-0.087-0.049-0.356,0.018-0.438,0.102c-0.561,0.578-1.271,0.441-2.054,0.393
		c-0.227-0.782,0-1.45,0.435-2.094c-0.414-0.531-1.362-0.555-1.479-1.304c-0.037-0.241-0.497-0.446-1.013-0.206
		c0.164,0.34,0.333,0.689,0.507,1.047c-0.187,0.045-0.355,0.121-0.388,0.09c-0.237-0.221-0.566-0.438-0.644-0.707
		c-0.223-0.793-0.39-1.604-0.497-2.412c-0.814-6.092-0.721-11.629-0.453-17.955c0.189-4.438,0.117-8.883,0.312-13.321
		c0.204-4.706,0.006-9.397-0.185-14.095c-0.134-3.307-0.281-6.607-0.908-9.881c-0.059-0.306-0.065-0.619-0.071-0.928
		c-0.015-0.924-0.015-1.85-0.015-2.772c-0.001-0.638,0.289-1.064,0.988-1.109c1.758-0.114,3.523-0.153,5.287-0.187
		C154.265,74.063,154.546,74.258,154.908,74.39z M158.123,85.931c0.15-0.193,0.409-0.379,0.427-0.58
		c0.051-0.543-0.003-1.094-0.015-1.642c-0.064-0.243-0.164-0.485-0.185-0.731c-0.057-0.664-0.057-1.336-0.123-2
		c-0.02-0.188-0.178-0.387-0.426-0.229c0,0.542-0.033,1.047,0.011,1.549c0.037,0.402,0.145,0.81,0.278,1.197
		c0.034,0.103,0.287,0.147,0.438,0.229c-0.075,0.557-0.138,1.114-0.233,1.67c-0.029,0.188-0.141,0.371-0.203,0.557
		c0.006,0.062,0.013,0.13,0.018,0.193C158.111,86.071,158.118,86.003,158.123,85.931z M151.979,88.544
		c0.445-0.266,0.549-0.656,0.529-1.082c-0.041-0.873-0.041-1.742-0.532-2.559c-0.312-0.518-0.41-1.045,0.146-1.562
		c0.202-0.189,0.24-0.559,0.239-0.846c-0.004-0.508-0.096-1.012-0.146-1.52c-0.02-0.205-0.002-0.428-0.44-0.365
		c-0.16,0.52-0.463,1.055-0.471,1.595c-0.031,1.794,0.079,3.593,0.049,5.39c-0.012,0.514,0.352,0.707,0.672,0.989
		c-0.549,0.394-0.465,0.827-0.046,1.481C151.979,89.424,151.979,88.985,151.979,88.544z M157.785,93.401
		c0.258,0.229,0.447,0.317,0.454,0.416c0.045,0.615,0.085,1.233,0.062,1.85c-0.065,2.104-0.161,4.207-0.25,6.311
		c-0.004,0.153-0.04,0.309-0.029,0.463c0.029,0.512,0.304,0.871,0.935,0.996c0.121-1.119,0.514-2.205,0.435-3.349
		c-0.043-0.604,0.078-1.228,0.221-1.827c0.184-0.777,0.268-1.537-0.229-2.246c-0.27-0.383-0.314-0.75-0.219-1.176
		c0.063-0.291,0-0.597,0.012-0.895c0.013-0.297,0.031-0.592,0.08-0.885c0.038-0.252,0.183-0.496,0.177-0.742
		c-0.041-1.153-0.279-2.285-0.638-3.531c-1.046,1.225-0.226,2.566-0.796,4.07c-0.176-0.631-0.302-0.912-0.331-1.2
		c-0.069-0.771-0.176-1.544-0.129-2.312c0.059-0.928-0.43-1.81-0.202-2.757c0.063-0.28-0.372-0.629-0.501-0.967
		c-0.118-0.312-0.133-0.652-0.19-0.979c-0.109,1.139-0.148,2.256-0.099,3.373c0.043,0.975,0.213,1.944,0.264,2.918
		c0.054,1.024,0.042,2.055,0.042,3.079c0,0.589,0.106,1.142,0.679,1.898C157.625,94.966,157.693,94.315,157.785,93.401z
		 M150.542,94.026c0.079-0.543,0.155-0.83,0.155-1.115c-0.001-0.512-0.143-1.032-0.059-1.531c0.237-1.428,0.278-2.861,0.27-4.295
		c-0.01-1.588-0.166-3.178-0.255-4.766c-0.03-0.512-0.062-0.996-0.425-1.469c-0.36-0.476-0.503-1.06-0.123-1.615
		c0.264-0.385,0.091-0.656-0.229-0.959c-0.371-0.349-0.498-0.729,0.179-0.974c-0.084-0.11-0.152-0.305-0.257-0.319
		c-0.543-0.084-0.888,0.119-0.89,0.521c-0.001,0.358,0.048,0.718,0.091,1.075c0.252,2.045,0.529,4.084,0.508,6.146
		c-0.008,0.975,0.037,1.951,0.104,2.926c0.125,1.896,0.272,3.791,0.44,5.686C150.066,93.497,150.264,93.647,150.542,94.026z
		 M150.429,98.39c0.127-0.221,0.271-0.377,0.309-0.549c0.223-1.011-0.334-1.992-0.172-3.008c0.018-0.107-0.125-0.236-0.24-0.436
		c-0.169,0.176-0.371,0.299-0.35,0.377c0.186,0.697,0.204,1.369,0.017,2.082C149.868,97.335,150.001,97.865,150.429,98.39z
		 M156,98.421c0.047-0.539,0.113-0.941,0.104-1.344c-0.006-0.258-0.156-0.482-0.647-0.389C155.366,97.263,155.208,97.845,156,98.421
		z M158.052,88.341c0.081,0,0.162,0,0.242,0.002c0-0.234,0.005-0.471-0.004-0.705c-0.002-0.035-0.072-0.096-0.109-0.096
		c-0.042,0-0.12,0.055-0.122,0.086C158.048,87.864,158.052,88.103,158.052,88.341z M156.582,105.931c0.035,0,0.066,0,0.101,0
		c0-0.229,0-0.461,0-0.688c-0.033,0-0.064,0-0.101,0C156.582,105.47,156.582,105.7,156.582,105.931z M159.471,104.987
		c0.08,0.012,0.162,0.022,0.246,0.035c-0.026-0.289-0.057-0.576-0.086-0.865c-0.053,0.004-0.106,0.008-0.16,0.01
		C159.471,104.44,159.471,104.715,159.471,104.987z M155.496,104.589c0.021,0,0.037,0,0.06,0c0-0.184,0-0.369,0-0.553
		c-0.021,0-0.039,0-0.06,0C155.496,104.22,155.496,104.405,155.496,104.589z M158.81,87.712c0.059-0.076,0.155-0.148,0.163-0.227
		c0.011-0.088-0.061-0.182-0.097-0.272c-0.083,0.087-0.205,0.165-0.23,0.265C158.628,87.54,158.75,87.633,158.81,87.712z
		 M151.826,91.378c0.034-0.011,0.09-0.012,0.098-0.033c0.017-0.035,0.007-0.082,0.009-0.127c-0.054,0.014-0.105,0.027-0.158,0.042
		C151.79,91.299,151.808,91.339,151.826,91.378z M151.588,78.021c0-0.082,0.001-0.166-0.005-0.252c0-0.002-0.067,0-0.104,0
		c-0.002,0.084-0.002,0.168-0.002,0.252C151.512,78.021,151.551,78.021,151.588,78.021z M158.518,110.644
		c-0.038,0.034-0.11,0.07-0.108,0.103c0.008,0.091,0.047,0.18,0.072,0.269c0.038-0.033,0.106-0.07,0.106-0.104
		C158.58,110.819,158.542,110.731,158.518,110.644z M158.191,105.644c-0.017-0.047-0.029-0.092-0.043-0.141
		c-0.033,0.037-0.084,0.072-0.09,0.111c-0.009,0.045,0.022,0.092,0.038,0.139C158.128,105.716,158.16,105.681,158.191,105.644z
		 M149.812,75.425c-0.048-0.09-0.095-0.177-0.142-0.268c-0.045,0.035-0.121,0.07-0.122,0.107c-0.007,0.092,0.021,0.188,0.037,0.279
		C149.661,75.506,149.737,75.466,149.812,75.425z M150.396,100.999c-0.08-0.055-0.157-0.109-0.244-0.156
		c-0.008-0.004-0.066,0.061-0.103,0.094c0.082,0.058,0.164,0.113,0.244,0.172C150.33,101.071,150.363,101.035,150.396,100.999z
		 M155.705,99.245c-0.018-0.076-0.038-0.159-0.059-0.236c-0.046,0.023-0.127,0.047-0.127,0.07c0,0.082,0.028,0.165,0.047,0.249
		C155.611,99.3,155.66,99.272,155.705,99.245z M151.421,76.211c-0.026,0.224-0.053,0.356-0.055,0.487c0,0.031,0.082,0.06,0.126,0.09
		c0.054-0.107,0.134-0.213,0.151-0.327C151.652,76.409,151.543,76.341,151.421,76.211z M150.403,99.503
		c0.015-0.036,0.027-0.07,0.04-0.104c-0.048,0.023-0.097,0.048-0.146,0.072C150.333,99.481,150.369,99.493,150.403,99.503z
		 M160.339,98.771c-0.034,0.01-0.091,0.008-0.104,0.026c-0.023,0.035-0.021,0.081-0.028,0.122c0.061-0.011,0.119-0.021,0.181-0.031
		C160.371,98.851,160.355,98.81,160.339,98.771z M155.566,100.384c0.045-0.029,0.131-0.064,0.125-0.086
		c-0.024-0.083-0.074-0.16-0.116-0.24c-0.039,0.033-0.118,0.068-0.114,0.096C155.48,100.231,155.529,100.306,155.566,100.384z
		 M158.509,112.948c0.014-0.039,0.027-0.078,0.043-0.117c-0.049,0.025-0.099,0.05-0.146,0.074
		C158.439,112.92,158.476,112.933,158.509,112.948z M158.541,114.028c-0.021-0.037-0.043-0.074-0.063-0.111
		c-0.007,0.07-0.016,0.143-0.021,0.211C158.484,114.094,158.512,114.062,158.541,114.028z M158.537,115.255l-0.104-0.007
		l0.045,0.118L158.537,115.255z M153.022,75.138l0.138,0.06l0.019-0.101L153.022,75.138z"/>
</g>
</svg>
