<svg xmlns="http://www.w3.org/2000/svg" viewBox="0 0 319.9 3387.48"><title>OrangeShapesAsset 16</title><g id="Layer_2" data-name="Layer 2"><g id="Layer_1-2" data-name="Layer 1"><path d="M307,3387.48H245.15c-.71-5.84-2.17-11-1.82-15.94,9.44-132.61-4.27-263.42-27.37-393.9-8.67-49-15.82-99.48-14.08-148.94,4.42-125.22-18.62-245.28-55.55-363.75-31.14-99.89-63.07-199.56-92-300.08C37.16,2105.4,24.14,2044.68,11,1984.15c-21.47-98.69-10.94-194.38,27.3-288,24.94-61.06,48.36-123.16,55.92-189.3,3.46-30.29,3.5-61.22,2.31-91.75-2.22-57,.89-113.11,15.66-168.51,9.83-36.84,14.92-74.52,12.61-112.83a844.22,844.22,0,0,1,25.54-263.57c6.81-26.37,9.25-53.83,14.48-80.64,10.73-55-2.24-107-17.16-159.32-11.5-40.31-22.34-81-30-122.18-12.88-69.65-6.2-139.26,4.61-208.8,10.64-68.44,19.6-137.16,28.28-205.89,2.66-21.07,1.93-42.57,2.83-63.87.33-7.9.89-15.78,1.54-27.17C208.63-1.5,261.27.28,316.8,1.44,318,15.65,320,27.93,319.9,40.2c-.51,122-1.7,243.94-2,365.91Q316.67,832.07,316,1258q-1.53,584.9-3.39,1169.8c-.29,100.65-.18,201.3-.62,302q-1.41,317.93-3.29,635.87C308.69,3372.1,307.72,3378.57,307,3387.48Z"/></g></g></svg>