<svg xmlns="http://www.w3.org/2000/svg" viewBox="0 0 2496.29 206.52"><title>PinkShapesAsset 6</title><g id="Layer_2" data-name="Layer 2"><g id="Layer_1-2" data-name="Layer 1"><path fill="#FF3a40" d="M0,154.79C1,101.79-2.57,51.65,5.23.06c26,0,49.74-.19,73.5.1C88,.27,97.29,1.9,106.59,2.07Q249.44,4.68,392.3,7q101.89,1.84,203.77,4Q689,13,781.85,15q176.78,4,353.55,8c109.85,2.58,219.69,5.45,329.54,8q96.87,2.26,193.76,3.94,113.87,2.13,227.74,4,107.89,2,215.78,4,95.81,1.88,191.62,4c59.93,1.29,119.87,2.56,179.79,4.17,7.71.21,15.37,2.36,22.65,3.54l-34.64,91.49c-23,3.44-48.85,5.72-73.93,11.39q-74.85,16.94-149,37.11c-34.42,9.35-68.63,13.93-104.47,10.81-78.16-6.8-156.39-14.13-234.74-16.72-53-1.75-106.25,6.09-159.39,6.17-53.72.08-105.35-11-153.27-38-38.8-21.89-78.14-43.83-119.5-60-85.22-33.24-171.29-26.82-258-.66-98.7,29.77-198.61,55.53-298,83.11-56.61,15.71-112.19,7-167.53-6.9-36-9-71.56-22.18-109.64-16.32-30.88,4.76-61.74,10-92.29,16.45-21,4.46-41.18,3.61-60.84-3.83-36.7-13.91-74-26.77-109.35-43.61-43.13-20.54-88-22.62-132.87-15.18-74.09,12.29-147.54,28.5-221.27,43C13.22,153.94,8.68,154,0,154.79Z"/></g></g></svg>
