<svg xmlns="http://www.w3.org/2000/svg" viewBox="0 0 1129.64 671.9"><title>OrangeShapesAsset 8</title><g id="Layer_2" data-name="Layer 2"><g id="Layer_1-2" data-name="Layer 1"><path d="M163.52,110c8.62,2.46,14.42,3.86,20.05,5.77,40.51,13.71,81.95,14.69,124.35,12.71,49.84-2.32,99.89-1.39,149.82-.45,65.9,1.24,132,8,197.59,4.65,59-3,117.66-16.24,170.31-46.12,30.08-17.07,58.58-36.92,88.58-54.12C933.72,21.3,954.44,12.15,975,3c14-6.22,27.4-2.12,39.72,6,23.9,15.67,43.5,35.29,54.83,62,23.1,54.38,36.57,111.38,43.41,169.85,6,50.93,10.53,102,15.34,153.09,3.15,33.48.86,66.89-8.62,99-3.78,12.8-12.21,25.46-21.63,35.17-86.69,89.25-190.64,141.59-316.84,143.17-37.9.48-76-1.2-113.73-4.43-23.7-2-47-8.94-70.47-13.39-45-8.52-89.82-10.36-134.5,3-57.72,17.19-116,19-175.9,10.87C207.16,656.48,129,641.32,52.13,618.47c-16.94-5-26.76-14.26-33.75-30.35C-4.19,536.2-3.74,482.74,7.74,429.19c8.5-39.65,20.24-78.68,32.19-117.48,7.58-24.63,10.17-49.39,10.2-74.84,0-7.79.08-17.07,4-23.09,16.77-25.5,32.35-52.69,53.63-74C122.4,125.12,145.67,119.11,163.52,110ZM313.08,238.55c-10.2-8.45-22.12-6.8-34.09-6.28-42.43,1.84-84.81,6.83-127.22-2.52-11.87-2.62-27.77-2-34.57,10C100.27,269.56,81,299.12,81.85,335.65c1.12,48.64.56,97-10.45,144.91-3.28,14.27-.51,29.94-.51,43.82,5.44,3.8,8.44,6.59,12,8.26,52.32,24.73,104.56,49.64,157.14,73.78,29.15,13.38,60,16.8,91.75,12,32.46-4.94,64-12.17,95.75-33.41,10.26-31.59,21.65-66.27,32.75-101,6.07-19,4.09-37.83-.81-57-9.21-36.07-18.65-72.19-25.17-108.79-6.68-37.51-29.23-59.93-61.83-74.95-19.25-8.87-39.06-12.09-59.6-4.4ZM971.93,112c-11.86,4.35-20.69,6.74-28.74,10.7-23.31,11.48-46.16,23.91-69.46,35.4C795.35,196.76,714.12,226,625.39,226,573,226,540.16,254.9,514,295.45c-7.11,11-9.21,23.23-6.69,36.41,7.3,38.2,18.81,74.88,37.45,109.2,5.06,9.31,8.78,19.33,13.51,28.84,5,10,8.77,21,15.85,29.26,34.44,40,72.28,76.51,114.11,108.76,11.68,9,24.83,12.61,39.26,6.56,11.06-4.64,22.14-9.24,33.09-14.11,68.56-30.51,139.37-53.24,214.17-62.34,3.83-.47,7.52-2.2,14.64-4.37L1029.66,375l-97.31-64.7c26.13-31.77,61.47-52.76,84.64-87Z"/></g></g></svg>