<svg xmlns="http://www.w3.org/2000/svg" viewBox="0 0 2483.68 194.32"><title>PinkShapesAsset 8</title><g id="Layer_2" data-name="Layer 2"><g id="Layer_1-2" data-name="Layer 1"><path d="M2483.68,65.9v61.95c-9.3.62-17,1.59-24.62,1.57-39.21-.11-78.67-3.34-117.58,0-53.55,4.54-106.62,14.45-160,21-21.65,2.68-43.8,5-65.43,3.43-39.48-2.81-77.23,4.11-113.81,16.88-71.49,25-144.28,27.24-218.85,20-50.47-4.91-100.56-9.43-149.35-24.26-10.45-3.18-22.48-1.17-33.78-1.53-81.17-2.52-162.32-5.5-243.5-7.44-87.9-2.09-175.85-2.66-263.74-5a890.06,890.06,0,0,1-93.43-8c-43.63-5.82-86.36.91-129.18,6.58C788.61,161.89,707.12,175,625.17,184c-49.14,5.39-98-3.45-146.65-12.7-46.87-8.9-94.77-17.67-142.18-17.46-113.31.51-220-27.41-325.12-65-3-1.09-5.71-3.24-11.21-6.45L4.62,11.45c16.24,4.28,29.72,7,42.67,11.38,59.21,19.8,120,27.89,182.34,30.29,34.25,1.32,68.23,10.47,102.28,16.42C398.54,81.18,465,83.89,532.4,73.68c64.94-9.85,129.87-6.44,194.36,7.71C781.89,93.49,837.8,92,893.67,86c90.59-9.62,176.52-38.36,263.41-63.41,48.68-14,98.13-25.59,149.37-22,49.76,3.53,99.4,8.69,149.11,12.92,13.26,1.13,26.58,2.08,39.88,2.07,57.62,0,113.66,9.62,169.11,24.84,68.69,18.85,138.88,22,209.84,19.29,33.75-1.31,67.72,2.29,101.55,4.26a59.56,59.56,0,0,1,21.18,5.4c43.33,20.18,88.05,15.22,133.36,9.66,50.1-6.15,100.39-12.33,150.76-14.4,61-2.5,122.26-.76,183.4-.71C2470.42,64,2476.21,65.13,2483.68,65.9Z"/></g></g></svg>