<svg xmlns="http://www.w3.org/2000/svg" viewBox="0 0 898.61 1314.05"><title>GreenShapesAsset 15</title><g id="Layer_2" data-name="Layer 2"><g id="Layer_1-2" data-name="Layer 1"><path fill="#fede00" d="M607.76,1313.83C402.07,1320.9,270.87,1152.14,255.42,986c-2.34-25.18-5.52-50.41-5.64-75.63-.21-45.5-22.68-76.79-56.67-104.46C153.94,774,115.11,741,80.59,704.28,15.19,634.72-9.54,550.91,3.26,455.75c7.52-55.91,45.41-90.49,87-118.91,41.36-28.3,86.31-54,133.3-70.77C288,243.14,339.69,208.5,375.75,150.22c13-20.93,29.23-39.79,42.24-60.69,53-85.08,132.46-98.66,223-84.87,121.62,18.53,183.11,102.43,223.36,207.4,54.9,143.16,43.59,283-32,415.81-41.8,73.43-45,146.36-14.88,223.65,17.88,45.86,35.63,92.1,48.49,139.52C907.38,1143.93,833.08,1321,607.76,1313.83ZM769.2,242.39c-43.66-60.94-126.43-92.66-209-74.64-8.36,1.82-17.5.25-25.76,2.32-14.4,3.61-30.81,5.56-42.17,13.92C417.68,238.83,362,310,316.87,390.34c-13.94,24.84-31.3,47.78-47.43,71.36-18.76,27.42-39.57,53.63-56,82.34-6.8,11.86-8.8,29.74-5.88,43.36A438.4,438.4,0,0,0,303,781c28.58,33.68,44,70.5,46.55,114,3.91,66.6,8.1,133,40.66,194,44.12,82.65,98.44,149.95,204.81,137.37,30.56-3.61,60.1-15.8,90.12-24,40.62-11.11,59.2-39.81,69-79.24,21.26-85.51,15.75-170.23.77-255.78-10.29-58.77-26.29-118.21-8.73-178.1,25.93-88.46,26.72-178.57,23.43-269.5C767.55,363.95,769.2,308.09,769.2,242.39Z"/></g></g></svg>
