<svg xmlns="http://www.w3.org/2000/svg" viewBox="0 0 165.98 2482.91"><title>YellowShapesAsset 7</title><g id="Layer_2" data-name="Layer 2"><g id="Layer_1-2" data-name="Layer 1"><path d="M98.55,2482.91l-61.47-4.2c-1.56-21.36-2.9-41-4.45-60.61-3.36-42.39-10.51-84.85-9.43-127.12,1.73-67.81,9.23-135.45,13.61-203.21,2.49-38.54,5.13-77.16,5-115.74-.21-90.58-2.79-181.17-2.78-271.75,0-35.87,6.67-71.77,6.23-107.6-1.14-93.86-6.47-187.33-19-280.73-6.8-50.8-.91-103.64,2.45-155.35,3.92-60.44,12.31-120.58,17-181,5.83-75.84-7.79-149.9-22.09-224C13.19,697.36,2.86,642.54.29,587.62c-1.9-40.53,6-82.26,14.54-122.37,14.56-68,24-136.12,24.41-205.9.46-80.55,4.49-161.08,7.07-241.62.17-5.24,1.17-10.45,2-17.74H155.41c2.51,12.46,5.9,22.53,6.37,32.73,2,43.24,5.23,86.58,3.9,129.76-1.72,55.8-4.53,111.88-12.14,167.11-7.48,54.25-1.5,107.29,1.21,161.11,4.24,84.33,4.4,168.92,4.14,253.39a1229.25,1229.25,0,0,1-7.78,137.54c-9.51,82-18.79,164.27-34.22,245.28-12,63-9,124.62-.58,186.66a1174.52,1174.52,0,0,0,23.14,121.58c13,52.87,11.3,104.82,3.81,158.45-15.83,113.35-29.75,227.07-39.94,341-4,44.6,6.78,90.32,6.11,135.46-.88,59.83-7.8,119.55-9.52,179.39-2,67.77-1,135.63-1.35,203.45C98.52,2461.43,98.55,2469.93,98.55,2482.91Z"/></g></g></svg>