<svg xmlns="http://www.w3.org/2000/svg" viewBox="0 0 1553.1 2464.77"><title>OrangeShapesAsset 11</title><g id="Layer_2" data-name="Layer 2"><g id="Layer_1-2" data-name="Layer 1"><path fill="#fede00" d="M718.45.46c109.77-3.07,210.26,14.16,310.38,33.82,16.61,3.26,32.9,10.78,48,18.87,56.95,30.58,113.74,61.52,169.83,93.63,75.29,43.1,142.35,96.41,195.17,166,34,44.81,63.32,93.16,83.07,145.49,27.15,71.9,40.4,145.31,13.54,222.44-38.79,111.36-73.85,224-109.5,336.45-7,22.09-10.21,45.49-13.92,68.49-18.14,112.67-71.12,206.93-150.51,287.49-29,29.42-56.7,60.21-86.88,88.36-32,29.85-53.19,66.3-71.54,105-7.14,15.05-13.09,30.67-20.46,45.6-21.3,43.13-30.28,88.52-32.35,136.66-1.47,34.3-9.94,68.48-17.08,102.34-18.56,87.92-25.74,176.38-19.73,266.22,2.52,37.74-.62,75.84-1.05,113.78-.24,20.83-7.72,39.5-19.45,55.84-30.28,42.2-59.77,85.21-93.19,124.85-24.08,28.57-57.33,45.34-96.22,46.76-64.55,2.36-129.17,7.24-193.66,6-80.14-1.51-159.16-14.12-235.89-38.78-57.74-18.55-107.14-50.49-149.68-93.11a749.29,749.29,0,0,1-114.52-148.41A100.51,100.51,0,0,1,100.59,2153c-13.07-67.35-27.42-134.55-37.28-202.39C52,1873.08,64,1796.41,80,1720.43c20.31-96.41,54.4-187.92,96.24-276.95,32.26-68.64,50.76-141.58,61.61-216.54,3.82-26.37,8.49-52.62,13-78.89,4.75-27.48,2.33-54.24-5.51-81-20.75-70.83-59.07-132.24-100.58-192.21-27.3-39.44-55.08-78.75-79.25-120.11-71.27-122-85.26-250.48-38-384.48,7.74-22,17.21-43.35,26.18-64.88,24.55-58.89,68.76-99.77,124.09-127.89,42.07-21.38,86.7-37.7,130.12-56.44,27.52-11.88,54.74-24.49,82.41-36,29.48-12.28,59.24-23.88,89-35.39q37.26-14.41,74.88-27.91C594.72,7.18,636.13-1.89,679.55.33,694.84,1.12,710.21.46,718.45.46ZM782,107.26c-18,.85-36,1-53.87,2.67-51.76,4.87-103.09,10.91-152.32,30.19-53.33,20.89-108.12,38-161.68,58.35C371.9,214.52,329.61,231.1,289,250.89c-35.44,17.28-68,40.61-90.12,74.29C180.64,353,163.54,381.79,149,411.65c-22.12,45.53-34.44,93.59-28.09,145.14,11.25,91.31,53.14,168.06,111.59,237,27.55,32.51,57.85,62.95,83,97.2,54.9,74.82,87.17,159.88,104.61,250.67,3,15.58,4.92,31.13-.71,47.26-3.61,10.36-4.08,22.38-3.46,33.52a141.75,141.75,0,0,1-10.18,61.8c-3.43,8.55-5.18,17.83-7.15,26.9-9.27,42.7-3.25,85,4.61,127,10.88,58.24,6.07,115.27-9.91,172-20.87,74.13-53,143.7-84.7,213.48-14.89,32.73-31.37,65-43.42,98.73-26.6,74.57-23.62,150.75-5.49,226.63,3,12.43,10,25.05,18.42,34.81,55.8,64.88,113.72,127.5,193.75,163.92a233.53,233.53,0,0,1,28,15.44c23.66,15,49.1,23.86,77.31,23.47,27.24-.38,54.76,1.26,81.65-2.08,99.92-12.41,182.5-54.39,239.74-141.09,34.26-51.89,44.09-105.9,27.55-165.56-12.82-46.22-25.51-92.52-36.48-139.2-16.43-69.87-5.34-134.25,38.75-192.91,18.23-24.26,34.51-51.14,45.86-79.18,20.54-50.78,19.12-104.57,9.33-157.62-6-32.52,4.21-59.24,23.42-83.5,14.87-18.78,30-37.89,47.88-53.62,24.92-21.94,50.4-44.86,79.47-60a463.85,463.85,0,0,0,96.2-67.19c39.14-35.19,69.6-75.33,75.65-129.77a55.72,55.72,0,0,1,1.32-5.85c15.14-67.94,18.53-135.82.1-203.85-4.7-17.34-7.69-35.15-11.21-52.8-9.2-46.14-5.3-89.07,22.69-129.72,33.25-48.28,55.48-101.86,60.44-161.17,5.1-61-3.38-116.95-41.23-169.74-59.06-82.4-132.8-147-217-201.19-37.33-24-79.34-37.28-121.63-49.82C928.66,119.67,857.64,98.92,782,107.26Z"/></g></g></svg>
