<svg xmlns="http://www.w3.org/2000/svg" viewBox="0 0 140.93 3440.53"><title>GreenShapesAsset 3</title><g id="Layer_2" data-name="Layer 2"><g id="Layer_1-2" data-name="Layer 1"><path d="M87.66,3440.53H9.74c2-26.7,4.7-52.22,5.56-77.79,6.61-195.69,14.8-391.35,18.59-587.09q4.4-226.82-.74-453.78c-2.92-127.75-12.4-255.35-19.44-383-.37-6.79-6-13.14-7.44-20.05-2.53-12-9.52-28-4.5-36,29.4-46.58,18.55-98.77,20.27-147.7,4.41-125.06,1.82-250.35,2.4-375.55.9-195.12-1.16-390.33,4.6-585.31C31.79,680.8,55.25,588,59.17,494.44c5.29-126.16,1.41-252.75.12-379.14C58.91,77.52,54.06,39.78,51.1,0h71.2c3.81,47.41,9.45,94.75,11.05,142.24,3.75,111.18,9.06,222.49,7.18,333.64C138.62,589,128.62,701.94,122.58,815c-8.52,159.58-24,319.21-23.25,478.75,1.07,241,15,482,20.49,723.07,2.53,110.46-2.62,221.07-3,331.62-.38,122.45,3.78,245,.49,367.35-4.86,180.46-14.69,360.78-22.11,541.17-2.16,52.59-3.28,105.23-5.05,157.84C89.91,3422.59,88.69,3430.35,87.66,3440.53Z"/></g></g></svg>