<svg xmlns="http://www.w3.org/2000/svg" viewBox="0 0 834.38 465.39"><title>OrangeShapesAsset 9</title><g id="Layer_2" data-name="Layer 2"><g id="Layer_1-2" data-name="Layer 1"><path d="M12.52,7.76C17.69,5.85,22,4,26.39,2.69c21.27-6.31,35.79-2,44.7,18.36C81.38,44.64,90.72,69.4,95.22,94.58a451,451,0,0,0,32.24,104.68c10.54,23.66,30.48,40.36,51.7,54.41a317.8,317.8,0,0,0,123.65,48.76c28.41,4.8,55.12-3.18,78.72-16.8,36.81-21.24,73.32-43.76,106.77-69.82,35.08-27.33,66.05-59.88,99.48-89.4C611.2,105.73,634.74,85,660,66.73c24.62-17.75,53.46-23,83.78-17.86,5.24.89,10.57,1.32,15.88,1.77,47.11,4,74.54,33.13,74.69,80.44,0,14.51-2.22,29-3.53,44.77-10.93,6.27-20.93,12.79-31.58,17.93-18.59,9-37.18,18.16-56.48,25.38C665.26,248.17,599.14,294,540.64,352c-32.74,32.48-68.14,61.9-111.75,79.26-67.3,26.8-137.51,39.68-209.36,31.8-47.56-5.21-90.2-24.71-121.65-65C45.82,331.46,18.19,255.53,7.8,172.77c-4.39-35-6.32-70.29-7.67-105.52C-.66,46.73,2.07,26.11,12.52,7.76Z"/></g></g></svg>