<svg xmlns="http://www.w3.org/2000/svg" viewBox="0 0 846.55 966.23"><title>GreenShapesAsset 22</title><g id="Layer_2" data-name="Layer 2"><g id="Layer_1-2" data-name="Layer 1"><path fill="#32c97c" d="M815.75,725.09c-16.56,6.16-35.74,10.72-52.18,20.08-18.87,10.74-36.19,24.77-52.47,39.28-8.13,7.24-12.62,18.65-18.47,28.35-23.31,38.7-52.15,67.33-99.32,79.32-78.62,20-155.63,46.3-233.37,69.77-6.28,1.9-12.95,2.48-23,4.33-9.2-18-22-35.11-27-54.29-14.66-55.81-54.7-85.52-104.28-103.77C122.23,777.45,67.61,721.72,27.29,641.72-2.54,582.54-6.73,529.94,9,467.94c15.36-60.65,20.91-123.85,29.77-186.07,9.33-65.57,39.93-118.47,94.47-155.54,36.45-24.78,78.07-10.27,117.08-6.79,42.52,3.8,81.32-1.5,119.58-21.55,58.91-30.88,118-62.09,179.51-87.16C620.16-18,722.78,13.69,758.86,71.76c24.28,39.07,33.25,82.68,26,128.57-11.49,73.12-9.88,143.79,26.86,211.31C867.36,513.78,846.84,618.06,815.75,725.09ZM426.82,817.87c49.43.15,92.92-6.5,125.86-40.62,36.79-38.11,71.73-78,107.43-117.17,42.38-46.49,61.71-103.52,73.37-163.67,2.16-11.13,0-23.43-1.83-34.94C721.32,395.31,706,329.56,701,263c-5.89-78.37-66.83-142-145.74-147-49.34-3.15-87.32,12.69-117,50.46-23.46,29.83-47.17,59.61-68.25,91.1-16.37,24.47-37.89,36.06-65.62,44C264.3,313,223.76,326.08,187,345.32c-74.24,38.83-103.76,106.06-80.64,186.36,13.89,48.24,35.1,94.8,57.39,140,8.23,16.69,27.31,30,44.3,40,45.6,26.78,93.19,50.13,139.11,76.4C373.62,803.19,396.75,825.82,426.82,817.87Z"/></g></g></svg>
