<svg xmlns="http://www.w3.org/2000/svg" viewBox="0 0 1433.73 670.96"><title>PinkShapesAsset 5</title><g id="Layer_2" data-name="Layer 2"><g id="Layer_1-2" data-name="Layer 1"><path d="M1190,671c-41.19-1.1-80.56-10.85-119.41-22.81-52.26-16.08-104.83-31.87-159.87-32.16-41.8-.23-83.6,5.13-125.45,6.45-27.09.85-54.76,1.95-81.31-2.37-81.68-13.28-163.74-21.46-246.31-17.84-36.95,1.62-73.59,10.88-110.29,17.17-64.1,11-119.41-2.84-165.24-52.09-38.86-41.77-73-86.39-99.2-137.1C60,385.82,35.79,342.09,14.23,297.07-9.72,247.06-5,186.86,40.35,147.44,72.7,119.32,112.1,105,150,87.08c67.68-32,133.53-25.82,201.11-.2,33.95,12.87,69.45,23.45,105.2,29.35,50.25,8.3,99.17-4.56,146.6-20.94C653.87,77.69,704.2,58.35,755.11,40.7,785.93,30,817.8,30.82,849.87,35,888.22,40,926,34.27,962,21.76c105.46-36.72,208.34-23,310.83,11.83,22,7.48,44.31,14.58,67,19.49,25,5.43,44.14,18.51,58.27,38.92,31.47,45.46,42.61,95.65,31.46,150-3.6,17.51-10.3,34.36-14.7,51.74-2.59,10.21-4.7,20.84-4.88,31.32-1,56.7-3.84,113.47-17.9,168.43-22.41,87.57-74.9,148.74-164.52,173.2C1215.51,669.94,1202.54,669.62,1190,671Z"/></g></g></svg>