<svg xmlns="http://www.w3.org/2000/svg" viewBox="0 0 525.59 672.37"><title>PinkShapesAsset 4</title><g id="Layer_2" data-name="Layer 2"><g id="Layer_1-2" data-name="Layer 1"><path fill="#f6b2bd" d="M72.55,672.37,0,484l51.91-34.21q-8.12-54.23-16.19-108.19c-2.15-14.46-5.24-28.9-5.89-43.43-.4-8.89,1.08-18.94,5.1-26.73A552.89,552.89,0,0,1,69.25,213c16.75-24.52,21.72-51,18.2-79.74-1.54-12.52-4.16-24.91-5.83-37.42-7.11-53.19,21.18-87.34,78-94.43,80.9-10.1,166.77,36.73,200.24,111.24,17.47,38.89,44.33,67,82.2,85.84,27.93,13.89,51.74,33.61,67.65,60.49,8.17,13.8,15.91,30.57,15.85,46-.12,33.69-2.61,67.9-9.15,100.89-8.51,42.9-40.08,71.33-73.15,96.69-20,15.33-42.46,27.4-63.24,41.76-39.34,27.19-83.74,30.34-128.42,24-38.22-5.44-69.27-.65-96.8,29.86C131,624.52,101.94,646.22,72.55,672.37Z"/></g></g></svg>
