<svg xmlns="http://www.w3.org/2000/svg" viewBox="0 0 1121.55 462.47"><title>OrangeShapesAsset 14</title><g id="Layer_2" data-name="Layer 2"><g id="Layer_1-2" data-name="Layer 1"><path fill="#FF3a40" d="M1121.55,273.91c-16.79,48.42-36.91,91.19-81.87,118.67-48.42,29.6-100.51,49.51-154.95,62.79-23.53,5.74-49.18,2.13-73.56,5.21C759.1,467.17,710,455.9,663.32,435.24,613.94,413.39,561.74,404,509.6,393.05c-86.33-18.18-168.23-2.5-248.08,30.07-76.05,31-177,5-217.82-80.58-17.81-37.3-39-73.69-42.33-115.64-2.6-33-.86-66.44.24-99.64.53-16.11,9.65-28.84,22.59-38.4,72.91-53.87,152.71-83.4,245-70,53.36,7.78,106.81,14.91,160.24,22.23,36.13,5,71.69,2.24,106.91-7.33C589,19.49,642,6.13,697,3.83c23.29-1,46.66-1,69.86-3C845.63-5.83,908,27.52,961.76,80.62a978.87,978.87,0,0,1,69.52,77.11C1062,195.35,1091,234.4,1121.55,273.91Zm-127.7-31.69c-8.57-12.55-14.41-26.42-24.64-35.11-32.11-27.25-66.38-51.7-109.62-58.47-25-3.91-50-7.81-75.11-10.75-73-8.56-143.29-.47-208.51,36.39-10.42,5.89-21.29,11-32.09,16.22-23.06,11.13-46.22,11.89-69-.71-21-11.62-41.5-24-62.51-35.52-25.66-14.09-50.95-29.14-77.58-41.15C276.9,87,215.26,89.74,154,94.38c-9.52.72-20.44,7.49-27.23,14.73C112.26,124.55,99.87,142,86.94,158.87c-11.65,15.21-8.63,31-1.3,47,8.26,18.06,15.85,36.44,24,54.54,3.23,7.15,5.93,15.2,11.13,20.71C170,333.4,178.13,335.5,248.94,327.33c39.62-4.57,79.7-5.06,118.38-16.62a268.29,268.29,0,0,1,41-8.66c9.72-1.31,20.14-1.71,29.64.32,28,6,55.74,13,83.4,20.23,35.46,9.33,70.75,17.4,108,17.22,34.48-.16,69.13,2.94,103.42,7,45,5.3,89.71,10.1,135.29,9.51s78.56-24.92,112.32-48.49Z"/></g></g></svg>
