<svg xmlns="http://www.w3.org/2000/svg" viewBox="0 0 2922.91 810.95"><title>YellowShapesAsset 2</title><g id="Layer_2" data-name="Layer 2"><g id="Layer_1-2" data-name="Layer 1"><path fill="#fede00" d="M10.79,808.73c-1-11.2-2.43-19.64-2.53-28.09Q5.7,554.74,3.36,328.83C2.55,259.54,1,190.27,0,121c-.12-8.49,1-17,1.68-28.07C16.35,91,29.91,88,43.53,87.65c80.59-2,161.22-2.79,241.8-5.13C407.17,79,529,74.58,650.79,70.42,722,68,793.21,65.06,864.44,62.81q201.72-6.37,403.46-12.16c101.87-2.91,203.76-5.25,305.64-8,93.22-2.55,186.45-5,279.64-8.17,103.83-3.55,207.62-8.27,311.46-11.77,93.86-3.16,187.78-4.91,281.63-8.18,56.53-2,113-5.8,169.49-8.43,10.58-.49,21.26,1.43,31.86,1.12,76.56-2.24,153.11-4.8,229.66-7.15,5.87-.18,11.77.48,20.75.89,1.94,11.35,5.11,22.08,5.42,32.89,1.89,66.59,3.07,133.2,4.61,199.8,2.73,117.88,5.28,235.77,8.45,353.64,1.55,57.91,4.4,115.78,6.39,173.68.22,6.35-1.38,12.76-2.29,20.52-8,.8-14.48,1.89-20.94,2-70.6,1.38-141.21,3.19-211.82,3.77-213.93,1.77-427.86,2.86-641.78,4.58-113.94.92-227.87,2.82-341.81,3.9q-233.9,2.22-467.8,3.91-226.9,2-453.8,4.17c-117.27,1.17-234.53,2.75-351.8,3.89Q234.95,809.59,39,810.95C30.57,811,22.09,809.66,10.79,808.73Zm1280.9-326.55c-24.59-9.7-46.1-9.55-66.38-3.22-29.7,9.26-57.66,5.84-85.87-4.39-7.5-2.72-15.33-4.52-23-6.68-44.9-12.62-84.71-2.05-118.42,28.9-7,6.43-10.69,19.5-10.95,29.63-.57,22.39,8.43,42.09,20.2,61.54,8.9,14.71,14.22,32.79,16.53,50,3.54,26.29,2.67,53.14,4.48,79.69,1.85,27.19,16.53,44.11,43.49,45.74,41.88,2.53,84,1.67,124.39-11.77,20.82-6.93,41.07-10,62.6-4,7.81,2.17,16.4,1.56,25.82,2.31,4.32-25.16,5.11-47.19-4.84-68.71-8.95-19.34-16.56-39.36-26.53-58.15-16-30.25-14.1-57.79,6.11-85.64C1271.21,521,1280,502.36,1291.69,482.18Zm-1146-43.24,27.66-8.43c29.81-9.07,59.13-22.74,89.57-26,37.41-4.07,75.77,1.3,113.7.94,14.57-.14,29.09-4.84,42.44-7.24,4.51-17.29,6-31,11.57-42.82,16.55-35.14,15.43-70.71,7.57-107.48-7.16-33.49-11.62-67.28,6.41-99.43,1.12-2,.63-4.91,1.1-9.4-24.62,2.8-43.6,15-61.86,27.66-11.84,8.19-22.32,8.55-35.49,4.27-27.84-9.05-56.12-16.8-84.39-24.44-6.87-1.86-14.69-2.78-21.6-1.53-61,11.06-87.52,47.89-80.78,109.69,1.34,12.3.32,25.19-1.7,37.46-5.93,36-13.83,71.68-19,107.77C139.23,411.61,143.68,424.17,145.68,438.94ZM2441.17,685.11c11.37-30.11,2.66-242.76-10-260.7-10.22,6.75-21.35,12.65-30.72,20.63-16.13,13.75-34.17,21.54-55,18.09-35.36-5.84-70.33-14.09-105.73-19.63a288.8,288.8,0,0,0-58.9-3.31c-33.83,1.72-45.16,16.55-38.66,56.54,3,18.19,10.25,35.84,16.91,53.22,8.85,23.11,11.19,46.31,6,70.53-4.16,19.24-7.49,38.67-11.76,61,17.27-1,31.54-2.07,45.82-2.59,30.2-1.11,57.58-7.47,77.47-33.46,10.94-14.29,27.55-20.42,44.77-14.52,23.71,8.13,46.66,18.59,69.56,28.9C2407.53,667.33,2423.57,676.2,2441.17,685.11ZM994.75,402.65c3.46-5.69,5.91-8.17,6.6-11.06,10-42.09,21.37-83.94,29-126.46,5-27.86-.09-55.24-16.9-80-11.86-17.49-21.88-36.49-30.65-55.75-9.55-21-14-23-36.46-18-35.5,7.83-71.21,15.62-107.24,19.95C790.87,137,765.42,153.81,753,200.51c-6.55,24.6-10.11,51.42-7.85,76.59,3.12,34.86-2.56,67.45-11.58,100.27-3.26,11.86-6.38,23.75-9.94,37,32.41,3.57,57.36,1.69,75-28.06,14.83-25,36.76-45.67,52.74-70.1,21.36-32.65,56.08-30.28,87-41.15C959.7,317.7,967.76,363,994.75,402.65ZM1132,389.3c44.63,7.34,65.91-1.28,87.4-33.87,8.43-12.79,16.73-25.67,24.72-38.73,2.7-4.42,4.26-9.54,6.33-14.35l7.75,5,19.46,83.85,30.56-5.24c13.57-23.75,25.18-46.22,38.86-67.34,11.24-17.36,14.58-34.94,11-55.05-9-50.75-36.2-91.27-65.83-132.49-40.73-56.66-125.16-50-172.93-4.68-8.58,8.14-13.31,23.12-14.7,35.51-4.12,36.6,9.71,68.51,33.94,95,24.59,26.84,26.5,54.84,11.74,86.43C1143.44,358,1138.23,373.56,1132,389.3ZM2516.71,64.39c-7.07-2.41-14.27-6.32-21.83-7.19-41.33-4.74-82.45-3.32-122.68,8.15a41.41,41.41,0,0,0-18.11,11.57c-26.79,29.27-28.47,80.21-4.57,111.45,3.09,4,5.15,8.88,8.31,14.45-9.63,11.22-18.9,21.57-27.66,32.32C2296.87,276,2312.9,326.5,2364,335.46c31.12,5.46,63.38,6.81,95,6,24.69-.61,49.23-7.36,76.59-11.83Zm27.19,543.12c36.56,58.19,92.89,98.91,172.13,75.74,44.42-13,76-33.9,82-83.07,1-8.41,6.24-16.25,7.91-24.67,6.92-34.79,3-69.89-19.25-96.6-27.63-33.21-65-55.19-109.13-61.86-21.75-3.29-43.72-5.08-70.85-8.14l46.14,80.89ZM1479.47,145.88l3,4.28c-40.48,6.24-56.76,42.13-31.37,73.68,17,21.07,24.42,41.69,15,67.59-1.77,4.87-1.27,10.53-2.11,15.78-3.21,20.06,5.36,33.91,21.06,46,25.1,19.34,53.64,26.06,84.18,25.84,21.43-.15,42.86-2.33,63.53-3.55,10.05-38.75,12.69-72.89,10-107.71-1.2-15.78-2.22-32.12.47-47.55,7.47-42.86,1.25-81.45-26.55-116.3-9.71-12.17-19.53-17.6-34.11-12.24-20.58,7.57-41.8,14-61.22,23.88C1506.21,123.32,1493.36,135.61,1479.47,145.88Zm291.9,200.58c82.43,1,164.07,2.74,249.84-.74-6.77-26.08-11.87-47.23-17.76-68.15-17.9-63.52-44.32-122.76-89.29-172.18-11.37-12.49-22.66-26.37-41.47-25.57C1817,132.33,1764.93,291.35,1771.36,346.46Zm-350.6,310.27c13.18,8.84,22.89,15.61,32.84,22,51.29,32.86,105.82,58.29,168,56,53.22-2,69.78-15.26,84.89-60.53,11.11-33.3,17.92-68.22,24.51-102.82,12-63.25-25.74-110.8-89.48-131.07-8.57,9.75-20.37,19.75-27.88,32.32-28.54,47.74-30.16,99.63-20.29,152.8,1.86,10,3.21,20.1,5,31.34Zm840.91-312.28c-2.13-30-4-56.41-5.89-82.8-4.07-56.33-8.06-112.66-12.31-169-1.11-14.67-10.22-22.44-24.19-19.83-36,6.73-71,16.09-100.69,40.06-44.53,35.91-53,60.88-28.31,112,11.59,24.05,11.46,44.75,1.35,68.22-6.6,15.31-9.68,32.13-15.21,51.31ZM2811.2,308.3V59a116.17,116.17,0,0,0-77.65,12c-44.14,23.84-38.15,67.18-36.94,106.54-21.32,19.59-42.83,36.67-61,56.79-18,20-32.78,42.93-38.48,74Zm-966.06,376c29.37,3.88,53.82,5.56,77.57,10.6,37,7.85,68-6.07,98.43-23.36,15.8-9,23.07-22.7,22.8-41.34-.54-37.82.39-75.67-.29-113.49-.16-8.82-2-19.42-7.19-26C2021.76,472,2005,455,1990.74,439.19c-41.54-.11-60.42,12.88-68.52,48.71a236.5,236.5,0,0,0-5.43,59.36c.83,25.33-4.37,46.7-22.39,65.63-13.24,13.9-23.87,30.34-35.15,46C1854.78,665.11,1851.72,672.32,1845.14,684.31ZM545.26,118.83c0,12.21-1.26,24.5.22,36.46,5.82,47.08,3.27,92.64-16.66,136.83-9.24,20.49-14.72,42.75-21,64.46-2.31,7.94-2.08,16.62-3.3,27.53l80.72,37.19c32.79-40.79,54.13-83.15,53.9-134-.22-47.88-1.92-95.75-3.16-143.62-.18-7.12-1.45-14.22-2.58-24.8Z"/></g></g></svg>
