<svg xmlns="http://www.w3.org/2000/svg" viewBox="0 0 1227.07 1971.13"><title>PinkShapesAsset 3</title><g id="Layer_2" data-name="Layer 2"><g id="Layer_1-2" data-name="Layer 1"><path fill="#fede00" d="M124.51.1c6.93,0,12.11-.24,17.26,0q119.58,6.5,239.14,13.15c69.06,3.89,138.11,8,207.17,12,71,4,142.08,7.88,213.11,12,42.48,2.46,85,4.89,127.38,8.29,7.24.58,16.05,4.2,20.73,9.46,11.87,13.34,23.21,27.57,32.24,42.92,26.62,45.22,39.89,95.62,54.25,145.55,10.48,36.43,20.34,73.12,33,108.81,7,19.84,17.94,38.65,29.3,56.54,16.31,25.68,25.18,52.66,22.55,83.17-3.64,42.27,6.48,81.23,24,119.85,18.52,40.89,19.19,85.94,15.66,129.72-4.54,56.29-11.88,112.49-21.12,168.22-10.27,61.93-11,122.61,4.22,184.06,7.77,31.38,9.72,64.38,12.31,96.81,5.17,64.78,15.9,128.56,41.36,188.38,30.86,72.52,35,148.29,25.49,223.78-9.06,71.63-43.35,129.82-118.9,153.39-38.12,11.89-75.42,26.4-113.59,38.12-61,18.73-117.74,45.22-169.54,82.86a531.72,531.72,0,0,1-173.74,83.38c-48.15,13.18-95.41,13.86-143.82,3-56.44-12.68-113-24.87-170-35-44-7.78-88.54-9.65-133.24-4-19.11,2.43-38.52,2.48-57.8,3.5-46.39,2.46-92.78,4.85-140.77,7.35-.45-6.54-1.4-11.64-1.07-16.66q5.5-84.63,11.32-169.23,7.3-108.55,14.52-217.11c3.33-51.14,6.16-102.3,9.48-153.44,4.83-74.35,10.08-148.68,14.83-223,3.31-51.81,5.89-103.66,9.14-155.48,4.75-75.69,9.86-151.36,14.71-227.05,3.19-49.82,6-99.66,9.3-149.46,4.71-71,9.82-142,14.57-213,3.32-49.79,6.21-99.62,9.47-149.41q7.36-112.5,14.94-225C123.12,24.79,123.75,13,124.51.1ZM444.42,166.18l-.22-2.68c-27.77,2.62-56.75,1.07-83,8.74-50.32,14.68-99.23,34.31-148.52,52.43-35.56,13.07-50.15,45.66-62,76.6-12.49,32.6-17.89,68.06-25,102.55-10.12,48.86-9.31,96.32,18.75,140.67C158.56,567,170,591.19,182.46,614.76c24.24,45.92,43.92,93.52,37.23,146.75a708.94,708.94,0,0,1-20,101.6c-15.9,57.05-34.64,113.32-52.39,169.85-10.95,34.89-14,70-8.21,106.44,4.45,28.17,9.15,57.22,6.91,85.33-3.9,48.94-11.65,97.72-20.43,146.09-9.29,51.18-18.95,102-13.64,154.41,11.83,116.71,70,200.15,177.82,247.84,21.91,9.7,44.44,18,66.75,26.78,11.54,4.54,22.94,10.14,34.94,12.69,22.07,4.69,44.57,7.31,66.84,11.09,41.27,7,82.27,16.28,123.79,20.82,68.49,7.48,129.24-16,182.34-57.21,45.71-35.49,88.33-74.95,132.61-112.3,20.32-17.14,41.33-33.46,62-50.12,6.6-5.31,15.22-9.27,19.59-16,27.91-43,56.15-85.8,81.76-130.14,19.6-33.93,26.51-71.88,27.14-111.34.77-47.58-14.61-90.43-35.15-131.84-28.4-57.27-58.59-113.66-86.81-171-20.64-41.94-30.19-86.39-25.29-133.62,4.58-44.18,15.82-86.71,34.53-126.57,14.2-30.26,11.82-58.42,2.84-89-6.29-21.4-9.44-44.26-10.29-66.6-1.49-39.29,13.27-75.56,24.57-112.52,5.75-18.79,11.4-39.65,9-58.53-7.85-60.61-19.48-120.72-29.68-181-2.94-17.39-12.84-30.1-26.33-41-35.22-28.41-74.73-48.21-117.81-61.71-72.79-22.82-148.28-24-223.29-27.31C550.8,164.29,497.57,166.18,444.42,166.18Z"/></g></g></svg>
