<svg xmlns="http://www.w3.org/2000/svg" viewBox="0 0 1728.46 2026.08"><title>GreenShapesAsset 12</title><g id="Layer_2" data-name="Layer 2"><g id="Layer_1-2" data-name="Layer 1"><path d="M49.06.88c40.44,0,77.64-2.27,114.46.5,66.41,5,67.88,6.3,66,73.48-2.91,103.2-10.7,206.31-12,309.51-2.12,172.85,52.93,237.21,194.63,296,30.12,12.49,60.83,24,92.05,33.36,85.24,25.58,151,75.84,201.51,148.94,22.16,32.07,51.7,58.94,75.39,90.07A1112.48,1112.48,0,0,1,848,1051.51c14.73,24.42,24,52.11,37.95,77,34.5,61.5,79.54,109.31,151,131,109.19,33.21,218,70.68,332.9,70.52,88.94-.12,158.63,36.2,219.88,92.57,77.07,70.92,133.43,156.63,138.17,264.35,2.75,62.46-4.57,126.18-15.26,188-3.87,22.34-27.3,45.81-47.9,59.76-37.31,25.26-82.39,39.43-118.47,66-62.77,46.28-210.44,25.92-262.92-35.69-22-25.78-45.3-51.08-62.89-79.74-24.76-40.35-57.13-69.73-100.14-88.2-10.41-4.47-20.64-9.5-31.36-13.05-62.8-20.84-114.74-53.69-159.89-105.47C870,1610.88,788.22,1571,708,1530.46c-34.56-17.46-69.29-44.05-90.31-75.58-14.37-21.55-7.14-58.88-6.06-89,2.05-57.68,7.72-115.23,9.77-172.91,1.89-53-59.47-120.59-123.82-120.78-61.75-.18-125-10.83-184.74-27.33-63.93-17.65-126.3-11.9-190.06-9.82-39.85,1.3-79.93-4.72-122.78-7.65Z"/></g></g></svg>