<?xml version="1.0" encoding="utf-8"?>
<!-- Generator: Adobe Illustrator 16.0.3, SVG Export Plug-In . SVG Version: 6.00 Build 0)  -->
<!DOCTYPE svg PUBLIC "-//W3C//DTD SVG 1.1//EN" "http://www.w3.org/Graphics/SVG/1.1/DTD/svg11.dtd">
<svg version="1.1" id="Layer_1" xmlns="http://www.w3.org/2000/svg" xmlns:xlink="http://www.w3.org/1999/xlink" x="0px" y="0px" viewBox="0 0 100.654 80.468" enable-background="new 0 0 100.654 80.468"
   xml:space="preserve">
<path fill="#00d683" fill-rule="evenodd" clip-rule="evenodd" d="M11.623,33.001c0.843-0.98,1.965-2.488,2.775-3.593
  c0.408-0.458,0.759-1.01,1.198-1.471c1.432-1.505,2.884-2.992,4.22-4.374c1.191-0.528,2.166-1.167,3.225-1.369
  c0.976-0.187,1.764-0.71,2.796-1.016c1.151,0,1.637,0,2.97,0c1.425,0.253,2.406,0.521,3.188,0.584
  c1.32,0.044,2.349,0.332,3.068,0.387c0.512,0.261,1.618,0.506,2.236,0.822c0.881,0.145,2.003,0.418,2.633,0.479
  c0.578,0.251,1.413,0.183,1.838,0.368c0.887,0.191,1.839,0.208,2.463,0.099c0.317-0.034,1.519-0.043,2.137,0.039
  c0.819,0,1.452,0,2.34,0c0.327-0.215,0.732-0.33,0.818-0.563c0.526-1.42,1.793-2.228,2.74-3.452c0.43-0.893,0.907-1.896,1.396-2.895
  c1.458-2.983,3.308-5.79,4.101-9.074c1.284-2.549,2.567-5.098,3.856-7.656c0.522-0.113,0.973-0.21,1.464-0.316
  c1.072,0.67,2.118,1.365,3.204,1.989c1.103,0.633,2.196,1.335,3.384,1.75c1.4,0.491,2.185,1.815,3.614,2.283
  c1.344,0.526,1.93,0.819,3.169,1.529c0.683,0.392,1.851,1.567,2.562,1.8c0.815,0.393,2.017,1.556,3.164,2.111
  c1.57,0.762,3.136,1.536,5.186,2.54c0.505,0.584,1.341,1.551,2.487,2.877c0.418,0.828,1.003,2.09,1.351,3.512
  c0.332,1.357,1.196,2.583,1.832,3.865c1.123,2.266,2.445,4.425,3.058,6.941c0.293,1.204,1.082,2.286,1.582,3.294
  c0.062,0.79,0.11,1.426,0.159,2.064c0.693,1.761,1.911,3.314,2.088,5.279c0.96,1.447,0.804,3.012,0.491,4.723
  c-0.775,0.437-1.555,1.164-2.43,1.305c-1.634,0.264-2.969,1.092-4.384,1.791c-5.553,2.746-11.098,5.507-16.653,8.248
  c-1.273,0.627-2.444,1.451-3.908,1.705c-1.258,0.219-2.314,1.01-3.448,1.574c-9.387,4.67-18.771,9.342-28.163,14.002
  c-2.122,1.053-4.104,2.438-6.522,2.807c-1.562,0.787-3.117,1.589-4.691,2.352c-0.262,0.126-0.605,0.082-1.025,0.129
  c-0.174-0.373-0.487-0.766-0.529-1.185c-0.105-1.062-0.636-1.827-1.528-2.277c-4.396-2.22-8.808-4.409-13.232-6.573
  c-0.556-0.272-1.063-0.769-1.904-0.982c-1.043-0.504-2.043-1.001-3.678-1.359C6.183,67.031,4.05,65.97,1.8,64.851
  c-0.575-0.604-1.231-1.292-1.743-1.828c-0.261-1.105,0.44-1.695,0.718-2.814c0-0.906,0-2.184,0-3.446
  c0.29-0.613,0.561-1.186,0.863-1.825c0.041-1.366,0.67-3.423,0.987-4.043c0.486-1.582,1.036-2.62,1.097-3.386
  c0.338-0.999,0.624-1.519,0.748-1.966c0.385-0.974,1.853-3.088,2.479-4.045c0.712-1.437,1.552-2.729,2.106-3.797
  C10.066,36.247,10.774,34.764,11.623,33.001z"/>
</svg>
