<svg xmlns="http://www.w3.org/2000/svg" viewBox="0 0 915.15 684.67"><title>RedShapesAsset 6</title><g id="Layer_2" data-name="Layer 2"><g id="Layer_1-2" data-name="Layer 1"><path d="M0,214.61C52.72,169.76,100.79,123,154.92,84.75c40.12-28.32,90.29-34.35,140-27,27,4,53.6,10.62,80.65,13.9,10.48,1.27,22.65-1.32,32.36-5.81,29-13.42,57.21-28.51,85.61-43.19C565.58-14.63,632.38-5,694.59,45c5.11,4.1,9.11,9.67,13.32,14.8A1034.07,1034.07,0,0,1,857,302.53c18.94,43.27,38.42,86.31,58.17,130.63-7.71,14.76-12.87,30.57-22.74,42.51-42,50.8-85.79,100.1-128.15,150.61-49.08,58.51-112,67.83-181.33,50.78-45.86-11.28-91.63-23.9-136-40-39.32-14.24-78.69-18.67-119.68-15.66-13.95,1-28.08.47-41.88,2.39-20.09,2.79-35.85-4.27-51.32-16.35-33.24-26-65.65-52.64-87.31-89.58a120.91,120.91,0,0,1-14-34.86c-5.92-27.31-10.73-54.92-14.59-82.61a170.28,170.28,0,0,0-36.93-85Q48.69,275,16,234.63C11.42,229,7,223.35,0,214.61Zm218.08,49.87c2.17,26.65,3.36,55.11,7,83.25,5.25,40.05,16.41,78.07,43.28,110C325.75,526,396.79,563.81,487.79,561.1c21.28-.63,40.09-4.5,58.78-14.91,74-41.22,147.81-82.66,210.82-140.24,20.46-18.69,39.55-38.87,61.47-60.54-47.31-47.55-93.39-91.86-136.94-138.53-20.47-21.94-43.29-26.08-70.26-22.15-2.64.38-5.25.92-7.88,1.3-40.65,5.95-78.88,19.69-115.2,38.21-25.21,12.86-51,17.68-79,15.63-35.17-2.56-70.47-3.87-105.73-4.77C273.44,234.31,246.75,245.9,218.08,264.48Z"/></g></g></svg>