<svg xmlns="http://www.w3.org/2000/svg" viewBox="0 0 295.74 2547.62"><title>OrangeShapesAsset 15</title><g id="Layer_2" data-name="Layer 2"><g id="Layer_1-2" data-name="Layer 1"><path fill="#FF3a40" d="M2.3,3.39,48.7,0c3.55,6,6.83,10.17,8.76,14.93C88.61,91.59,117.82,169.1,132,250.87c8.07,46.43,11.5,93.76,15.17,140.83,3.89,49.76,6,99.67,8,149.56.77,19.2-.67,38.52-1.57,57.76-1.87,39.89-6,79.78-5.64,119.63q.93,91.85,7.05,183.62c3.27,50.2,15,99.29,37.21,144.45,27.17,55.29,35.72,113.89,39.3,174.1,1.86,31.26,4.93,62.44,6.7,93.7a245.73,245.73,0,0,1-.9,39.87c-4.46,41.74-9,83.49-14.82,125-6.46,45.9,2.09,88.31,22.55,129.7,21.58,43.63,39.58,88.82,46.16,137.72,9.46,70.27,3.22,139.26-12.76,208.18-16.39,70.72-30,142.09-44.24,213.3-3.51,17.59-4.68,35.66-6.82,53.52-4.3,36-12,71-30.13,102.91-31,54.48-63.76,108.15-72.82,168.12L48,2547.62c1-5.72,1.65-13.09,3.59-20.11,28.49-103.43,57.68-206.67,85.62-310.25,24.82-92,47.16-184.64,58.84-279.5,9.6-78-2.68-152.64-31.62-225.18-17.28-43.31-34.48-86.69-50.36-130.53-18.1-50-26-101.58-22.93-155.11,3.31-56.86-1.9-113.3-17.51-168.26-13.41-47.2-20-94.88-18.17-144.09C58.26,1041.49,48.3,969.91,29.67,899c-11.66-44.36-18.59-90-27.25-135.1C-2.45,738.59.6,713.4,6.53,688.62c10.39-43.42,22.15-86.52,31.9-130.08,19.69-88,15.47-175.83-.88-264-12.39-66.78-22-134.09-31.91-201.31C2.44,71.55,2,49.43.81,27.48.42,20.36,1.64,13.14,2.3,3.39Z"/></g></g></svg>
