<svg xmlns="http://www.w3.org/2000/svg" viewBox="0 0 588.19 1013.01"><title>GreenShapesAsset 24</title><g id="Layer_2" data-name="Layer 2"><g id="Layer_1-2" data-name="Layer 1"><path fill="#FF3a40" d="M582.18,839.25C563.46,774,544.93,708.73,524.49,644c-4-12.75-14.13-26.38-25.32-33.52-30.81-19.66-64.33-35-95.51-54.2-20.8-12.78-42.52-26.4-58.37-44.44-36.49-41.52-29.93-102.61,12.59-150.54,34.46-38.84,70.64-76.29,103.08-116.74,36.22-45.18,32.65-109.31-11.47-147.45C408,61.29,360.65,32.2,315.7,0c-5.36,5.1-8.62,7.42-10.91,10.47Q156.26,208.87,8.24,407.67C2.85,414.94.54,426.11.48,435.48-.06,532.1-.4,628.73.9,725.34,1,736.4,8.66,751,17.53,757.74,120.36,836,224.83,912.21,327.08,991.26c25.95,20.06,50.22,27.2,80.63,17.39,5.47-1.77,11.64-1.37,20.57-2.18l6.4-1.23c-.18-.64-.36-1.29-.55-1.94,29.58-9.85,54.35-17.38,78.59-26.32C575.76,953.74,600.79,904.06,582.18,839.25ZM432.81,744.74c-13.83,38.92-22,77.58-11.57,119.3,8.55,34-8.56,49-43.52,40.51C238.29,870.68,149.41,780.88,94,651.67c-55.86-130.36-20.18-246,56.45-353C178.88,259,217.87,226,255.69,194.3c33.15-27.78,70-16.45,111.72,7.48-5.76,19.53-8.44,40.87-18.06,58.41-14.65,26.73-33.62,51.17-51.62,75.95C260.6,387.22,237,443.83,225.91,505.87c-4.24,23.75,4.62,40.05,26.39,50,44.8,20.45,90.9,38.56,133.9,62.29C448.07,652.29,456.3,678.61,432.81,744.74Z"/></g></g></svg>
