<svg version="1.1" xmlns="http://www.w3.org/2000/svg" x="0" y="0" viewBox="0 0 664.449 1051.458" xml:space="preserve"><path fill="#00d98d" d="M664.428 254.5c-1-20-6.416-40.166-7.083-42.75s-2.5-8.75-2.5-8.75l-.916-1 .416-1.083c-2.25-6.25-8.917-19.167-19.417-38.417s-28.082-41.334-36.582-50.167-22-20.666-42.333-35-70.5-40.499-79-45.333-23.089-13.147-25.334-14.167c-10.879-4.94-50.667-10-50.667-10C386.073 4.992 341.678.25 332.303 0s-57.5-.331-69 1.625c-7.982 1.358-35.375 10.5-38.875 12s-15.042 6.49-18.25 7.25c-5.679 1.346-16.5 5.25-21.25 7s-17.5 8.375-25 11.875-20.897 9.278-33.5 13.75c-23.25 8.25-52.75 22.75-58.25 26s-25.25 19.75-29 23.75-5.75 7.25-10.75 16-20.875 47.625-24 60.25-4.75 34.125-4.375 46.375 1.5 25.875 3.625 35.375 5.375 23.625 12 39.125S37.553 339.5 40.803 344.25s34 49.625 34 49.625c2.875 4.625 12.25 18.625 18.25 31.875 8.75 19.375 14.75 38.625 15.125 49.5s-1.75 21.375-1.75 21.375c-.5 3.375-3 17-4.625 24.875-.125 6.375-2.375 18.125-5.625 32.75s-9.5 33.75-9.5 33.75c-2 6.833-13.097 35.133-18.75 45.75-.132.248-3.544 8.085-3.698 8.362-5.694 10.261-17.438 44.59-19.385 52.055-2 7.667-6.833 24.5-6.833 24.5C31.178 743.5 26.303 784 25.928 791.25s-1.375 15.125-.625 30.375 4.875 42 6.5 49.25 8.709 41.71 12.626 57.793c7.75 15.167 17.864 28.222 34.624 50.082 20.125 26.25 47.812 43.312 47.812 43.312 18.758 11.857 38.479 19.271 74.646 25.938s74.334 7.167 83.501 7 54.708-2.625 57.083-2.833 12.125-.625 12.292-.709.408-.497 1.958-1.291c3.5-1.792 5.959-1.167 12.833-5.292 7.87-4.723 14.125-9.75 16.625-12.375s21.125-26.583 24.875-31.583 20.471-31.042 22.125-36.292 2.626-27.622 2.626-27.622c.416-25.669-3.203-45.594-1.752-72.17-.5-26.833 7.502-65.333 7.502-65.333 3.667-18.333 7.616-33.047 8.999-46.375 1.344-8.842 1.5-31.25 1.5-31.25 3.75-12.5 16.625-40.5 18.875-46.75s14-28.25 18.25-33.25 24.75-25.75 24.75-25.75c13.5-12.25 37.807-39.699 43.25-45.75 17.286-19.217 26.716-40.463 33.5-55.083 9.65-20.796 18.75-75.009 18.75-75.009s-.585.85 1.566-4.425c1.954-4.792 10.393-31.358 12.393-38.358s10.584-32.667 10.584-32.667c.417-1.833 4.333-14 4.583-15.333s.917-.833.917-1.667 2-8 2.166-8.083 1.25-.417 1.25-.417 0-.75-.083-2.667c.417-1.5 5.833-15.75 7.333-20.917s5.832-17.917 6.082-18.75.334-3.417.334-3.417l.833-.417c1.755-5.265 7.833-22.082 7.417-38.665zm-87.416 31.333c-10.834 21.833-15.5 26.999-18.5 32.666s-4.334 11.5-4.334 11.5c-6.333 24 10 66.667 10 85 0 44-1.792 46.333-5.729 64.667s-5.562 20.667-6.896 23.667-14.375 19.042-30.125 33.667c-3.562 3.309-11.75 10.25-20.625 16s-11.5 6.375-16 7.375c-5.875 3.875-23.375 16.375-31.375 23.625 0 0-15.583 17.333-19.916 22.333s-6.999 8-9.333 13S419.845 631 419.512 633s-.041 7.625 1.791 16.375c.483 2.307 3.625 26.375-.125 47.25s-12.75 34.125-21.5 46.625-15 19.75-19.75 38.5-2.278 28.252-2 32.5c1 15.25 9.5 45.25 13.25 58.5s9.25 30 8.5 45.5-8 32.5-24 53-29.638 27.631-34.25 30.5c-7.066 4.396-40.75 19.25-79.25 20.25-18.5.75-28-1.5-35.25-3.75s-34.25-18.5-41.75-22.25-17.888-11.527-25.5-18.25c-9.672-8.541-42.973-42.881-46.5-50-4.666-9.418-9.666-33.25-8.333-60.917s5.5-37.334 6.5-40.667.916-3.166 1.166-4.332 1.083-2.499 1.167-2.666-.25-1.083.333-2.25 2.667-4 2.667-4-.167-2.25 0-2.75 2-.5 2.25-2.583l-.583-.083-.083-1.333s.583.25 1.333-.25-.083-.75 1.917-4.75 2.391-4.392 6.917-15c11.949-28.004 39.611-87.797 44.5-118.418 4.75-29.75-6.5-76-5-87.5.842-6.45 2.729-24.758 3.562-27.562.135-.456.781-1.469 1.062-2.062.361-.763 1.614-2.097 1.875-2.688.152-.346.255-1.771.167-2.188-.043-.206.226-1.732.643-2.238.573-.695 1.761-1.965 1.815-2.215.156-.719.215-1.303.375-3.547.054-.73.473-1.665.375-2.25-.167-1 .691-2.69.692-2.86.004-.402-1.505-2.14-1.505-2.14s-.562-2.604-.312-3.052 2.264-1.245 2.25-1.698c-.034-1.118-2.5-10-1.5-11.25s.5-2.75.5-2.75.75-5.75 2-6.25.75-5.5-.25-11-5-32.75-16.5-59.5-20.666-43.667-28.667-54.333c-8-10.667-39-44.667-43.667-50.667S53.95 282.04 51.177 238.667c-3.666-57.333 36.763-105.988 45.334-114.333 14.435-14.054 50.001-29.333 68.667-35.666S244.178 60 258.845 55s69.964-9.426 103.667-10c15.333-.261 47 9.333 56 12.333s35.667 10.334 45 14.667 46.332 30 54.666 37 35.334 33.333 46 48 16.458 23.5 16.458 23.5 1.75-1.75 2-1.625.001 1.959.209 3.042 1.646 3.895 2.396 7.52 4.938 15.062 5.438 32.729-2.833 41.834-13.667 63.667z" id="Layer_2"/></svg>
