<svg xmlns="http://www.w3.org/2000/svg" viewBox="0 0 793.37 1460.39"><title>YellowShapesAsset 4</title><g id="Layer_2" data-name="Layer 2"><g id="Layer_1-2" data-name="Layer 1"><path d="M77.92,1460.39c-2-22.82-4.2-41.08-5.21-59.41-2.05-37.23-4.51-74.5-4.52-111.76,0-10.63,5.26-23.65,12.51-31.52,105.41-114.52,230.35-203.1,367.29-276C501.51,953.21,554.73,923,596.2,877.58c29.2-32,44.62-70.37,30.81-114-8.59-27.12-20.69-53.37-33.51-78.86-22.28-44.28-35.83-90.18-34.18-140.17,2.39-72.18-8-142.6-36.12-209.17-37.67-89.29-94.53-160.89-191.83-190.47-48.2-14.66-97.88-10.73-146.86-6.19C132.18,143.6,80.2,152.22,28,159c-5.07.66-10.3.09-19.45.09L0,9.51C31.39,6.72,59,2.9,86.68,2.06,176.54-.67,266.19-3,355.81,11.2,515.33,36.52,631.46,177,652.37,316.24c4,26.35,9.37,52.55,12.09,79,5.55,54,28.88,100.75,56.8,145.83,31.79,51.33,58.24,104.65,67.5,165.32,16.94,111-13.14,208.7-83.55,294.35-60.46,73.56-138,127-217.47,177.45-83.8,53.22-169.48,103.6-251.82,159-50.1,33.69-95.45,74.45-143,112C89.44,1452,85.77,1454.55,77.92,1460.39Z"/></g></g></svg>