<svg xmlns="http://www.w3.org/2000/svg" viewBox="0 0 2361.21 3295.65"><title>RedShapesAsset 1</title><g id="Layer_2" data-name="Layer 2"><g id="Layer_1-2" data-name="Layer 1"><path d="M1648.86,0c45.24,36,70.26,80.5,87.93,130.57a343.06,343.06,0,0,0,32,66.11c6,9.64,18.55,16.93,29.69,21.27,24.16,9.4,49.1,17,74.12,23.94,90,24.88,152,82.82,193.61,164.16,30.2,59.06,46.83,123.21,65.9,186.36,6,19.78,11,39.87,17.7,59.4,16.56,48.25,48,83.92,93.33,107.31,6.48,3.35,13.06,6.5,22.87,11.36l95.18,1171.3c-20,9-37.45,17.06-55.13,24.59-23.41,10-40.4,27.34-56.69,46.19-36.24,41.9-50.35,90.75-51.5,145.41-1.63,77.27-5.13,154.52-8.84,231.73-3,62.5-14.19,123.12-46.95,178-21.6,36.15-52.86,61.1-90.5,78.6-98.55,45.83-204.13,53.13-310.43,56.14-24.65.7-49.33.22-74,.92-11.78.34-23.51,2.16-37.15,3.5,4.21,36.4,9.46,70.54,11.89,104.88,9.54,135-26.88,249.39-148.57,324.33-38,23.41-76.47,46.13-115,68.65-5.43,3.17-12.51,4.29-19,4.82q-229.12,18.83-458.26,37.26-201.26,16.15-402.56,31.92Q393.91,3287,289.29,3295.4c-6.45.51-13,.07-21.59.07-2-19.15-4.2-37.51-5.75-55.93q-23-273.9-45.83-547.82c-7.32-87.64-15.65-175.22-21.32-263-2.18-33.64,1-67.73,3.07-101.53,4.55-75.79,10.7-151.5,14.72-227.32,4.85-91.53,12.89-182.88,47.07-268.56,21.89-54.86,50.59-107.19,78.74-159.31,29.91-55.37,69.94-103.74,112.06-150.34,9-10,19.07-14.87,32.79-16C553,1500.07,622.7,1494,692.3,1487c45.2-4.58,83.56,13.91,121.15,34,83.35,44.66,134.82,115.5,161.21,204.9,22.25,75.36,43.74,151,62.83,227.2,6.87,27.44,17.05,52.06,35,72.92,25,29,57.2,48.79,94.46,56.21,33.36,6.64,93.82-19.24,114.62-58.8,31.84-60.55,51.89-123.62,52.52-192.77.45-50,3.13-99.93,6.55-149.78,2.09-30.48,7-60.8,11.48-91.08,7.35-50,32.3-90.86,65.36-128,15.69-17.66,33.58-27.13,57-28.09,56.55-2.32,113.08-5.18,169.61-8,11-.56,22-2.1,34.83-3.38-6.94-49.09-15.37-93.48-61.85-119-15.71-8.61-31.84-17.73-44.76-29.84-21.65-20.28-30.18-47.41-35.07-76.6-9.24-55.15-20.52-110-31.24-164.84-6.83-35-34-51.22-62.58-65-19.15-9.26-39.34-16.46-59.31-23.93-21.18-7.92-37.41-21.69-45.33-42.49-11.09-29.12-21-58.8-29.41-88.8-19.68-70.13-40.77-140.23-82.06-200.68-50-73.21-119.09-121.72-208.55-135.19C973.57,469.08,930,482,887.59,496.3c-68,23-129.92,58.62-190.7,96-34.61,21.28-67.71,45-101.39,67.77-4.84,3.27-9.15,7.34-17.43,14.07,12.83,4.45,22.12,8.61,31.85,10.89,86.94,20.33,174,40.3,260.94,60.44,21.28,4.93,42.5,10.11,66,15.72,13.73,199.66,45.07,395.75,57.09,596-22.89,2.84-43.14,5.85-63.51,7.79-154.56,14.78-309.1,29.85-463.74,43.76-78.29,7-156.8,11.67-235.17,17.86-13.35,1.05-24.53-1.7-35.64-9.25-29.73-20.2-60-39.58-92.89-61.12L0,131.49Z"/></g></g></svg>