<svg xmlns="http://www.w3.org/2000/svg" viewBox="0 0 1076.24 995.41"><title>OrangeShapesAsset 2</title><g id="Layer_2" data-name="Layer 2"><g id="Layer_1-2" data-name="Layer 1"><path d="M0,780.44c2.77-10.63,4.38-17.71,6.46-24.64q87-290,174.35-579.91c2.8-9.28,8-18.32,13.83-26.14C232.82,98.66,278.81,55.55,330,17.68,351.38,1.91,374.16-3.88,399.64,2.62c16.1,4.11,32,9.07,47.69,14.64,22,7.83,35.86,24.24,45.6,45,15,32.07,19.43,66.33,21.41,101,2.95,51.48-1.88,102.31-12.43,152.87-3.76,18-3.45,37.07-3.46,55.65,0,30.46,14.49,52,43,63.27,18.57,7.35,37.06,15.15,56.13,20.94,34,10.32,62,27.28,77.2,61.1,2.06,4.58,6,9.36,10.3,11.7,23.36,12.62,46.2,26.55,73.32,30.41,54.06,7.69,108.19,15,162,24,33.13,5.5,63.91,17.51,90.82,39,55.11,43.91,75.16,100.67,60,168.44-7.93,35.56-20.53,70.22-33,104.6-13.63,37.7-41.36,64.65-73.09,87.8-15.37,11.21-32.59,13.14-51.2,12.23-66.92-3.28-132.34-14.54-196.1-35.08-86.09-27.74-175-40.5-264.49-50.28-129.43-14.15-253.29-49.72-374-97.38C53.63,802.24,27.86,791.67,0,780.44ZM318.95,239.73c-9.66,7.77-20.2,14.07-27.86,22.88-15.69,18-30.91,36.7-44.41,56.42-49.84,72.81-87.05,150.53-98.41,239.75-9.4,73.82,8.83,136.48,65.6,185.1,47.06,40.3,101.76,67.95,160.68,87,51.46,16.65,103.92,13.3,156.42,7,70.14-8.42,139.51-6.65,207.95,13,25.59,7.36,51.59,13.39,77.6,19.17,14.12,3.14,28.63,4.5,44,6.82,10.85-12.54,21.35-23.61,30.65-35.62C921,802.79,917.8,765,882.37,731.92c-3.89-3.64-8.25-6.86-11.69-10.87-20.81-24.3-48.23-36.55-79.07-36.64a1110.2,1110.2,0,0,0-117.45,6.4c-72.41,7.51-144.69,11.72-217,1-37.34-5.54-73.2-14.75-99-46-28.38-34.43-49.26-72.85-61.67-115.56-8.91-30.69-10.17-61.78,2.64-92.09,11.13-26.32,22.06-52.75,34-78.73,11.67-25.46,24.23-50.37,26-79.16,1-16.36-6.62-26.6-20.27-33.36C333.47,244.26,327.6,242.8,318.95,239.73Z"/></g></g></svg>