<?xml version="1.0" encoding="utf-8"?>
<!-- Generator: Adobe Illustrator 16.0.3, SVG Export Plug-In . SVG Version: 6.00 Build 0)  -->
<!DOCTYPE svg PUBLIC "-//W3C//DTD SVG 1.1//EN" "http://www.w3.org/Graphics/SVG/1.1/DTD/svg11.dtd">
<svg version="1.1" id="Layer_1" xmlns="http://www.w3.org/2000/svg" xmlns:xlink="http://www.w3.org/1999/xlink" x="0px" y="0px" viewBox="0 0 356.956 598.887" enable-background="new 0 0 356.956 598.887"
   xml:space="preserve">
<path fill="#fee71a" fill-rule="evenodd" clip-rule="evenodd" d="M161.288,451.918c5.902,2.249,10.929,6.12,16.525,8.935
  c9.43,6.984,19.354,13.359,27.284,22.194c3.835,4.27,7.586,8.578,9.894,13.946c1.078,2.51,2.402,4.911,3.588,7.373
  c1.301,2.706,2.777,5.352,2.972,8.454c0.032,0.534,0.198,1.086,0.415,1.58c3.285,7.432,3.679,15.334,3.777,23.275
  c0.054,4.374,0.037,8.75-0.044,13.121c-0.058,3.271-0.266,6.541-0.42,10.117c1.818,6.514,3.467,13.432,7.796,19.913
  c5.143,5.765,11.615,10.706,19.585,14.679c1.016,0.153,2.67,0.24,4.235,0.665c11.231,3.039,22.646,3.107,34.127,2.224
  c0.814-0.063,1.633-0.138,2.449-0.164c2.732-0.096,5.479-0.021,8.191-0.296c3.529-0.355,7.031-0.987,10.4-1.479
  c0.657-0.221,1.181-0.386,1.693-0.571c10.073-3.669,17.559-10.831,24.734-18.392c0.749-0.788,1.424-1.674,1.996-2.599
  c3.016-4.871,5.924-9.812,8.996-14.646c2.675-4.206,4.4-8.8,5.727-13.539c1.479-5.279,2.269-10.625,1.357-16.176
  c-0.707-4.307-1.335-8.615-2.309-12.881c-2.121-9.305-3.738-18.735-6.2-27.944c-1.633-6.104-2.562-12.263-3.517-18.461
  c-0.754-4.907-0.906-9.859-0.303-14.709c0.722-5.792,0.463-11.432-0.733-17.549c-0.72-1.58-1.564-3.599-2.546-5.549
  c-2.213-4.395-4.122-9.001-6.84-13.063c-3.172-4.736-7.021-9.029-10.67-13.435c-5.582-6.736-11.946-12.733-18.13-18.9
  c-1.155-1.154-2.469-2.152-3.71-3.221c-2.067-1.778-4.118-3.575-6.209-5.325c-1.467-1.226-2.882-2.561-4.507-3.542
  c-6.314-3.805-11.973-8.641-18.555-11.993c-3.997-2.035-7.27-4.775-9.886-8.302c-1.361-5.062-2.328-10.138-2.958-15.296
  c-0.335-2.739-0.49-5.421-0.018-8.151c0.277-1.611,0.471-3.251,0.528-4.884c0.257-7.446,3.505-13.686,7.887-19.418
  c3.812-4.984,7.551-10.012,11.71-14.753c4.132-4.712,8.211-9.494,12.258-14.293c0.878-1.043,1.896-1.965,2.753-3.025
  c1.2-1.485,2.309-3.044,3.295-4.354c2.428-10.848,2.567-11.445,2.368-18.045c-0.082-2.72-0.231-5.485-0.802-8.134
  c-1.212-5.613-2.022-11.281-2.896-16.943c-0.332-2.15-0.936-4.259-1.254-6.413c-0.2-1.339-0.146-2.728-0.121-4.094
  c0.07-3.545-0.214-7.103,0.297-10.822c5.335-9.689,11.125-19.255,17.957-28.153c4.821-6.279,9.256-12.872,14.828-18.554
  c0.76-0.776,1.373-1.703,2.014-2.587c4.005-5.519,8.469-10.676,12.605-16.092c2.844-3.727,5.271-7.606,6.684-12.094
  c0.902-2.867,1.789-5.746,2.819-8.568c1.515-4.162,2.139-8.509,2.326-12.856c0.497-11.494,0.099-22.993-2.981-34.137
  c-1.73-6.268-3.319-12.636-6.456-18.481c-3.359-6.259-6.378-12.706-9.554-19.062c-1.347-2.694-2.661-5.413-5.073-7.372
  c-3.324-4.874-8.172-7.983-12.998-11.078c-2.524-1.619-5.192-3.019-7.852-4.414c-1.927-1.009-3.887-2.007-5.933-2.725
  c-6.188-2.177-12.418-4.242-18.65-6.299c-2.328-0.768-4.692-1.328-7.149-1.701c-3.219-0.492-6.341-1.603-10.676-2.76
  c-7.288-0.013-15.76-0.224-24.22,0.02c-6.294,0.181-12.429,1.576-18.278,4.033c-1.258,0.528-2.516,1.28-3.826,1.415
  c-3.651,0.37-6.766,2.08-9.977,3.577c-2.478,1.154-4.946,2.216-7.688,2.738c-2.104,0.4-4.103,1.443-6.093,2.324
  c-2.497,1.103-4.902,2.385-7.687,2.731c-2.771,0.343-5.081,1.949-7.563,3.072c-3.228,1.458-6.353,3.047-9.945,3.688
  c-2.354,0.422-4.547,1.791-6.783,2.803c-3.227,1.462-6.307,3.227-9.938,3.709c-1.577,0.212-3.1,1.029-4.578,1.715
  c-3.225,1.493-6.396,3.104-9.611,4.615c-1.48,0.698-2.97,1.642-4.536,1.839c-3.921,0.496-7.243,2.387-10.677,4.042
  c-4.68,2.255-9.333,4.57-14.003,6.846c-2.453,1.198-4.927,2.244-7.649,2.844c-2.357,0.52-4.615,1.649-6.812,2.721
  C85.511,60.71,73.507,66.661,61.49,72.583c-3.181,1.569-6.282,3.285-9.926,3.712c-1.307,0.154-2.58,0.876-3.796,1.48
  c-14.7,7.283-29.39,14.586-44.069,21.907c-0.963,0.48-1.831,1.158-2.335,1.48c-1.538,1.773-1.62,3.354-1.003,4.984
  c0.479,1.276,1.092,2.503,1.635,3.757c0.542,1.254,1.357,2.471,1.549,3.778c0.648,4.42,2.644,8.302,4.504,12.252
  c0.231,0.494,0.531,0.997,0.593,1.521c0.559,4.727,2.881,8.788,4.826,12.995c0.458,0.989,1.046,2.002,1.161,3.05
  c0.455,4.197,2.5,7.771,4.259,11.463c1.174,2.467,2.43,4.88,2.821,7.658c0.188,1.327,0.68,2.646,1.229,3.88
  c1.78,3.985,3.89,7.815,4.457,12.274c0.16,1.252,1.207,2.39,1.659,3.233c1.82,1.274,3.481,1.214,5.104,1.006
  c5.685-0.734,11.374-1.573,16.912-3.022c7.141-1.868,14.448-2.842,21.634-4.446c1.827-0.409,3.812-0.389,5.692-0.224
  c10.288,0.903,19.183,2.99,28.538,6.972c5.034,2.142,9.704,5.004,14.095,9.086c3.474,5.389,6.398,11.578,9.013,17.873
  c1.238,2.975,1.697,6.318,2.216,9.54c0.823,5.118,1.354,10.26,1.602,15.464c0.521,10.96-0.348,21.81-1.832,32.625
  c-1.298,9.471-2.312,18.955-2.869,28.5c-0.141,2.431-0.755,4.834-1.178,7.403c0.36,1.445,0.893,3.012,1.104,4.619
  c0.213,1.615,0.117,3.274,0.136,4.914c0.099,7.929-0.448,15.825-1.504,23.679c-0.729,5.436-0.814,10.889-0.761,16.356
  c0.051,5.464,0.272,10.932-1.808,16.185c-0.487,1.229-0.271,2.719-0.601,4.034c-0.255,1.032-0.85,1.98-1.295,2.967
  C135.93,400.998,148.608,426.457,161.288,451.918z"/>
</svg>
