<svg xmlns="http://www.w3.org/2000/svg" viewBox="0 0 1761.64 1450.84"><title>GreenShapesAsset 26</title><g id="Layer_2" data-name="Layer 2"><g id="Layer_1-2" data-name="Layer 1"><path fill="#32c97c" d="M1761.64,1450.84h-144.9c-7.26-25.18-14.45-49.93-21.54-74.71-19-66.4-31.58-135.08-80.49-189.26-49.67-55-96.83-63.65-160.69-25.43-48.55,29.06-96.07,60-145.53,87.36-41.8,23.17-86.89,37.34-136,31.46-37.87-4.53-66.85-22.6-89.85-53.38-35.8-47.91-70.09-97.69-111.28-140.68-72.72-75.91-168.65-103.13-269-91.48-116,13.46-197.29-40.16-262.4-120.78C278.2,797.53,226.59,712.47,175.83,628c-16.16-26.89-16-63.84-22.29-96.37C118.59,351.74,81,172.6.47,5.95-.07,4.83.14,3.36,0,2,1,1.29,2.4-.22,2.83,0,106.4,58.59,197,132.61,229.76,251c14.91,53.83,9.64,115.74,2.51,172.6-11,87.53.57,165.25,62.08,231.95C340,705,400.29,722.71,463.06,727.72c60.33,4.81,108.41,28.68,150.58,69.24,12.49,12,25.57,23.43,37.65,35.83,30.9,31.72,67.4,50.59,110.76,62.69,95.86,26.76,176.29,81.87,253,144.62,30.93,25.31,72.15,38.45,109.63,55,7.3,3.22,20.1-1.34,28.41-5.88,42-23,83.1-47.67,125.1-70.69,26.21-14.36,53.3-27.18,80.29-40.07,58.93-28.15,135.31.51,166.21,62.74,30.08,60.58,76.76,112.83,115,169.5,18.42,27.28,36.26,55.33,50.79,84.79C1715.62,1346.43,1738,1398.76,1761.64,1450.84Z"/></g></g></svg>
