<svg xmlns="http://www.w3.org/2000/svg" viewBox="0 0 1246.93 732.16"><title>GreenShapesAsset 14</title><g id="Layer_2" data-name="Layer 2"><g id="Layer_1-2" data-name="Layer 1"><path d="M216.28,732.16c-7.76-2.73-12.23-3.71-16.13-5.77-51.3-27-102.13-54.89-154-80.73-19.32-9.63-29.84-22.25-32.21-43.6-3.67-33-9.62-65.82-13-98.88C-6,435.09,25,384.18,78.35,346.44,188.86,268.24,308.15,253,435,301.67c22.39,8.59,44.56,17.76,66.94,26.39,76.63,29.57,135.71,17.74,183.94-48.71,35.61-49.06,60.75-105.77,89.84-159.46,8.86-16.35,14.8-34.24,23-51C828.5,8.27,869.1-10.19,935.78,5.1c59.41,13.62,105.35,49.5,149.81,88.37,31.09,27.18,61.84,54.92,94.74,79.77,19.19,14.49,42.32,23.77,66.6,37L1167,355.94c-24.56-15.36-46.8-29.33-69.11-43.19-39.59-24.59-78.3-53.26-128.9-43.65-38.08,7.23-72.34,20.37-88.59,61.64-17.06,43.32-37.57,85.27-56.21,128-36.95,84.69-108.58,107.37-185.33,57.09-33.39-21.87-63.72-48.56-97.82-69.11-15-9-36.42-12.93-54-10.94-46.91,5.32-93.24,15.54-139.95,22.83a206.63,206.63,0,0,1-43.81,1.65c-64.33-3.82-113.72,41-110.45,106.25,2.35,47,11.82,93.61,18.29,140.36C212.21,714.39,214.16,721.8,216.28,732.16Z"/></g></g></svg>