<svg xmlns="http://www.w3.org/2000/svg" viewBox="0 0 391.61 409.65"><title>RedShapes2Asset 4</title><g id="Layer_2" data-name="Layer 2"><g id="Layer_1-2" data-name="Layer 1"><path d="M302.16,0c14.64,22.64,28.57,43,41,64.13,4.56,7.74,7,17.35,8.15,26.39,6.2,48.31,13.13,96.33,30.42,142.34,4.85,12.89,6.45,27,9.84,41.87-12.3,9.43-23.45,18.8-35.41,27-39.54,27.12-78.62,55-119.27,80.37-51.55,32.15-119.55,36-178.16,12.37C41.58,372,29.21,345.54,16.44,319.15.79,286.79-3.75,254.2,3.09,218.36c5.58-29.24,6.67-59.57,7.18-89.47.57-33.73,15.11-59.1,41.61-77.71A102.2,102.2,0,0,1,88,35.32C116,29.27,144.39,25.2,172.71,21c32.9-4.84,66.14-7.31,98.06-18C279.86,0,290.3,1,302.16,0Z"/></g></g></svg>