<svg xmlns="http://www.w3.org/2000/svg" viewBox="0 0 614.32 646.48"><title>GreenShapesAsset 17</title><g id="Layer_2" data-name="Layer 2"><g id="Layer_1-2" data-name="Layer 1"><path d="M568.55,145.82l45.77,126.72L458.78,331.61c20.54,56.59,17.36,112.71-1.16,164.57-16.43,46-40.48,91.88-71.35,129.44-24.94,30.34-69.57,22.11-103.35,9.52-39.37-14.67-74.73-39.76-112.71-58.57-29.78-14.75-59.76-31.64-91.64-39.07C16.12,522.93.11,507.2,0,443.61c-.17-96.24,25.77-131.92,117.78-161.95,8.86-2.89,17.78-5.66,26.78-8.07,56.37-15,97.28-42.55,106.63-107.26C260.49,102,297.11,49.93,342.42,0L448.84,111.69,385.59,247.06Z"/></g></g></svg>